<svg width="418" height="659" viewBox="0 0 418 659" fill="none" xmlns="http://www.w3.org/2000/svg">
<g filter="url(#filter0_d_0_4910)">
<path fill-rule="evenodd" clip-rule="evenodd" d="M88.2082 55H279.441C297.782 55 312.649 69.2353 312.649 86.7955V522.066C312.649 539.626 297.782 553.861 279.441 553.861H88.2082C69.8678 553.861 55 539.626 55 522.066V86.7955C55 69.2353 69.8678 55 88.2082 55Z" fill="#213648"/>
</g>
<path opacity="0.595562" fill-rule="evenodd" clip-rule="evenodd" d="M280.181 54.4305H87.3547C78.3522 54.9795 70.0495 59.0875 62.4468 66.7545C67.3362 62.4864 76.057 56.7751 87.5868 56.7751C87.5868 56.7751 272.262 56.7751 279.949 56.7751C291.478 56.7751 300.199 62.4864 305.089 66.7545C297.486 59.0875 289.183 54.9795 280.181 54.4305Z" fill="url(#paint0_linear_0_4910)" fill-opacity="0.65"/>
<path opacity="0.75" fill-rule="evenodd" clip-rule="evenodd" d="M307.432 517.101V89.4123C307.432 77.9371 303.214 73.695 300.698 70.971C298.182 68.2471 298.075 66.8578 301.69 68.9144C305.305 70.971 312.536 76.9611 312.536 89.4123V517.101C312.536 529.553 305.305 535.543 301.69 537.599C298.075 539.656 298.182 538.267 300.698 535.543C303.214 532.819 307.432 528.577 307.432 517.101Z" fill="url(#paint1_linear_0_4910)"/>
<path opacity="0.75" fill-rule="evenodd" clip-rule="evenodd" d="M60.1041 517.101V89.4123C60.1041 77.9371 64.3215 73.695 66.8374 70.971C69.3534 68.2471 69.4605 66.8578 65.8455 68.9144C62.2306 70.971 55.0001 76.9611 55.0001 89.4123V517.101C55.0001 529.553 62.2306 535.543 65.8455 537.599C69.4605 539.656 69.3534 538.267 66.8374 535.543C64.3215 532.819 60.1041 528.577 60.1041 517.101Z" fill="url(#paint2_linear_0_4910)"/>
<path fill-rule="evenodd" clip-rule="evenodd" d="M52.4321 157.987C52.4321 156.882 53.3276 155.987 54.4321 155.987H55.3967C56.5012 155.987 57.3967 156.882 57.3967 157.987V218.338C57.3967 219.442 56.5012 220.338 55.3967 220.338H54.4321C53.3276 220.338 52.4321 219.442 52.4321 218.338V157.987Z" fill="#2E423C"/>
<path fill-rule="evenodd" clip-rule="evenodd" d="M309.968 210.474C309.968 209.369 310.863 208.474 311.968 208.474H312.932C314.037 208.474 314.932 209.369 314.932 210.474V253.424C314.932 254.528 314.037 255.424 312.932 255.424H311.968C310.863 255.424 309.968 254.528 309.968 253.424V210.474Z" fill="#2E423C"/>
<g clip-path="url(#clip0_0_4910)">
<path fill-rule="evenodd" clip-rule="evenodd" d="M161.108 66.875L86.7019 66.875C75.5975 66.875 67.5063 74.4383 67.5063 84.3164V506.706C67.5063 519.586 80.0086 530.998 94.1455 530.998H273.479C287.096 530.998 300.118 519.497 300.118 506.706V85.4582C300.118 73.6185 291.328 66.9454 280.922 66.875L205.336 66.875C205.05 66.9219 199.858 69.0567 197.663 74.4383C195.469 79.8198 191.053 84.1098 186.219 84.1098H180.604C178.306 84.1098 172.256 81.8802 169.192 74.4383C166.129 66.9964 161.395 66.9219 161.108 66.875Z" fill="white"/>
<mask id="mask0_0_4910" style="mask-type:luminance" maskUnits="userSpaceOnUse" x="67" y="66" width="234" height="465">
<path fill-rule="evenodd" clip-rule="evenodd" d="M161.108 66.875L86.7019 66.875C75.5975 66.875 67.5063 74.4383 67.5063 84.3164V506.706C67.5063 519.586 80.0086 530.998 94.1455 530.998H273.479C287.096 530.998 300.118 519.497 300.118 506.706V85.4582C300.118 73.6185 291.328 66.9454 280.922 66.875L205.336 66.875C205.05 66.9219 199.858 69.0567 197.663 74.4383C195.469 79.8198 191.053 84.1098 186.219 84.1098H180.604C178.306 84.1098 172.256 81.8802 169.192 74.4383C166.129 66.9964 161.395 66.9219 161.108 66.875Z" fill="white"/>
</mask>
<g mask="url(#mask0_0_4910)">
<rect x="67.4321" y="66.875" width="233" height="465" fill="url(#paint3_linear_0_4910)"/>
<path d="M146.936 195.431V178.103H142.808V175.463C144.131 175.463 145.197 175.34 146.008 175.095C146.829 174.839 147.443 174.476 147.848 174.007C148.253 173.527 148.493 172.956 148.568 172.295H151.672V195.431H146.936ZM156.928 195.431V193.127V191.943C156.928 190.769 157.146 189.756 157.584 188.903C158.021 188.039 158.597 187.292 159.312 186.663C160.037 186.023 160.826 185.463 161.68 184.983C162.544 184.503 163.408 184.049 164.272 183.623C165.136 183.196 165.925 182.769 166.64 182.343C167.365 181.905 167.946 181.42 168.384 180.887C168.821 180.353 169.04 179.724 169.04 178.999C169.04 178.071 168.714 177.313 168.064 176.727C167.424 176.14 166.544 175.847 165.424 175.847C164.261 175.847 163.274 176.183 162.464 176.855C161.653 177.527 161.152 178.54 160.96 179.895H156.496C156.517 178.423 156.858 177.089 157.52 175.895C158.192 174.689 159.194 173.735 160.528 173.031C161.861 172.327 163.536 171.975 165.552 171.975C167.28 171.975 168.768 172.268 170.016 172.855C171.274 173.441 172.245 174.257 172.928 175.303C173.61 176.348 173.952 177.569 173.952 178.967C173.952 180.129 173.738 181.132 173.312 181.975C172.885 182.817 172.32 183.537 171.616 184.135C170.912 184.732 170.138 185.255 169.296 185.703C168.453 186.151 167.61 186.567 166.768 186.951C165.936 187.335 165.168 187.729 164.464 188.135C163.76 188.529 163.194 188.977 162.768 189.479C162.341 189.98 162.128 190.583 162.128 191.287V191.495H173.92V195.431H156.928ZM182.136 179.287V184.295H177.016V179.287H182.136ZM182.136 190.343V195.335H177.016V190.343H182.136ZM195.883 172.295H200.475V186.391H204.043V190.311H200.475V195.431H195.979L195.995 190.311H185.339V186.471L195.883 172.295ZM189.659 186.391H195.995V177.911L189.659 186.391ZM214.867 195.783C213.427 195.783 212.083 195.505 210.835 194.951C209.587 194.396 208.569 193.617 207.779 192.615C206.99 191.601 206.547 190.417 206.451 189.063H210.899C211.091 189.959 211.518 190.689 212.179 191.255C212.841 191.809 213.673 192.087 214.675 192.087C215.785 192.087 216.755 191.825 217.587 191.303C218.43 190.78 219.059 189.948 219.475 188.807C219.902 187.665 220.051 186.172 219.923 184.327C219.625 184.892 219.209 185.388 218.675 185.815C218.153 186.231 217.539 186.556 216.835 186.791C216.131 187.015 215.347 187.127 214.483 187.127C212.915 187.127 211.523 186.833 210.307 186.247C209.102 185.649 208.153 184.807 207.459 183.719C206.777 182.62 206.435 181.319 206.435 179.815C206.435 178.3 206.798 176.951 207.523 175.767C208.249 174.583 209.262 173.655 210.563 172.983C211.865 172.311 213.39 171.975 215.139 171.975C217.102 171.975 218.793 172.444 220.211 173.383C221.641 174.311 222.734 175.633 223.491 177.351C224.259 179.057 224.643 181.068 224.643 183.383C224.643 186.145 224.249 188.449 223.459 190.295C222.681 192.129 221.561 193.505 220.099 194.423C218.638 195.329 216.894 195.783 214.867 195.783ZM215.283 183.415C215.934 183.415 216.563 183.271 217.171 182.983C217.79 182.684 218.297 182.311 218.691 181.863C219.086 181.415 219.283 180.951 219.283 180.471C219.294 179.436 219.129 178.551 218.787 177.815C218.457 177.068 217.987 176.497 217.379 176.103C216.782 175.708 216.083 175.511 215.283 175.511C214.547 175.511 213.891 175.681 213.315 176.023C212.739 176.364 212.286 176.844 211.955 177.463C211.625 178.081 211.459 178.796 211.459 179.607C211.459 180.812 211.811 181.751 212.515 182.423C213.219 183.084 214.142 183.415 215.283 183.415Z" fill="white"/>
</g>
</g>
<g clip-path="url(#clip1_0_4910)">
<g filter="url(#filter1_d_0_4910)">
<rect x="74.4321" y="221.431" width="218" height="87" rx="5" fill="#FBFCFE"/>
</g>
<g clip-path="url(#clip2_0_4910)">
<path d="M91.2421 247.431V240.201H93.9021C94.4288 240.201 94.9005 240.292 95.3171 240.476C95.7338 240.656 96.0621 240.922 96.3021 241.276C96.5455 241.629 96.6671 242.061 96.6671 242.571C96.6671 243.051 96.5605 243.461 96.3471 243.801C96.1338 244.141 95.8338 244.401 95.4471 244.581C95.0638 244.761 94.6121 244.851 94.0921 244.851H92.7121V247.431H91.2421ZM92.6971 243.721H94.0521C94.4188 243.721 94.7188 243.604 94.9521 243.371C95.1855 243.134 95.3021 242.842 95.3021 242.496C95.3021 242.136 95.1788 241.851 94.9321 241.641C94.6855 241.427 94.3855 241.321 94.0321 241.321H92.6971V243.721ZM98.9438 247.531C98.6138 247.531 98.3172 247.469 98.0538 247.346C97.7905 247.222 97.5822 247.044 97.4288 246.811C97.2755 246.574 97.1988 246.287 97.1988 245.951C97.1988 245.384 97.4105 244.954 97.8338 244.661C98.2572 244.364 98.9255 244.211 99.8388 244.201L100.484 244.191V243.881C100.484 243.644 100.414 243.462 100.274 243.336C100.137 243.206 99.9238 243.142 99.6338 243.146C99.4205 243.149 99.2172 243.199 99.0238 243.296C98.8338 243.392 98.7038 243.561 98.6338 243.801H97.4188C97.4388 243.427 97.5472 243.121 97.7438 242.881C97.9405 242.637 98.2072 242.457 98.5438 242.341C98.8838 242.221 99.2688 242.161 99.6988 242.161C100.229 242.161 100.654 242.227 100.974 242.361C101.294 242.491 101.526 242.679 101.669 242.926C101.812 243.169 101.884 243.459 101.884 243.796V247.431H100.664L100.544 246.541C100.367 246.914 100.146 247.172 99.8788 247.316C99.6155 247.459 99.3038 247.531 98.9438 247.531ZM99.4338 246.571C99.5672 246.571 99.6955 246.547 99.8188 246.501C99.9455 246.451 100.057 246.386 100.154 246.306C100.254 246.222 100.334 246.129 100.394 246.026C100.454 245.922 100.484 245.816 100.484 245.706V244.941L99.9588 244.951C99.7155 244.954 99.4888 244.984 99.2788 245.041C99.0688 245.094 98.8988 245.182 98.7688 245.306C98.6422 245.429 98.5788 245.596 98.5788 245.806C98.5788 246.046 98.6622 246.234 98.8288 246.371C98.9955 246.504 99.1972 246.571 99.4338 246.571ZM103.796 249.081C103.442 249.081 103.192 249.051 103.046 248.991C102.902 248.934 102.831 248.906 102.831 248.906V247.976L103.341 247.996C103.564 248.009 103.744 247.997 103.881 247.961C104.017 247.927 104.121 247.882 104.191 247.826C104.264 247.769 104.316 247.709 104.346 247.646C104.376 247.586 104.397 247.537 104.411 247.501L104.506 247.216L102.496 242.261H103.941L105.181 245.631L106.436 242.261H107.861L105.766 247.461C105.586 247.901 105.396 248.237 105.196 248.471C104.996 248.704 104.779 248.864 104.546 248.951C104.316 249.037 104.066 249.081 103.796 249.081ZM107.66 247.431L110.25 240.201H111.79L114.375 247.431H112.92L112.33 245.756H109.73L109.125 247.431H107.66ZM110.055 244.481H111.98L111.025 241.611L110.055 244.481ZM115.461 247.431V240.201H118.121C118.648 240.201 119.119 240.292 119.536 240.476C119.953 240.656 120.281 240.922 120.521 241.276C120.764 241.629 120.886 242.061 120.886 242.571C120.886 243.051 120.779 243.461 120.566 243.801C120.353 244.141 120.053 244.401 119.666 244.581C119.283 244.761 118.831 244.851 118.311 244.851H116.931V247.431H115.461ZM116.916 243.721H118.271C118.638 243.721 118.938 243.604 119.171 243.371C119.404 243.134 119.521 242.842 119.521 242.496C119.521 242.136 119.398 241.851 119.151 241.641C118.904 241.427 118.604 241.321 118.251 241.321H116.916V243.721ZM121.984 240.201H123.439V247.431H121.984V240.201Z" fill="#BA4270"/>
<path opacity="0.5" d="M238.041 245.726C238.041 246.109 237.998 246.436 237.911 246.706C237.824 246.976 237.669 247.181 237.446 247.321C237.226 247.461 236.913 247.531 236.506 247.531C236.249 247.531 236.008 247.501 235.781 247.441C235.558 247.381 235.409 247.336 235.336 247.306L235.401 246.421C235.504 246.457 235.623 246.504 235.756 246.561C235.893 246.614 236.061 246.641 236.261 246.641C236.588 246.641 236.811 246.551 236.931 246.371C237.054 246.191 237.116 245.887 237.116 245.461V240.201H238.041V245.726ZM241.473 247.531C241.203 247.527 240.948 247.489 240.708 247.416C240.471 247.339 240.261 247.227 240.078 247.081C239.895 246.934 239.75 246.752 239.643 246.536C239.54 246.316 239.488 246.061 239.488 245.771V242.261H240.413V245.676C240.413 246.012 240.516 246.286 240.723 246.496C240.933 246.706 241.248 246.811 241.668 246.811C242.048 246.811 242.353 246.712 242.583 246.516C242.816 246.316 242.933 246.019 242.933 245.626V242.261H243.853V247.431H243.118L243.023 246.441C242.96 246.701 242.851 246.911 242.698 247.071C242.548 247.231 242.366 247.349 242.153 247.426C241.943 247.499 241.716 247.534 241.473 247.531ZM247.131 247.531C246.771 247.531 246.436 247.476 246.126 247.366C245.819 247.252 245.564 247.077 245.361 246.841C245.157 246.601 245.029 246.296 244.976 245.926H245.816C245.862 246.129 245.946 246.299 246.066 246.436C246.189 246.569 246.342 246.671 246.526 246.741C246.709 246.807 246.909 246.841 247.126 246.841C247.472 246.841 247.752 246.776 247.966 246.646C248.179 246.516 248.286 246.316 248.286 246.046C248.286 245.856 248.229 245.704 248.116 245.591C248.006 245.474 247.834 245.389 247.601 245.336L246.531 245.071C246.114 244.971 245.781 244.814 245.531 244.601C245.281 244.387 245.156 244.089 245.156 243.706C245.152 243.402 245.224 243.136 245.371 242.906C245.517 242.676 245.737 242.494 246.031 242.361C246.324 242.227 246.689 242.161 247.126 242.161C247.686 242.161 248.137 242.287 248.481 242.541C248.827 242.791 249.007 243.159 249.021 243.646H248.206C248.172 243.399 248.061 243.204 247.871 243.061C247.684 242.914 247.432 242.841 247.116 242.841C246.786 242.841 246.517 242.907 246.311 243.041C246.104 243.171 246.001 243.374 246.001 243.651C246.001 243.834 246.074 243.979 246.221 244.086C246.367 244.189 246.584 244.276 246.871 244.346L247.906 244.606C248.146 244.669 248.342 244.752 248.496 244.856C248.652 244.959 248.776 245.074 248.866 245.201C248.959 245.327 249.024 245.461 249.061 245.601C249.101 245.737 249.121 245.869 249.121 245.996C249.121 246.312 249.041 246.586 248.881 246.816C248.724 247.042 248.497 247.219 248.201 247.346C247.907 247.469 247.551 247.531 247.131 247.531ZM252.932 242.936H251.767V246.151C251.767 246.334 251.785 246.469 251.822 246.556C251.862 246.639 251.927 246.692 252.017 246.716C252.11 246.739 252.237 246.751 252.397 246.751H252.962V247.371C252.899 247.394 252.802 247.414 252.672 247.431C252.545 247.447 252.387 247.456 252.197 247.456C251.84 247.456 251.564 247.407 251.367 247.311C251.17 247.214 251.032 247.071 250.952 246.881C250.875 246.691 250.837 246.457 250.837 246.181V242.936H249.997V242.261H250.862L251.087 240.756H251.767V242.256H252.932V242.936ZM261.46 240.201H262.385V247.431H261.56L257.68 241.731V247.431H256.755V240.201H257.64L261.46 245.821V240.201ZM266.091 247.531C265.614 247.531 265.197 247.429 264.841 247.226C264.484 247.019 264.207 246.717 264.011 246.321C263.814 245.924 263.716 245.439 263.716 244.866C263.716 244.326 263.807 243.852 263.991 243.446C264.174 243.039 264.442 242.724 264.796 242.501C265.152 242.274 265.584 242.161 266.091 242.161C266.567 242.161 266.981 242.266 267.331 242.476C267.684 242.682 267.957 242.987 268.151 243.391C268.344 243.794 268.441 244.286 268.441 244.866C268.441 245.392 268.351 245.856 268.171 246.256C267.994 246.656 267.731 246.969 267.381 247.196C267.034 247.419 266.604 247.531 266.091 247.531ZM266.091 246.801C266.401 246.801 266.662 246.722 266.876 246.566C267.089 246.409 267.251 246.184 267.361 245.891C267.471 245.597 267.526 245.249 267.526 244.846C267.526 244.476 267.477 244.144 267.381 243.851C267.284 243.554 267.129 243.319 266.916 243.146C266.706 242.972 266.431 242.886 266.091 242.886C265.777 242.886 265.512 242.964 265.296 243.121C265.079 243.274 264.914 243.497 264.801 243.791C264.691 244.084 264.636 244.436 264.636 244.846C264.636 245.209 264.686 245.539 264.786 245.836C264.886 246.132 265.042 246.367 265.256 246.541C265.469 246.714 265.747 246.801 266.091 246.801ZM276.265 242.261L274.7 247.431H273.79L272.61 243.616L271.49 247.431H270.585L268.99 242.261H269.845L271.03 246.236H271.11L272.275 242.261H272.975L274.185 246.226H274.265L275.4 242.261H276.265Z" fill="#36536B"/>
</g>
<path d="M90.6621 257.051V256.201H96.1321V257.051H93.9271V263.431H92.9971V257.051H90.6621ZM97.1346 263.431V256.001H98.0346V259.021C98.1213 258.877 98.238 258.744 98.3846 258.621C98.5313 258.494 98.7096 258.392 98.9196 258.316C99.1296 258.236 99.373 258.196 99.6496 258.196C99.9863 258.196 100.291 258.259 100.565 258.386C100.838 258.509 101.055 258.686 101.215 258.916C101.375 259.146 101.455 259.419 101.455 259.736V263.431H100.53V259.921C100.53 259.611 100.423 259.372 100.21 259.206C99.9996 259.036 99.7246 258.951 99.3846 258.951C99.1546 258.951 98.938 258.989 98.7346 259.066C98.5313 259.139 98.3663 259.252 98.2396 259.406C98.1163 259.556 98.0546 259.747 98.0546 259.981V263.431H97.1346ZM103.556 261.061C103.556 261.387 103.61 261.684 103.716 261.951C103.826 262.214 103.991 262.424 104.211 262.581C104.435 262.737 104.713 262.816 105.046 262.816C105.376 262.816 105.66 262.739 105.896 262.586C106.136 262.432 106.29 262.211 106.356 261.921H107.231C107.168 262.271 107.028 262.566 106.811 262.806C106.595 263.046 106.333 263.227 106.026 263.351C105.72 263.471 105.4 263.531 105.066 263.531C104.583 263.531 104.158 263.426 103.791 263.216C103.425 263.006 103.138 262.704 102.931 262.311C102.725 261.917 102.621 261.446 102.621 260.896C102.621 260.352 102.715 259.876 102.901 259.466C103.088 259.056 103.358 258.736 103.711 258.506C104.068 258.276 104.496 258.161 104.996 258.161C105.483 258.161 105.895 258.266 106.231 258.476C106.568 258.686 106.823 258.982 106.996 259.366C107.173 259.746 107.261 260.197 107.261 260.721V261.061H103.556ZM103.561 260.436H106.371C106.371 260.139 106.321 259.872 106.221 259.636C106.121 259.396 105.968 259.207 105.761 259.071C105.558 258.931 105.301 258.861 104.991 258.861C104.668 258.861 104.4 258.939 104.186 259.096C103.976 259.249 103.818 259.447 103.711 259.691C103.608 259.931 103.558 260.179 103.561 260.436ZM110.767 265.041V258.261H111.687L111.697 259.161C111.757 259.054 111.834 258.942 111.927 258.826C112.024 258.709 112.141 258.601 112.277 258.501C112.417 258.401 112.579 258.319 112.762 258.256C112.949 258.192 113.161 258.161 113.397 258.161C113.811 258.161 114.174 258.256 114.487 258.446C114.804 258.632 115.051 258.919 115.227 259.306C115.404 259.692 115.492 260.182 115.492 260.776C115.492 261.369 115.406 261.871 115.232 262.281C115.062 262.687 114.816 262.997 114.492 263.211C114.169 263.424 113.779 263.531 113.322 263.531C113.092 263.531 112.887 263.497 112.707 263.431C112.531 263.367 112.376 263.284 112.242 263.181C112.112 263.074 112.002 262.961 111.912 262.841C111.826 262.721 111.754 262.606 111.697 262.496V265.041H110.767ZM113.147 262.811C113.574 262.811 113.922 262.649 114.192 262.326C114.462 261.999 114.597 261.492 114.597 260.806C114.597 260.216 114.474 259.747 114.227 259.401C113.981 259.054 113.621 258.881 113.147 258.881C112.667 258.881 112.304 259.059 112.057 259.416C111.811 259.769 111.687 260.232 111.687 260.806C111.687 261.176 111.742 261.512 111.852 261.816C111.962 262.119 112.126 262.361 112.342 262.541C112.559 262.721 112.827 262.811 113.147 262.811ZM118.067 263.531C117.733 263.531 117.438 263.472 117.182 263.356C116.925 263.236 116.723 263.064 116.577 262.841C116.433 262.617 116.362 262.347 116.362 262.031C116.362 261.457 116.562 261.031 116.962 260.751C117.362 260.471 118.003 260.321 118.887 260.301L119.812 260.276V259.871C119.812 259.554 119.717 259.304 119.527 259.121C119.337 258.934 119.042 258.841 118.642 258.841C118.345 258.844 118.083 258.914 117.857 259.051C117.633 259.187 117.488 259.411 117.422 259.721H116.607C116.627 259.384 116.722 259.101 116.892 258.871C117.062 258.637 117.298 258.461 117.602 258.341C117.908 258.221 118.27 258.161 118.687 258.161C119.137 258.161 119.51 258.224 119.807 258.351C120.107 258.477 120.33 258.664 120.477 258.911C120.627 259.157 120.702 259.461 120.702 259.821V263.431H119.912L119.847 262.461C119.647 262.864 119.392 263.144 119.082 263.301C118.775 263.454 118.437 263.531 118.067 263.531ZM118.347 262.866C118.52 262.866 118.692 262.834 118.862 262.771C119.035 262.707 119.193 262.622 119.337 262.516C119.48 262.406 119.593 262.284 119.677 262.151C119.763 262.014 119.808 261.874 119.812 261.731V260.846L119.042 260.861C118.648 260.867 118.318 260.907 118.052 260.981C117.788 261.054 117.59 261.169 117.457 261.326C117.327 261.482 117.262 261.687 117.262 261.941C117.262 262.231 117.362 262.457 117.562 262.621C117.765 262.784 118.027 262.866 118.347 262.866ZM122.625 265.081C122.322 265.081 122.113 265.059 122 265.016C121.887 264.972 121.83 264.951 121.83 264.951V264.351L122.355 264.361C122.548 264.367 122.708 264.354 122.835 264.321C122.962 264.287 123.063 264.242 123.14 264.186C123.217 264.129 123.275 264.066 123.315 263.996C123.358 263.926 123.393 263.859 123.42 263.796L123.6 263.306L121.58 258.261H122.515L124.04 262.251L125.555 258.261H126.46L124.28 263.821C124.147 264.147 123.997 264.402 123.83 264.586C123.667 264.769 123.483 264.897 123.28 264.971C123.08 265.044 122.862 265.081 122.625 265.081ZM127.447 263.431V258.261H128.337V259.011C128.48 258.784 128.677 258.586 128.927 258.416C129.177 258.246 129.502 258.161 129.902 258.161C130.089 258.161 130.279 258.192 130.472 258.256C130.669 258.319 130.849 258.414 131.012 258.541C131.175 258.667 131.302 258.822 131.392 259.006C131.552 258.752 131.769 258.549 132.042 258.396C132.315 258.239 132.624 258.161 132.967 258.161C133.147 258.161 133.335 258.189 133.532 258.246C133.729 258.299 133.91 258.396 134.077 258.536C134.247 258.672 134.385 258.864 134.492 259.111C134.599 259.354 134.652 259.667 134.652 260.051V263.431H133.722V260.141C133.722 259.827 133.672 259.586 133.572 259.416C133.472 259.242 133.34 259.121 133.177 259.051C133.017 258.981 132.845 258.946 132.662 258.946C132.502 258.946 132.332 258.977 132.152 259.041C131.972 259.104 131.819 259.211 131.692 259.361C131.565 259.511 131.502 259.716 131.502 259.976V263.431H130.582V259.871C130.582 259.667 130.527 259.497 130.417 259.361C130.31 259.224 130.175 259.121 130.012 259.051C129.852 258.981 129.692 258.946 129.532 258.946C129.355 258.946 129.177 258.981 128.997 259.051C128.82 259.121 128.67 259.232 128.547 259.386C128.427 259.536 128.367 259.732 128.367 259.976V263.431H127.447ZM136.759 261.061C136.759 261.387 136.813 261.684 136.919 261.951C137.029 262.214 137.194 262.424 137.414 262.581C137.638 262.737 137.916 262.816 138.249 262.816C138.579 262.816 138.863 262.739 139.099 262.586C139.339 262.432 139.493 262.211 139.559 261.921H140.434C140.371 262.271 140.231 262.566 140.014 262.806C139.798 263.046 139.536 263.227 139.229 263.351C138.923 263.471 138.603 263.531 138.269 263.531C137.786 263.531 137.361 263.426 136.994 263.216C136.628 263.006 136.341 262.704 136.134 262.311C135.928 261.917 135.824 261.446 135.824 260.896C135.824 260.352 135.918 259.876 136.104 259.466C136.291 259.056 136.561 258.736 136.914 258.506C137.271 258.276 137.699 258.161 138.199 258.161C138.686 258.161 139.098 258.266 139.434 258.476C139.771 258.686 140.026 258.982 140.199 259.366C140.376 259.746 140.464 260.197 140.464 260.721V261.061H136.759ZM136.764 260.436H139.574C139.574 260.139 139.524 259.872 139.424 259.636C139.324 259.396 139.171 259.207 138.964 259.071C138.761 258.931 138.504 258.861 138.194 258.861C137.871 258.861 137.603 258.939 137.389 259.096C137.179 259.249 137.021 259.447 136.914 259.691C136.811 259.931 136.761 260.179 136.764 260.436ZM141.734 263.431V258.261H142.629V259.011C142.713 258.867 142.828 258.732 142.974 258.606C143.124 258.479 143.304 258.377 143.514 258.301C143.728 258.224 143.973 258.186 144.249 258.186C144.576 258.186 144.876 258.251 145.149 258.381C145.426 258.511 145.646 258.714 145.809 258.991C145.976 259.264 146.059 259.617 146.059 260.051V263.431H145.134V260.141C145.134 259.737 145.028 259.439 144.814 259.246C144.604 259.049 144.331 258.951 143.994 258.951C143.761 258.951 143.543 258.989 143.339 259.066C143.136 259.139 142.971 259.252 142.844 259.406C142.718 259.556 142.654 259.746 142.654 259.976V263.431H141.734ZM149.888 258.936H148.723V262.151C148.723 262.334 148.742 262.469 148.778 262.556C148.818 262.639 148.883 262.692 148.973 262.716C149.067 262.739 149.193 262.751 149.353 262.751H149.918V263.371C149.855 263.394 149.758 263.414 149.628 263.431C149.502 263.447 149.343 263.456 149.153 263.456C148.797 263.456 148.52 263.407 148.323 263.311C148.127 263.214 147.988 263.071 147.908 262.881C147.832 262.691 147.793 262.457 147.793 262.181V258.936H146.953V258.261H147.818L148.043 256.756H148.723V258.256H149.888V258.936ZM153.521 263.431V256.001H154.421V259.021C154.508 258.877 154.625 258.744 154.771 258.621C154.918 258.494 155.096 258.392 155.306 258.316C155.516 258.236 155.76 258.196 156.036 258.196C156.373 258.196 156.678 258.259 156.951 258.386C157.225 258.509 157.441 258.686 157.601 258.916C157.761 259.146 157.841 259.419 157.841 259.736V263.431H156.916V259.921C156.916 259.611 156.81 259.372 156.596 259.206C156.386 259.036 156.111 258.951 155.771 258.951C155.541 258.951 155.325 258.989 155.121 259.066C154.918 259.139 154.753 259.252 154.626 259.406C154.503 259.556 154.441 259.747 154.441 259.981V263.431H153.521ZM160.694 263.531C160.36 263.531 160.065 263.472 159.809 263.356C159.552 263.236 159.35 263.064 159.204 262.841C159.06 262.617 158.989 262.347 158.989 262.031C158.989 261.457 159.189 261.031 159.589 260.751C159.989 260.471 160.63 260.321 161.514 260.301L162.439 260.276V259.871C162.439 259.554 162.344 259.304 162.154 259.121C161.964 258.934 161.669 258.841 161.269 258.841C160.972 258.844 160.71 258.914 160.484 259.051C160.26 259.187 160.115 259.411 160.049 259.721H159.234C159.254 259.384 159.349 259.101 159.519 258.871C159.689 258.637 159.925 258.461 160.229 258.341C160.535 258.221 160.897 258.161 161.314 258.161C161.764 258.161 162.137 258.224 162.434 258.351C162.734 258.477 162.957 258.664 163.104 258.911C163.254 259.157 163.329 259.461 163.329 259.821V263.431H162.539L162.474 262.461C162.274 262.864 162.019 263.144 161.709 263.301C161.402 263.454 161.064 263.531 160.694 263.531ZM160.974 262.866C161.147 262.866 161.319 262.834 161.489 262.771C161.662 262.707 161.82 262.622 161.964 262.516C162.107 262.406 162.22 262.284 162.304 262.151C162.39 262.014 162.435 261.874 162.439 261.731V260.846L161.669 260.861C161.275 260.867 160.945 260.907 160.679 260.981C160.415 261.054 160.217 261.169 160.084 261.326C159.954 261.482 159.889 261.687 159.889 261.941C159.889 262.231 159.989 262.457 160.189 262.621C160.392 262.784 160.654 262.866 160.974 262.866ZM166.655 263.531C166.295 263.531 165.96 263.476 165.65 263.366C165.344 263.252 165.089 263.077 164.885 262.841C164.682 262.601 164.554 262.296 164.5 261.926H165.34C165.387 262.129 165.47 262.299 165.59 262.436C165.714 262.569 165.867 262.671 166.05 262.741C166.234 262.807 166.434 262.841 166.65 262.841C166.997 262.841 167.277 262.776 167.49 262.646C167.704 262.516 167.81 262.316 167.81 262.046C167.81 261.856 167.754 261.704 167.64 261.591C167.53 261.474 167.359 261.389 167.125 261.336L166.055 261.071C165.639 260.971 165.305 260.814 165.055 260.601C164.805 260.387 164.68 260.089 164.68 259.706C164.677 259.402 164.749 259.136 164.895 258.906C165.042 258.676 165.262 258.494 165.555 258.361C165.849 258.227 166.214 258.161 166.65 258.161C167.21 258.161 167.662 258.287 168.005 258.541C168.352 258.791 168.532 259.159 168.545 259.646H167.73C167.697 259.399 167.585 259.204 167.395 259.061C167.209 258.914 166.957 258.841 166.64 258.841C166.31 258.841 166.042 258.907 165.835 259.041C165.629 259.171 165.525 259.374 165.525 259.651C165.525 259.834 165.599 259.979 165.745 260.086C165.892 260.189 166.109 260.276 166.395 260.346L167.43 260.606C167.67 260.669 167.867 260.752 168.02 260.856C168.177 260.959 168.3 261.074 168.39 261.201C168.484 261.327 168.549 261.461 168.585 261.601C168.625 261.737 168.645 261.869 168.645 261.996C168.645 262.312 168.565 262.586 168.405 262.816C168.249 263.042 168.022 263.219 167.725 263.346C167.432 263.469 167.075 263.531 166.655 263.531ZM174.758 263.531C174.455 263.531 174.198 263.491 173.988 263.411C173.781 263.331 173.611 263.229 173.478 263.106C173.345 262.979 173.241 262.851 173.168 262.721C173.095 262.587 173.041 262.471 173.008 262.371L172.908 263.431H172.203V256.001H173.133V259.081C173.176 258.994 173.241 258.899 173.328 258.796C173.418 258.692 173.533 258.592 173.673 258.496C173.813 258.399 173.978 258.319 174.168 258.256C174.361 258.192 174.581 258.161 174.828 258.161C175.475 258.161 175.988 258.386 176.368 258.836C176.751 259.286 176.943 259.949 176.943 260.826C176.943 261.369 176.861 261.844 176.698 262.251C176.535 262.654 176.291 262.969 175.968 263.196C175.645 263.419 175.241 263.531 174.758 263.531ZM174.593 262.821C175.013 262.821 175.355 262.659 175.618 262.336C175.881 262.009 176.013 261.491 176.013 260.781C176.013 260.177 175.89 259.711 175.643 259.381C175.4 259.047 175.043 258.881 174.573 258.881C174.23 258.881 173.953 258.956 173.743 259.106C173.536 259.252 173.383 259.467 173.283 259.751C173.186 260.034 173.136 260.377 173.133 260.781C173.133 261.504 173.245 262.026 173.468 262.346C173.695 262.662 174.07 262.821 174.593 262.821ZM178.81 261.061C178.81 261.387 178.864 261.684 178.97 261.951C179.08 262.214 179.245 262.424 179.465 262.581C179.689 262.737 179.967 262.816 180.3 262.816C180.63 262.816 180.914 262.739 181.15 262.586C181.39 262.432 181.544 262.211 181.61 261.921H182.485C182.422 262.271 182.282 262.566 182.065 262.806C181.849 263.046 181.587 263.227 181.28 263.351C180.974 263.471 180.654 263.531 180.32 263.531C179.837 263.531 179.412 263.426 179.045 263.216C178.679 263.006 178.392 262.704 178.185 262.311C177.979 261.917 177.875 261.446 177.875 260.896C177.875 260.352 177.969 259.876 178.155 259.466C178.342 259.056 178.612 258.736 178.965 258.506C179.322 258.276 179.75 258.161 180.25 258.161C180.737 258.161 181.149 258.266 181.485 258.476C181.822 258.686 182.077 258.982 182.25 259.366C182.427 259.746 182.515 260.197 182.515 260.721V261.061H178.81ZM178.815 260.436H181.625C181.625 260.139 181.575 259.872 181.475 259.636C181.375 259.396 181.222 259.207 181.015 259.071C180.812 258.931 180.555 258.861 180.245 258.861C179.922 258.861 179.654 258.939 179.44 259.096C179.23 259.249 179.072 259.447 178.965 259.691C178.862 259.931 178.812 260.179 178.815 260.436ZM184.445 261.061C184.445 261.387 184.498 261.684 184.605 261.951C184.715 262.214 184.88 262.424 185.1 262.581C185.323 262.737 185.602 262.816 185.935 262.816C186.265 262.816 186.548 262.739 186.785 262.586C187.025 262.432 187.178 262.211 187.245 261.921H188.12C188.057 262.271 187.917 262.566 187.7 262.806C187.483 263.046 187.222 263.227 186.915 263.351C186.608 263.471 186.288 263.531 185.955 263.531C185.472 263.531 185.047 263.426 184.68 263.216C184.313 263.006 184.027 262.704 183.82 262.311C183.613 261.917 183.51 261.446 183.51 260.896C183.51 260.352 183.603 259.876 183.79 259.466C183.977 259.056 184.247 258.736 184.6 258.506C184.957 258.276 185.385 258.161 185.885 258.161C186.372 258.161 186.783 258.266 187.12 258.476C187.457 258.686 187.712 258.982 187.885 259.366C188.062 259.746 188.15 260.197 188.15 260.721V261.061H184.445ZM184.45 260.436H187.26C187.26 260.139 187.21 259.872 187.11 259.636C187.01 259.396 186.857 259.207 186.65 259.071C186.447 258.931 186.19 258.861 185.88 258.861C185.557 258.861 185.288 258.939 185.075 259.096C184.865 259.249 184.707 259.447 184.6 259.691C184.497 259.931 184.447 260.179 184.45 260.436ZM189.42 263.431V258.261H190.315V259.011C190.398 258.867 190.513 258.732 190.66 258.606C190.81 258.479 190.99 258.377 191.2 258.301C191.413 258.224 191.658 258.186 191.935 258.186C192.261 258.186 192.561 258.251 192.835 258.381C193.111 258.511 193.331 258.714 193.495 258.991C193.661 259.264 193.745 259.617 193.745 260.051V263.431H192.82V260.141C192.82 259.737 192.713 259.439 192.5 259.246C192.29 259.049 192.016 258.951 191.68 258.951C191.446 258.951 191.228 258.989 191.025 259.066C190.821 259.139 190.656 259.252 190.53 259.406C190.403 259.556 190.34 259.746 190.34 259.976V263.431H189.42ZM197.496 265.041V258.261H198.416L198.426 259.161C198.486 259.054 198.563 258.942 198.656 258.826C198.753 258.709 198.869 258.601 199.006 258.501C199.146 258.401 199.308 258.319 199.491 258.256C199.678 258.192 199.889 258.161 200.126 258.161C200.539 258.161 200.903 258.256 201.216 258.446C201.533 258.632 201.779 258.919 201.956 259.306C202.133 259.692 202.221 260.182 202.221 260.776C202.221 261.369 202.134 261.871 201.961 262.281C201.791 262.687 201.544 262.997 201.221 263.211C200.898 263.424 200.508 263.531 200.051 263.531C199.821 263.531 199.616 263.497 199.436 263.431C199.259 263.367 199.104 263.284 198.971 263.181C198.841 263.074 198.731 262.961 198.641 262.841C198.554 262.721 198.483 262.606 198.426 262.496V265.041H197.496ZM199.876 262.811C200.303 262.811 200.651 262.649 200.921 262.326C201.191 261.999 201.326 261.492 201.326 260.806C201.326 260.216 201.203 259.747 200.956 259.401C200.709 259.054 200.349 258.881 199.876 258.881C199.396 258.881 199.033 259.059 198.786 259.416C198.539 259.769 198.416 260.232 198.416 260.806C198.416 261.176 198.471 261.512 198.581 261.816C198.691 262.119 198.854 262.361 199.071 262.541C199.288 262.721 199.556 262.811 199.876 262.811ZM203.433 263.431V258.261H204.313V259.256C204.4 259.009 204.522 258.806 204.678 258.646C204.835 258.482 205.013 258.361 205.213 258.281C205.417 258.201 205.627 258.161 205.843 258.161C205.92 258.161 205.995 258.166 206.068 258.176C206.142 258.186 206.198 258.202 206.238 258.226V259.121C206.188 259.097 206.123 259.082 206.043 259.076C205.967 259.066 205.902 259.061 205.848 259.061C205.642 259.047 205.448 259.061 205.268 259.101C205.088 259.137 204.93 259.202 204.793 259.296C204.657 259.389 204.548 259.512 204.468 259.666C204.392 259.816 204.353 259.999 204.353 260.216V263.431H203.433ZM209.248 263.531C208.772 263.531 208.355 263.429 207.998 263.226C207.642 263.019 207.365 262.717 207.168 262.321C206.972 261.924 206.873 261.439 206.873 260.866C206.873 260.326 206.965 259.852 207.148 259.446C207.332 259.039 207.6 258.724 207.953 258.501C208.31 258.274 208.742 258.161 209.248 258.161C209.725 258.161 210.138 258.266 210.488 258.476C210.842 258.682 211.115 258.987 211.308 259.391C211.502 259.794 211.598 260.286 211.598 260.866C211.598 261.392 211.508 261.856 211.328 262.256C211.152 262.656 210.888 262.969 210.538 263.196C210.192 263.419 209.762 263.531 209.248 263.531ZM209.248 262.801C209.558 262.801 209.82 262.722 210.033 262.566C210.247 262.409 210.408 262.184 210.518 261.891C210.628 261.597 210.683 261.249 210.683 260.846C210.683 260.476 210.635 260.144 210.538 259.851C210.442 259.554 210.287 259.319 210.073 259.146C209.863 258.972 209.588 258.886 209.248 258.886C208.935 258.886 208.67 258.964 208.453 259.121C208.237 259.274 208.072 259.497 207.958 259.791C207.848 260.084 207.793 260.436 207.793 260.846C207.793 261.209 207.843 261.539 207.943 261.836C208.043 262.132 208.2 262.367 208.413 262.541C208.627 262.714 208.905 262.801 209.248 262.801ZM214.868 258.161C215.238 258.161 215.572 258.232 215.868 258.376C216.165 258.516 216.407 258.716 216.593 258.976C216.783 259.236 216.902 259.542 216.948 259.896H216.128C216.098 259.716 216.028 259.551 215.918 259.401C215.812 259.251 215.67 259.131 215.493 259.041C215.317 258.951 215.11 258.906 214.873 258.906C214.43 258.906 214.07 259.066 213.793 259.386C213.517 259.706 213.378 260.196 213.378 260.856C213.378 261.452 213.505 261.931 213.758 262.291C214.015 262.647 214.392 262.826 214.888 262.826C215.125 262.826 215.33 262.781 215.503 262.691C215.68 262.597 215.822 262.476 215.928 262.326C216.035 262.172 216.103 262.009 216.133 261.836H216.938C216.895 262.182 216.778 262.482 216.588 262.736C216.398 262.989 216.155 263.186 215.858 263.326C215.565 263.462 215.235 263.531 214.868 263.531C214.405 263.531 213.993 263.429 213.633 263.226C213.277 263.022 212.997 262.722 212.793 262.326C212.59 261.929 212.488 261.442 212.488 260.866C212.488 260.326 212.58 259.854 212.763 259.451C212.95 259.044 213.22 258.727 213.573 258.501C213.93 258.274 214.362 258.161 214.868 258.161ZM218.859 261.061C218.859 261.387 218.912 261.684 219.019 261.951C219.129 262.214 219.294 262.424 219.514 262.581C219.737 262.737 220.016 262.816 220.349 262.816C220.679 262.816 220.962 262.739 221.199 262.586C221.439 262.432 221.592 262.211 221.659 261.921H222.534C222.471 262.271 222.331 262.566 222.114 262.806C221.897 263.046 221.636 263.227 221.329 263.351C221.022 263.471 220.702 263.531 220.369 263.531C219.886 263.531 219.461 263.426 219.094 263.216C218.727 263.006 218.441 262.704 218.234 262.311C218.027 261.917 217.924 261.446 217.924 260.896C217.924 260.352 218.017 259.876 218.204 259.466C218.391 259.056 218.661 258.736 219.014 258.506C219.371 258.276 219.799 258.161 220.299 258.161C220.786 258.161 221.197 258.266 221.534 258.476C221.871 258.686 222.126 258.982 222.299 259.366C222.476 259.746 222.564 260.197 222.564 260.721V261.061H218.859ZM218.864 260.436H221.674C221.674 260.139 221.624 259.872 221.524 259.636C221.424 259.396 221.271 259.207 221.064 259.071C220.861 258.931 220.604 258.861 220.294 258.861C219.971 258.861 219.702 258.939 219.489 259.096C219.279 259.249 219.121 259.447 219.014 259.691C218.911 259.931 218.861 260.179 218.864 260.436ZM225.63 263.531C225.27 263.531 224.935 263.476 224.625 263.366C224.318 263.252 224.063 263.077 223.86 262.841C223.656 262.601 223.528 262.296 223.475 261.926H224.315C224.361 262.129 224.445 262.299 224.565 262.436C224.688 262.569 224.841 262.671 225.025 262.741C225.208 262.807 225.408 262.841 225.625 262.841C225.971 262.841 226.251 262.776 226.465 262.646C226.678 262.516 226.785 262.316 226.785 262.046C226.785 261.856 226.728 261.704 226.615 261.591C226.505 261.474 226.333 261.389 226.1 261.336L225.03 261.071C224.613 260.971 224.28 260.814 224.03 260.601C223.78 260.387 223.655 260.089 223.655 259.706C223.651 259.402 223.723 259.136 223.87 258.906C224.016 258.676 224.236 258.494 224.53 258.361C224.823 258.227 225.188 258.161 225.625 258.161C226.185 258.161 226.636 258.287 226.98 258.541C227.326 258.791 227.506 259.159 227.52 259.646H226.705C226.671 259.399 226.56 259.204 226.37 259.061C226.183 258.914 225.931 258.841 225.615 258.841C225.285 258.841 225.016 258.907 224.81 259.041C224.603 259.171 224.5 259.374 224.5 259.651C224.5 259.834 224.573 259.979 224.72 260.086C224.866 260.189 225.083 260.276 225.37 260.346L226.405 260.606C226.645 260.669 226.841 260.752 226.995 260.856C227.151 260.959 227.275 261.074 227.365 261.201C227.458 261.327 227.523 261.461 227.56 261.601C227.6 261.737 227.62 261.869 227.62 261.996C227.62 262.312 227.54 262.586 227.38 262.816C227.223 263.042 226.996 263.219 226.7 263.346C226.406 263.469 226.05 263.531 225.63 263.531ZM230.659 263.531C230.299 263.531 229.964 263.476 229.654 263.366C229.347 263.252 229.092 263.077 228.889 262.841C228.686 262.601 228.557 262.296 228.504 261.926H229.344C229.391 262.129 229.474 262.299 229.594 262.436C229.717 262.569 229.871 262.671 230.054 262.741C230.237 262.807 230.437 262.841 230.654 262.841C231.001 262.841 231.281 262.776 231.494 262.646C231.707 262.516 231.814 262.316 231.814 262.046C231.814 261.856 231.757 261.704 231.644 261.591C231.534 261.474 231.362 261.389 231.129 261.336L230.059 261.071C229.642 260.971 229.309 260.814 229.059 260.601C228.809 260.387 228.684 260.089 228.684 259.706C228.681 259.402 228.752 259.136 228.899 258.906C229.046 258.676 229.266 258.494 229.559 258.361C229.852 258.227 230.217 258.161 230.654 258.161C231.214 258.161 231.666 258.287 232.009 258.541C232.356 258.791 232.536 259.159 232.549 259.646H231.734C231.701 259.399 231.589 259.204 231.399 259.061C231.212 258.914 230.961 258.841 230.644 258.841C230.314 258.841 230.046 258.907 229.839 259.041C229.632 259.171 229.529 259.374 229.529 259.651C229.529 259.834 229.602 259.979 229.749 260.086C229.896 260.189 230.112 260.276 230.399 260.346L231.434 260.606C231.674 260.669 231.871 260.752 232.024 260.856C232.181 260.959 232.304 261.074 232.394 261.201C232.487 261.327 232.552 261.461 232.589 261.601C232.629 261.737 232.649 261.869 232.649 261.996C232.649 262.312 232.569 262.586 232.409 262.816C232.252 263.042 232.026 263.219 231.729 263.346C231.436 263.469 231.079 263.531 230.659 263.531ZM234.601 261.061C234.601 261.387 234.655 261.684 234.761 261.951C234.871 262.214 235.036 262.424 235.256 262.581C235.48 262.737 235.758 262.816 236.091 262.816C236.421 262.816 236.705 262.739 236.941 262.586C237.181 262.432 237.335 262.211 237.401 261.921H238.276C238.213 262.271 238.073 262.566 237.856 262.806C237.64 263.046 237.378 263.227 237.071 263.351C236.765 263.471 236.445 263.531 236.111 263.531C235.628 263.531 235.203 263.426 234.836 263.216C234.47 263.006 234.183 262.704 233.976 262.311C233.77 261.917 233.666 261.446 233.666 260.896C233.666 260.352 233.76 259.876 233.946 259.466C234.133 259.056 234.403 258.736 234.756 258.506C235.113 258.276 235.541 258.161 236.041 258.161C236.528 258.161 236.94 258.266 237.276 258.476C237.613 258.686 237.868 258.982 238.041 259.366C238.218 259.746 238.306 260.197 238.306 260.721V261.061H234.601ZM234.606 260.436H237.416C237.416 260.139 237.366 259.872 237.266 259.636C237.166 259.396 237.013 259.207 236.806 259.071C236.603 258.931 236.346 258.861 236.036 258.861C235.713 258.861 235.445 258.939 235.231 259.096C235.021 259.249 234.863 259.447 234.756 259.691C234.653 259.931 234.603 260.179 234.606 260.436ZM241.441 263.531C240.771 263.531 240.239 263.301 239.846 262.841C239.453 262.381 239.256 261.709 239.256 260.826C239.256 260.289 239.334 259.821 239.491 259.421C239.651 259.021 239.888 258.711 240.201 258.491C240.514 258.271 240.904 258.161 241.371 258.161C241.618 258.161 241.836 258.192 242.026 258.256C242.219 258.319 242.386 258.399 242.526 258.496C242.666 258.592 242.779 258.692 242.866 258.796C242.956 258.899 243.023 258.994 243.066 259.081V256.001H243.996V263.431H243.291L243.191 262.371C243.158 262.471 243.104 262.587 243.031 262.721C242.958 262.851 242.854 262.979 242.721 263.106C242.588 263.229 242.416 263.331 242.206 263.411C241.999 263.491 241.744 263.531 241.441 263.531ZM241.606 262.821C242.129 262.821 242.503 262.662 242.726 262.346C242.953 262.026 243.066 261.504 243.066 260.781C243.063 260.377 243.011 260.034 242.911 259.751C242.814 259.467 242.661 259.252 242.451 259.106C242.244 258.956 241.969 258.881 241.626 258.881C241.199 258.881 240.853 259.032 240.586 259.336C240.319 259.639 240.186 260.121 240.186 260.781C240.186 261.427 240.306 261.929 240.546 262.286C240.789 262.642 241.143 262.821 241.606 262.821ZM245.308 263.431V262.251H246.408V263.431H245.308ZM249.48 257.051V256.201H254.95V257.051H252.745V263.431H251.815V257.051H249.48ZM255.953 263.431V256.001H256.853V259.021C256.94 258.877 257.056 258.744 257.203 258.621C257.35 258.494 257.528 258.392 257.738 258.316C257.948 258.236 258.191 258.196 258.468 258.196C258.805 258.196 259.11 258.259 259.383 258.386C259.656 258.509 259.873 258.686 260.033 258.916C260.193 259.146 260.273 259.419 260.273 259.736V263.431H259.348V259.921C259.348 259.611 259.241 259.372 259.028 259.206C258.818 259.036 258.543 258.951 258.203 258.951C257.973 258.951 257.756 258.989 257.553 259.066C257.35 259.139 257.185 259.252 257.058 259.406C256.935 259.556 256.873 259.747 256.873 259.981V263.431H255.953ZM262.375 261.061C262.375 261.387 262.428 261.684 262.535 261.951C262.645 262.214 262.81 262.424 263.03 262.581C263.253 262.737 263.531 262.816 263.865 262.816C264.195 262.816 264.478 262.739 264.715 262.586C264.955 262.432 265.108 262.211 265.175 261.921H266.05C265.986 262.271 265.846 262.566 265.63 262.806C265.413 263.046 265.151 263.227 264.845 263.351C264.538 263.471 264.218 263.531 263.885 263.531C263.401 263.531 262.976 263.426 262.61 263.216C262.243 263.006 261.956 262.704 261.75 262.311C261.543 261.917 261.44 261.446 261.44 260.896C261.44 260.352 261.533 259.876 261.72 259.466C261.906 259.056 262.176 258.736 262.53 258.506C262.886 258.276 263.315 258.161 263.815 258.161C264.301 258.161 264.713 258.266 265.05 258.476C265.386 258.686 265.641 258.982 265.815 259.366C265.991 259.746 266.08 260.197 266.08 260.721V261.061H262.375ZM262.38 260.436H265.19C265.19 260.139 265.14 259.872 265.04 259.636C264.94 259.396 264.786 259.207 264.58 259.071C264.376 258.931 264.12 258.861 263.81 258.861C263.486 258.861 263.218 258.939 263.005 259.096C262.795 259.249 262.636 259.447 262.53 259.691C262.426 259.931 262.376 260.179 262.38 260.436ZM93.8921 272.936H92.7271V276.151C92.7271 276.334 92.7455 276.469 92.7821 276.556C92.8221 276.639 92.8871 276.692 92.9771 276.716C93.0705 276.739 93.1971 276.751 93.3571 276.751H93.9221V277.371C93.8588 277.394 93.7621 277.414 93.6321 277.431C93.5055 277.447 93.3471 277.456 93.1571 277.456C92.8005 277.456 92.5238 277.407 92.3271 277.311C92.1305 277.214 91.9921 277.071 91.9121 276.881C91.8355 276.691 91.7971 276.457 91.7971 276.181V272.936H90.9571V272.261H91.8221L92.0471 270.756H92.7271V272.256H93.8921V272.936ZM97.1388 277.531C96.6622 277.531 96.2455 277.429 95.8888 277.226C95.5322 277.019 95.2555 276.717 95.0588 276.321C94.8622 275.924 94.7638 275.439 94.7638 274.866C94.7638 274.326 94.8555 273.852 95.0388 273.446C95.2222 273.039 95.4905 272.724 95.8438 272.501C96.2005 272.274 96.6322 272.161 97.1388 272.161C97.6155 272.161 98.0288 272.266 98.3788 272.476C98.7322 272.682 99.0055 272.987 99.1988 273.391C99.3922 273.794 99.4888 274.286 99.4888 274.866C99.4888 275.392 99.3988 275.856 99.2188 276.256C99.0422 276.656 98.7788 276.969 98.4288 277.196C98.0822 277.419 97.6522 277.531 97.1388 277.531ZM97.1388 276.801C97.4488 276.801 97.7105 276.722 97.9238 276.566C98.1372 276.409 98.2988 276.184 98.4088 275.891C98.5188 275.597 98.5738 275.249 98.5738 274.846C98.5738 274.476 98.5255 274.144 98.4288 273.851C98.3322 273.554 98.1772 273.319 97.9638 273.146C97.7538 272.972 97.4788 272.886 97.1388 272.886C96.8255 272.886 96.5605 272.964 96.3438 273.121C96.1272 273.274 95.9622 273.497 95.8488 273.791C95.7388 274.084 95.6838 274.436 95.6838 274.846C95.6838 275.209 95.7338 275.539 95.8338 275.836C95.9338 276.132 96.0905 276.367 96.3038 276.541C96.5172 276.714 96.7955 276.801 97.1388 276.801ZM103.16 272.936H101.995V276.151C101.995 276.334 102.013 276.469 102.05 276.556C102.09 276.639 102.155 276.692 102.245 276.716C102.338 276.739 102.465 276.751 102.625 276.751H103.19V277.371C103.126 277.394 103.03 277.414 102.9 277.431C102.773 277.447 102.615 277.456 102.425 277.456C102.068 277.456 101.791 277.407 101.595 277.311C101.398 277.214 101.26 277.071 101.18 276.881C101.103 276.691 101.065 276.457 101.065 276.181V272.936H100.225V272.261H101.09L101.315 270.756H101.995V272.256H103.16V272.936ZM105.879 277.531C105.546 277.531 105.251 277.472 104.994 277.356C104.737 277.236 104.536 277.064 104.389 276.841C104.246 276.617 104.174 276.347 104.174 276.031C104.174 275.457 104.374 275.031 104.774 274.751C105.174 274.471 105.816 274.321 106.699 274.301L107.624 274.276V273.871C107.624 273.554 107.529 273.304 107.339 273.121C107.149 272.934 106.854 272.841 106.454 272.841C106.157 272.844 105.896 272.914 105.669 273.051C105.446 273.187 105.301 273.411 105.234 273.721H104.419C104.439 273.384 104.534 273.101 104.704 272.871C104.874 272.637 105.111 272.461 105.414 272.341C105.721 272.221 106.082 272.161 106.499 272.161C106.949 272.161 107.322 272.224 107.619 272.351C107.919 272.477 108.142 272.664 108.289 272.911C108.439 273.157 108.514 273.461 108.514 273.821V277.431H107.724L107.659 276.461C107.459 276.864 107.204 277.144 106.894 277.301C106.587 277.454 106.249 277.531 105.879 277.531ZM106.159 276.866C106.332 276.866 106.504 276.834 106.674 276.771C106.847 276.707 107.006 276.622 107.149 276.516C107.292 276.406 107.406 276.284 107.489 276.151C107.576 276.014 107.621 275.874 107.624 275.731V274.846L106.854 274.861C106.461 274.867 106.131 274.907 105.864 274.981C105.601 275.054 105.402 275.169 105.269 275.326C105.139 275.482 105.074 275.687 105.074 275.941C105.074 276.231 105.174 276.457 105.374 276.621C105.577 276.784 105.839 276.866 106.159 276.866ZM111.399 277.496C111.119 277.496 110.892 277.457 110.719 277.381C110.549 277.304 110.417 277.201 110.324 277.071C110.234 276.941 110.172 276.792 110.139 276.626C110.109 276.456 110.094 276.281 110.094 276.101V270.001H111.004V276.011C111.004 276.271 111.054 276.466 111.154 276.596C111.257 276.726 111.4 276.797 111.584 276.811L111.864 276.816V277.416C111.787 277.439 111.707 277.457 111.624 277.471C111.54 277.487 111.465 277.496 111.399 277.496ZM116.807 277.531C116.473 277.531 116.178 277.472 115.922 277.356C115.665 277.236 115.463 277.064 115.317 276.841C115.173 276.617 115.102 276.347 115.102 276.031C115.102 275.457 115.302 275.031 115.702 274.751C116.102 274.471 116.743 274.321 117.627 274.301L118.552 274.276V273.871C118.552 273.554 118.457 273.304 118.267 273.121C118.077 272.934 117.782 272.841 117.382 272.841C117.085 272.844 116.823 272.914 116.597 273.051C116.373 273.187 116.228 273.411 116.162 273.721H115.347C115.367 273.384 115.462 273.101 115.632 272.871C115.802 272.637 116.038 272.461 116.342 272.341C116.648 272.221 117.01 272.161 117.427 272.161C117.877 272.161 118.25 272.224 118.547 272.351C118.847 272.477 119.07 272.664 119.217 272.911C119.367 273.157 119.442 273.461 119.442 273.821V277.431H118.652L118.587 276.461C118.387 276.864 118.132 277.144 117.822 277.301C117.515 277.454 117.177 277.531 116.807 277.531ZM117.087 276.866C117.26 276.866 117.432 276.834 117.602 276.771C117.775 276.707 117.933 276.622 118.077 276.516C118.22 276.406 118.333 276.284 118.417 276.151C118.503 276.014 118.548 275.874 118.552 275.731V274.846L117.782 274.861C117.388 274.867 117.058 274.907 116.792 274.981C116.528 275.054 116.33 275.169 116.197 275.326C116.067 275.482 116.002 275.687 116.002 275.941C116.002 276.231 116.102 276.457 116.302 276.621C116.505 276.784 116.767 276.866 117.087 276.866ZM121.021 277.431V272.261H121.911V273.011C122.055 272.784 122.251 272.586 122.501 272.416C122.751 272.246 123.076 272.161 123.476 272.161C123.663 272.161 123.853 272.192 124.046 272.256C124.243 272.319 124.423 272.414 124.586 272.541C124.75 272.667 124.876 272.822 124.966 273.006C125.126 272.752 125.343 272.549 125.616 272.396C125.89 272.239 126.198 272.161 126.541 272.161C126.721 272.161 126.91 272.189 127.106 272.246C127.303 272.299 127.485 272.396 127.651 272.536C127.821 272.672 127.96 272.864 128.066 273.111C128.173 273.354 128.226 273.667 128.226 274.051V277.431H127.296V274.141C127.296 273.827 127.246 273.586 127.146 273.416C127.046 273.242 126.915 273.121 126.751 273.051C126.591 272.981 126.42 272.946 126.236 272.946C126.076 272.946 125.906 272.977 125.726 273.041C125.546 273.104 125.393 273.211 125.266 273.361C125.14 273.511 125.076 273.716 125.076 273.976V277.431H124.156V273.871C124.156 273.667 124.101 273.497 123.991 273.361C123.885 273.224 123.75 273.121 123.586 273.051C123.426 272.981 123.266 272.946 123.106 272.946C122.93 272.946 122.751 272.981 122.571 273.051C122.395 273.121 122.245 273.232 122.121 273.386C122.001 273.536 121.941 273.732 121.941 273.976V277.431H121.021ZM131.729 277.531C131.252 277.531 130.835 277.429 130.479 277.226C130.122 277.019 129.845 276.717 129.649 276.321C129.452 275.924 129.354 275.439 129.354 274.866C129.354 274.326 129.445 273.852 129.629 273.446C129.812 273.039 130.08 272.724 130.434 272.501C130.79 272.274 131.222 272.161 131.729 272.161C132.205 272.161 132.619 272.266 132.969 272.476C133.322 272.682 133.595 272.987 133.789 273.391C133.982 273.794 134.079 274.286 134.079 274.866C134.079 275.392 133.989 275.856 133.809 276.256C133.632 276.656 133.369 276.969 133.019 277.196C132.672 277.419 132.242 277.531 131.729 277.531ZM131.729 276.801C132.039 276.801 132.3 276.722 132.514 276.566C132.727 276.409 132.889 276.184 132.999 275.891C133.109 275.597 133.164 275.249 133.164 274.846C133.164 274.476 133.115 274.144 133.019 273.851C132.922 273.554 132.767 273.319 132.554 273.146C132.344 272.972 132.069 272.886 131.729 272.886C131.415 272.886 131.15 272.964 130.934 273.121C130.717 273.274 130.552 273.497 130.439 273.791C130.329 274.084 130.274 274.436 130.274 274.846C130.274 275.209 130.324 275.539 130.424 275.836C130.524 276.132 130.68 276.367 130.894 276.541C131.107 276.714 131.385 276.801 131.729 276.801ZM137.101 277.531C136.831 277.527 136.576 277.489 136.336 277.416C136.099 277.339 135.889 277.227 135.706 277.081C135.523 276.934 135.378 276.752 135.271 276.536C135.168 276.316 135.116 276.061 135.116 275.771V272.261H136.041V275.676C136.041 276.012 136.144 276.286 136.351 276.496C136.561 276.706 136.876 276.811 137.296 276.811C137.676 276.811 137.981 276.712 138.211 276.516C138.444 276.316 138.561 276.019 138.561 275.626V272.261H139.481V277.431H138.746L138.651 276.441C138.588 276.701 138.479 276.911 138.326 277.071C138.176 277.231 137.994 277.349 137.781 277.426C137.571 277.499 137.344 277.534 137.101 277.531ZM140.992 277.431V272.261H141.887V273.011C141.97 272.867 142.085 272.732 142.232 272.606C142.382 272.479 142.562 272.377 142.772 272.301C142.985 272.224 143.23 272.186 143.507 272.186C143.834 272.186 144.134 272.251 144.407 272.381C144.684 272.511 144.904 272.714 145.067 272.991C145.234 273.264 145.317 273.617 145.317 274.051V277.431H144.392V274.141C144.392 273.737 144.285 273.439 144.072 273.246C143.862 273.049 143.589 272.951 143.252 272.951C143.019 272.951 142.8 272.989 142.597 273.066C142.394 273.139 142.229 273.252 142.102 273.406C141.975 273.556 141.912 273.746 141.912 273.976V277.431H140.992ZM149.146 272.936H147.981V276.151C147.981 276.334 147.999 276.469 148.036 276.556C148.076 276.639 148.141 276.692 148.231 276.716C148.324 276.739 148.451 276.751 148.611 276.751H149.176V277.371C149.113 277.394 149.016 277.414 148.886 277.431C148.759 277.447 148.601 277.456 148.411 277.456C148.054 277.456 147.778 277.407 147.581 277.311C147.384 277.214 147.246 277.071 147.166 276.881C147.089 276.691 147.051 276.457 147.051 276.181V272.936H146.211V272.261H147.076L147.301 270.756H147.981V272.256H149.146V272.936ZM154.517 277.531C153.847 277.531 153.316 277.301 152.922 276.841C152.529 276.381 152.332 275.709 152.332 274.826C152.332 274.289 152.411 273.821 152.567 273.421C152.727 273.021 152.964 272.711 153.277 272.491C153.591 272.271 153.981 272.161 154.447 272.161C154.694 272.161 154.912 272.192 155.102 272.256C155.296 272.319 155.462 272.399 155.602 272.496C155.742 272.592 155.856 272.692 155.942 272.796C156.032 272.899 156.099 272.994 156.142 273.081V270.001H157.072V277.431H156.367L156.267 276.371C156.234 276.471 156.181 276.587 156.107 276.721C156.034 276.851 155.931 276.979 155.797 277.106C155.664 277.229 155.492 277.331 155.282 277.411C155.076 277.491 154.821 277.531 154.517 277.531ZM154.682 276.821C155.206 276.821 155.579 276.662 155.802 276.346C156.029 276.026 156.142 275.504 156.142 274.781C156.139 274.377 156.087 274.034 155.987 273.751C155.891 273.467 155.737 273.252 155.527 273.106C155.321 272.956 155.046 272.881 154.702 272.881C154.276 272.881 153.929 273.032 153.662 273.336C153.396 273.639 153.262 274.121 153.262 274.781C153.262 275.427 153.382 275.929 153.622 276.286C153.866 276.642 154.219 276.821 154.682 276.821ZM159.259 275.061C159.259 275.387 159.313 275.684 159.419 275.951C159.529 276.214 159.694 276.424 159.914 276.581C160.138 276.737 160.416 276.816 160.749 276.816C161.079 276.816 161.363 276.739 161.599 276.586C161.839 276.432 161.993 276.211 162.059 275.921H162.934C162.871 276.271 162.731 276.566 162.514 276.806C162.298 277.046 162.036 277.227 161.729 277.351C161.423 277.471 161.103 277.531 160.769 277.531C160.286 277.531 159.861 277.426 159.494 277.216C159.128 277.006 158.841 276.704 158.634 276.311C158.428 275.917 158.324 275.446 158.324 274.896C158.324 274.352 158.418 273.876 158.604 273.466C158.791 273.056 159.061 272.736 159.414 272.506C159.771 272.276 160.199 272.161 160.699 272.161C161.186 272.161 161.598 272.266 161.934 272.476C162.271 272.686 162.526 272.982 162.699 273.366C162.876 273.746 162.964 274.197 162.964 274.721V275.061H159.259ZM159.264 274.436H162.074C162.074 274.139 162.024 273.872 161.924 273.636C161.824 273.396 161.671 273.207 161.464 273.071C161.261 272.931 161.004 272.861 160.694 272.861C160.371 272.861 160.103 272.939 159.889 273.096C159.679 273.249 159.521 273.447 159.414 273.691C159.311 273.931 159.261 274.179 159.264 274.436ZM166.099 277.531C165.429 277.531 164.898 277.301 164.504 276.841C164.111 276.381 163.914 275.709 163.914 274.826C163.914 274.289 163.993 273.821 164.149 273.421C164.309 273.021 164.546 272.711 164.859 272.491C165.173 272.271 165.563 272.161 166.029 272.161C166.276 272.161 166.494 272.192 166.684 272.256C166.878 272.319 167.044 272.399 167.184 272.496C167.324 272.592 167.438 272.692 167.524 272.796C167.614 272.899 167.681 272.994 167.724 273.081V270.001H168.654V277.431H167.949L167.849 276.371C167.816 276.471 167.763 276.587 167.689 276.721C167.616 276.851 167.513 276.979 167.379 277.106C167.246 277.229 167.074 277.331 166.864 277.411C166.658 277.491 166.403 277.531 166.099 277.531ZM166.264 276.821C166.788 276.821 167.161 276.662 167.384 276.346C167.611 276.026 167.724 275.504 167.724 274.781C167.721 274.377 167.669 274.034 167.569 273.751C167.473 273.467 167.319 273.252 167.109 273.106C166.903 272.956 166.628 272.881 166.284 272.881C165.858 272.881 165.511 273.032 165.244 273.336C164.978 273.639 164.844 274.121 164.844 274.781C164.844 275.427 164.964 275.929 165.204 276.286C165.448 276.642 165.801 276.821 166.264 276.821ZM172.082 277.531C171.812 277.527 171.557 277.489 171.317 277.416C171.08 277.339 170.87 277.227 170.687 277.081C170.503 276.934 170.358 276.752 170.252 276.536C170.148 276.316 170.097 276.061 170.097 275.771V272.261H171.022V275.676C171.022 276.012 171.125 276.286 171.332 276.496C171.542 276.706 171.857 276.811 172.277 276.811C172.657 276.811 172.962 276.712 173.192 276.516C173.425 276.316 173.542 276.019 173.542 275.626V272.261H174.462V277.431H173.727L173.632 276.441C173.568 276.701 173.46 276.911 173.307 277.071C173.157 277.231 172.975 277.349 172.762 277.426C172.552 277.499 172.325 277.534 172.082 277.531ZM177.964 272.161C178.334 272.161 178.667 272.232 178.964 272.376C179.261 272.516 179.502 272.716 179.689 272.976C179.879 273.236 179.997 273.542 180.044 273.896H179.224C179.194 273.716 179.124 273.551 179.014 273.401C178.907 273.251 178.766 273.131 178.589 273.041C178.412 272.951 178.206 272.906 177.969 272.906C177.526 272.906 177.166 273.066 176.889 273.386C176.612 273.706 176.474 274.196 176.474 274.856C176.474 275.452 176.601 275.931 176.854 276.291C177.111 276.647 177.487 276.826 177.984 276.826C178.221 276.826 178.426 276.781 178.599 276.691C178.776 276.597 178.917 276.476 179.024 276.326C179.131 276.172 179.199 276.009 179.229 275.836H180.034C179.991 276.182 179.874 276.482 179.684 276.736C179.494 276.989 179.251 277.186 178.954 277.326C178.661 277.462 178.331 277.531 177.964 277.531C177.501 277.531 177.089 277.429 176.729 277.226C176.372 277.022 176.092 276.722 175.889 276.326C175.686 275.929 175.584 275.442 175.584 274.866C175.584 274.326 175.676 273.854 175.859 273.451C176.046 273.044 176.316 272.727 176.669 272.501C177.026 272.274 177.457 272.161 177.964 272.161ZM183.755 272.936H182.59V276.151C182.59 276.334 182.609 276.469 182.645 276.556C182.685 276.639 182.75 276.692 182.84 276.716C182.934 276.739 183.06 276.751 183.22 276.751H183.785V277.371C183.722 277.394 183.625 277.414 183.495 277.431C183.369 277.447 183.21 277.456 183.02 277.456C182.664 277.456 182.387 277.407 182.19 277.311C181.994 277.214 181.855 277.071 181.775 276.881C181.699 276.691 181.66 276.457 181.66 276.181V272.936H180.82V272.261H181.685L181.91 270.756H182.59V272.256H183.755V272.936ZM185.607 275.061C185.607 275.387 185.66 275.684 185.767 275.951C185.877 276.214 186.042 276.424 186.262 276.581C186.485 276.737 186.764 276.816 187.097 276.816C187.427 276.816 187.71 276.739 187.947 276.586C188.187 276.432 188.34 276.211 188.407 275.921H189.282C189.219 276.271 189.079 276.566 188.862 276.806C188.645 277.046 188.384 277.227 188.077 277.351C187.77 277.471 187.45 277.531 187.117 277.531C186.634 277.531 186.209 277.426 185.842 277.216C185.475 277.006 185.189 276.704 184.982 276.311C184.775 275.917 184.672 275.446 184.672 274.896C184.672 274.352 184.765 273.876 184.952 273.466C185.139 273.056 185.409 272.736 185.762 272.506C186.119 272.276 186.547 272.161 187.047 272.161C187.534 272.161 187.945 272.266 188.282 272.476C188.619 272.686 188.874 272.982 189.047 273.366C189.224 273.746 189.312 274.197 189.312 274.721V275.061H185.607ZM185.612 274.436H188.422C188.422 274.139 188.372 273.872 188.272 273.636C188.172 273.396 188.019 273.207 187.812 273.071C187.609 272.931 187.352 272.861 187.042 272.861C186.719 272.861 186.45 272.939 186.237 273.096C186.027 273.249 185.869 273.447 185.762 273.691C185.659 273.931 185.609 274.179 185.612 274.436ZM192.447 277.531C191.777 277.531 191.245 277.301 190.852 276.841C190.459 276.381 190.262 275.709 190.262 274.826C190.262 274.289 190.34 273.821 190.497 273.421C190.657 273.021 190.894 272.711 191.207 272.491C191.52 272.271 191.91 272.161 192.377 272.161C192.624 272.161 192.842 272.192 193.032 272.256C193.225 272.319 193.392 272.399 193.532 272.496C193.672 272.592 193.785 272.692 193.872 272.796C193.962 272.899 194.029 272.994 194.072 273.081V270.001H195.002V277.431H194.297L194.197 276.371C194.164 276.471 194.11 276.587 194.037 276.721C193.964 276.851 193.86 276.979 193.727 277.106C193.594 277.229 193.422 277.331 193.212 277.411C193.005 277.491 192.75 277.531 192.447 277.531ZM192.612 276.821C193.135 276.821 193.509 276.662 193.732 276.346C193.959 276.026 194.072 275.504 194.072 274.781C194.069 274.377 194.017 274.034 193.917 273.751C193.82 273.467 193.667 273.252 193.457 273.106C193.25 272.956 192.975 272.881 192.632 272.881C192.205 272.881 191.859 273.032 191.592 273.336C191.325 273.639 191.192 274.121 191.192 274.781C191.192 275.427 191.312 275.929 191.552 276.286C191.795 276.642 192.149 276.821 192.612 276.821ZM201.754 272.261V272.936H200.499V277.431H199.569V272.936H198.479V272.261H199.569V271.461C199.569 271.051 199.674 270.739 199.884 270.526C200.094 270.309 200.407 270.201 200.824 270.201H201.799L201.804 270.856H201.029C200.819 270.856 200.676 270.912 200.599 271.026C200.522 271.139 200.484 271.311 200.484 271.541V272.261H201.754ZM202.896 277.431V272.261H203.776V273.256C203.863 273.009 203.985 272.806 204.141 272.646C204.298 272.482 204.476 272.361 204.676 272.281C204.88 272.201 205.09 272.161 205.306 272.161C205.383 272.161 205.458 272.166 205.531 272.176C205.605 272.186 205.661 272.202 205.701 272.226V273.121C205.651 273.097 205.586 273.082 205.506 273.076C205.43 273.066 205.365 273.061 205.311 273.061C205.105 273.047 204.911 273.061 204.731 273.101C204.551 273.137 204.393 273.202 204.256 273.296C204.12 273.389 204.011 273.512 203.931 273.666C203.855 273.816 203.816 273.999 203.816 274.216V277.431H202.896ZM208.711 277.531C208.234 277.531 207.818 277.429 207.461 277.226C207.104 277.019 206.828 276.717 206.631 276.321C206.434 275.924 206.336 275.439 206.336 274.866C206.336 274.326 206.428 273.852 206.611 273.446C206.794 273.039 207.063 272.724 207.416 272.501C207.773 272.274 208.204 272.161 208.711 272.161C209.188 272.161 209.601 272.266 209.951 272.476C210.304 272.682 210.578 272.987 210.771 273.391C210.964 273.794 211.061 274.286 211.061 274.866C211.061 275.392 210.971 275.856 210.791 276.256C210.614 276.656 210.351 276.969 210.001 277.196C209.654 277.419 209.224 277.531 208.711 277.531ZM208.711 276.801C209.021 276.801 209.283 276.722 209.496 276.566C209.709 276.409 209.871 276.184 209.981 275.891C210.091 275.597 210.146 275.249 210.146 274.846C210.146 274.476 210.098 274.144 210.001 273.851C209.904 273.554 209.749 273.319 209.536 273.146C209.326 272.972 209.051 272.886 208.711 272.886C208.398 272.886 208.133 272.964 207.916 273.121C207.699 273.274 207.534 273.497 207.421 273.791C207.311 274.084 207.256 274.436 207.256 274.846C207.256 275.209 207.306 275.539 207.406 275.836C207.506 276.132 207.663 276.367 207.876 276.541C208.089 276.714 208.368 276.801 208.711 276.801ZM212.271 277.431V272.261H213.161V273.011C213.305 272.784 213.501 272.586 213.751 272.416C214.001 272.246 214.326 272.161 214.726 272.161C214.913 272.161 215.103 272.192 215.296 272.256C215.493 272.319 215.673 272.414 215.836 272.541C216 272.667 216.126 272.822 216.216 273.006C216.376 272.752 216.593 272.549 216.866 272.396C217.14 272.239 217.448 272.161 217.791 272.161C217.971 272.161 218.16 272.189 218.356 272.246C218.553 272.299 218.735 272.396 218.901 272.536C219.071 272.672 219.21 272.864 219.316 273.111C219.423 273.354 219.476 273.667 219.476 274.051V277.431H218.546V274.141C218.546 273.827 218.496 273.586 218.396 273.416C218.296 273.242 218.165 273.121 218.001 273.051C217.841 272.981 217.67 272.946 217.486 272.946C217.326 272.946 217.156 272.977 216.976 273.041C216.796 273.104 216.643 273.211 216.516 273.361C216.39 273.511 216.326 273.716 216.326 273.976V277.431H215.406V273.871C215.406 273.667 215.351 273.497 215.241 273.361C215.135 273.224 215 273.121 214.836 273.051C214.676 272.981 214.516 272.946 214.356 272.946C214.18 272.946 214.001 272.981 213.821 273.051C213.645 273.121 213.495 273.232 213.371 273.386C213.251 273.536 213.191 273.732 213.191 273.976V277.431H212.271ZM223.67 279.081C223.367 279.081 223.158 279.059 223.045 279.016C222.932 278.972 222.875 278.951 222.875 278.951V278.351L223.4 278.361C223.593 278.367 223.753 278.354 223.88 278.321C224.007 278.287 224.108 278.242 224.185 278.186C224.262 278.129 224.32 278.066 224.36 277.996C224.403 277.926 224.438 277.859 224.465 277.796L224.645 277.306L222.625 272.261H223.56L225.085 276.251L226.6 272.261H227.505L225.325 277.821C225.192 278.147 225.042 278.402 224.875 278.586C224.712 278.769 224.528 278.897 224.325 278.971C224.125 279.044 223.907 279.081 223.67 279.081ZM230.362 277.531C229.885 277.531 229.468 277.429 229.112 277.226C228.755 277.019 228.478 276.717 228.282 276.321C228.085 275.924 227.987 275.439 227.987 274.866C227.987 274.326 228.078 273.852 228.262 273.446C228.445 273.039 228.713 272.724 229.067 272.501C229.423 272.274 229.855 272.161 230.362 272.161C230.838 272.161 231.252 272.266 231.602 272.476C231.955 272.682 232.228 272.987 232.422 273.391C232.615 273.794 232.712 274.286 232.712 274.866C232.712 275.392 232.622 275.856 232.442 276.256C232.265 276.656 232.002 276.969 231.652 277.196C231.305 277.419 230.875 277.531 230.362 277.531ZM230.362 276.801C230.672 276.801 230.933 276.722 231.147 276.566C231.36 276.409 231.522 276.184 231.632 275.891C231.742 275.597 231.797 275.249 231.797 274.846C231.797 274.476 231.748 274.144 231.652 273.851C231.555 273.554 231.4 273.319 231.187 273.146C230.977 272.972 230.702 272.886 230.362 272.886C230.048 272.886 229.783 272.964 229.567 273.121C229.35 273.274 229.185 273.497 229.072 273.791C228.962 274.084 228.907 274.436 228.907 274.846C228.907 275.209 228.957 275.539 229.057 275.836C229.157 276.132 229.313 276.367 229.527 276.541C229.74 276.714 230.018 276.801 230.362 276.801ZM235.734 277.531C235.464 277.527 235.209 277.489 234.969 277.416C234.732 277.339 234.522 277.227 234.339 277.081C234.156 276.934 234.011 276.752 233.904 276.536C233.801 276.316 233.749 276.061 233.749 275.771V272.261H234.674V275.676C234.674 276.012 234.777 276.286 234.984 276.496C235.194 276.706 235.509 276.811 235.929 276.811C236.309 276.811 236.614 276.712 236.844 276.516C237.077 276.316 237.194 276.019 237.194 275.626V272.261H238.114V277.431H237.379L237.284 276.441C237.221 276.701 237.112 276.911 236.959 277.071C236.809 277.231 236.627 277.349 236.414 277.426C236.204 277.499 235.977 277.534 235.734 277.531ZM239.625 277.431V272.261H240.505V273.256C240.592 273.009 240.713 272.806 240.87 272.646C241.027 272.482 241.205 272.361 241.405 272.281C241.608 272.201 241.818 272.161 242.035 272.161C242.112 272.161 242.187 272.166 242.26 272.176C242.333 272.186 242.39 272.202 242.43 272.226V273.121C242.38 273.097 242.315 273.082 242.235 273.076C242.158 273.066 242.093 273.061 242.04 273.061C241.833 273.047 241.64 273.061 241.46 273.101C241.28 273.137 241.122 273.202 240.985 273.296C240.848 273.389 240.74 273.512 240.66 273.666C240.583 273.816 240.545 273.999 240.545 274.216V277.431H239.625ZM92.6271 291.531C92.2938 291.531 91.9988 291.472 91.7421 291.356C91.4855 291.236 91.2838 291.064 91.1371 290.841C90.9938 290.617 90.9221 290.347 90.9221 290.031C90.9221 289.457 91.1221 289.031 91.5221 288.751C91.9221 288.471 92.5638 288.321 93.4471 288.301L94.3721 288.276V287.871C94.3721 287.554 94.2771 287.304 94.0871 287.121C93.8971 286.934 93.6021 286.841 93.2021 286.841C92.9055 286.844 92.6438 286.914 92.4171 287.051C92.1938 287.187 92.0488 287.411 91.9821 287.721H91.1671C91.1871 287.384 91.2821 287.101 91.4521 286.871C91.6221 286.637 91.8588 286.461 92.1621 286.341C92.4688 286.221 92.8305 286.161 93.2471 286.161C93.6971 286.161 94.0705 286.224 94.3671 286.351C94.6671 286.477 94.8905 286.664 95.0371 286.911C95.1871 287.157 95.2621 287.461 95.2621 287.821V291.431H94.4721L94.4071 290.461C94.2071 290.864 93.9521 291.144 93.6421 291.301C93.3355 291.454 92.9971 291.531 92.6271 291.531ZM92.9071 290.866C93.0805 290.866 93.2521 290.834 93.4221 290.771C93.5955 290.707 93.7538 290.622 93.8971 290.516C94.0405 290.406 94.1538 290.284 94.2371 290.151C94.3238 290.014 94.3688 289.874 94.3721 289.731V288.846L93.6021 288.861C93.2088 288.867 92.8788 288.907 92.6121 288.981C92.3488 289.054 92.1505 289.169 92.0171 289.326C91.8871 289.482 91.8221 289.687 91.8221 289.941C91.8221 290.231 91.9221 290.457 92.1221 290.621C92.3255 290.784 92.5871 290.866 92.9071 290.866ZM98.9017 286.161C99.2717 286.161 99.605 286.232 99.9017 286.376C100.198 286.516 100.44 286.716 100.627 286.976C100.817 287.236 100.935 287.542 100.982 287.896H100.162C100.132 287.716 100.062 287.551 99.9517 287.401C99.845 287.251 99.7033 287.131 99.5267 287.041C99.35 286.951 99.1433 286.906 98.9067 286.906C98.4633 286.906 98.1033 287.066 97.8267 287.386C97.55 287.706 97.4117 288.196 97.4117 288.856C97.4117 289.452 97.5383 289.931 97.7917 290.291C98.0483 290.647 98.425 290.826 98.9217 290.826C99.1583 290.826 99.3633 290.781 99.5367 290.691C99.7133 290.597 99.855 290.476 99.9617 290.326C100.068 290.172 100.137 290.009 100.167 289.836H100.972C100.928 290.182 100.812 290.482 100.622 290.736C100.432 290.989 100.188 291.186 99.8917 291.326C99.5983 291.462 99.2683 291.531 98.9017 291.531C98.4383 291.531 98.0267 291.429 97.6667 291.226C97.31 291.022 97.03 290.722 96.8267 290.326C96.6233 289.929 96.5217 289.442 96.5217 288.866C96.5217 288.326 96.6133 287.854 96.7967 287.451C96.9833 287.044 97.2533 286.727 97.6067 286.501C97.9633 286.274 98.395 286.161 98.9017 286.161ZM104.292 286.161C104.662 286.161 104.996 286.232 105.292 286.376C105.589 286.516 105.831 286.716 106.017 286.976C106.207 287.236 106.326 287.542 106.372 287.896H105.552C105.522 287.716 105.452 287.551 105.342 287.401C105.236 287.251 105.094 287.131 104.917 287.041C104.741 286.951 104.534 286.906 104.297 286.906C103.854 286.906 103.494 287.066 103.217 287.386C102.941 287.706 102.802 288.196 102.802 288.856C102.802 289.452 102.929 289.931 103.182 290.291C103.439 290.647 103.816 290.826 104.312 290.826C104.549 290.826 104.754 290.781 104.927 290.691C105.104 290.597 105.246 290.476 105.352 290.326C105.459 290.172 105.527 290.009 105.557 289.836H106.362C106.319 290.182 106.202 290.482 106.012 290.736C105.822 290.989 105.579 291.186 105.282 291.326C104.989 291.462 104.659 291.531 104.292 291.531C103.829 291.531 103.417 291.429 103.057 291.226C102.701 291.022 102.421 290.722 102.217 290.326C102.014 289.929 101.912 289.442 101.912 288.866C101.912 288.326 102.004 287.854 102.187 287.451C102.374 287.044 102.644 286.727 102.997 286.501C103.354 286.274 103.786 286.161 104.292 286.161ZM109.678 291.531C109.201 291.531 108.785 291.429 108.428 291.226C108.071 291.019 107.795 290.717 107.598 290.321C107.401 289.924 107.303 289.439 107.303 288.866C107.303 288.326 107.395 287.852 107.578 287.446C107.761 287.039 108.03 286.724 108.383 286.501C108.74 286.274 109.171 286.161 109.678 286.161C110.155 286.161 110.568 286.266 110.918 286.476C111.271 286.682 111.545 286.987 111.738 287.391C111.931 287.794 112.028 288.286 112.028 288.866C112.028 289.392 111.938 289.856 111.758 290.256C111.581 290.656 111.318 290.969 110.968 291.196C110.621 291.419 110.191 291.531 109.678 291.531ZM109.678 290.801C109.988 290.801 110.25 290.722 110.463 290.566C110.676 290.409 110.838 290.184 110.948 289.891C111.058 289.597 111.113 289.249 111.113 288.846C111.113 288.476 111.065 288.144 110.968 287.851C110.871 287.554 110.716 287.319 110.503 287.146C110.293 286.972 110.018 286.886 109.678 286.886C109.365 286.886 109.1 286.964 108.883 287.121C108.666 287.274 108.501 287.497 108.388 287.791C108.278 288.084 108.223 288.436 108.223 288.846C108.223 289.209 108.273 289.539 108.373 289.836C108.473 290.132 108.63 290.367 108.843 290.541C109.056 290.714 109.335 290.801 109.678 290.801ZM115.05 291.531C114.78 291.527 114.525 291.489 114.285 291.416C114.049 291.339 113.839 291.227 113.655 291.081C113.472 290.934 113.327 290.752 113.22 290.536C113.117 290.316 113.065 290.061 113.065 289.771V286.261H113.99V289.676C113.99 290.012 114.094 290.286 114.3 290.496C114.51 290.706 114.825 290.811 115.245 290.811C115.625 290.811 115.93 290.712 116.16 290.516C116.394 290.316 116.51 290.019 116.51 289.626V286.261H117.43V291.431H116.695L116.6 290.441C116.537 290.701 116.429 290.911 116.275 291.071C116.125 291.231 115.944 291.349 115.73 291.426C115.52 291.499 115.294 291.534 115.05 291.531ZM118.941 291.431V286.261H119.836V287.011C119.92 286.867 120.035 286.732 120.181 286.606C120.331 286.479 120.511 286.377 120.721 286.301C120.935 286.224 121.18 286.186 121.456 286.186C121.783 286.186 122.083 286.251 122.356 286.381C122.633 286.511 122.853 286.714 123.016 286.991C123.183 287.264 123.266 287.617 123.266 288.051V291.431H122.341V288.141C122.341 287.737 122.235 287.439 122.021 287.246C121.811 287.049 121.538 286.951 121.201 286.951C120.968 286.951 120.75 286.989 120.546 287.066C120.343 287.139 120.178 287.252 120.051 287.406C119.925 287.556 119.861 287.746 119.861 287.976V291.431H118.941ZM127.095 286.936H125.93V290.151C125.93 290.334 125.949 290.469 125.985 290.556C126.025 290.639 126.09 290.692 126.18 290.716C126.274 290.739 126.4 290.751 126.56 290.751H127.125V291.371C127.062 291.394 126.965 291.414 126.835 291.431C126.709 291.447 126.55 291.456 126.36 291.456C126.004 291.456 125.727 291.407 125.53 291.311C125.334 291.214 125.195 291.071 125.115 290.881C125.039 290.691 125 290.457 125 290.181V286.936H124.16V286.261H125.025L125.25 284.756H125.93V286.256H127.095V286.936ZM131.728 286.261V291.431H130.833V286.261H131.728ZM131.748 284.206V285.166H130.803V284.206H131.748ZM135.19 291.531C134.83 291.531 134.495 291.476 134.185 291.366C133.879 291.252 133.624 291.077 133.42 290.841C133.217 290.601 133.089 290.296 133.035 289.926H133.875C133.922 290.129 134.005 290.299 134.125 290.436C134.249 290.569 134.402 290.671 134.585 290.741C134.769 290.807 134.969 290.841 135.185 290.841C135.532 290.841 135.812 290.776 136.025 290.646C136.239 290.516 136.345 290.316 136.345 290.046C136.345 289.856 136.289 289.704 136.175 289.591C136.065 289.474 135.894 289.389 135.66 289.336L134.59 289.071C134.174 288.971 133.84 288.814 133.59 288.601C133.34 288.387 133.215 288.089 133.215 287.706C133.212 287.402 133.284 287.136 133.43 286.906C133.577 286.676 133.797 286.494 134.09 286.361C134.384 286.227 134.749 286.161 135.185 286.161C135.745 286.161 136.197 286.287 136.54 286.541C136.887 286.791 137.067 287.159 137.08 287.646H136.265C136.232 287.399 136.12 287.204 135.93 287.061C135.744 286.914 135.492 286.841 135.175 286.841C134.845 286.841 134.577 286.907 134.37 287.041C134.164 287.171 134.06 287.374 134.06 287.651C134.06 287.834 134.134 287.979 134.28 288.086C134.427 288.189 134.644 288.276 134.93 288.346L135.965 288.606C136.205 288.669 136.402 288.752 136.555 288.856C136.712 288.959 136.835 289.074 136.925 289.201C137.019 289.327 137.084 289.461 137.12 289.601C137.16 289.737 137.18 289.869 137.18 289.996C137.18 290.312 137.1 290.586 136.94 290.816C136.784 291.042 136.557 291.219 136.26 291.346C135.967 291.469 135.61 291.531 135.19 291.531ZM146.422 288.676C146.422 289.259 146.327 289.766 146.137 290.196C145.947 290.622 145.638 290.952 145.212 291.186C144.788 291.416 144.227 291.531 143.527 291.531C142.823 291.531 142.26 291.414 141.837 291.181C141.413 290.944 141.107 290.609 140.917 290.176C140.73 289.742 140.637 289.226 140.637 288.626V284.201H142.122V288.736C142.122 289.276 142.252 289.671 142.512 289.921C142.772 290.167 143.11 290.291 143.527 290.291C143.803 290.291 144.048 290.237 144.262 290.131C144.475 290.021 144.642 289.852 144.762 289.626C144.885 289.396 144.947 289.099 144.947 288.736V284.201H146.422V288.676ZM150.588 291.531C150.231 291.531 149.881 291.486 149.538 291.396C149.195 291.306 148.881 291.171 148.598 290.991C148.315 290.811 148.08 290.586 147.893 290.316C147.71 290.046 147.6 289.729 147.563 289.366H149.058C149.108 289.586 149.203 289.771 149.343 289.921C149.483 290.071 149.66 290.186 149.873 290.266C150.086 290.346 150.323 290.386 150.583 290.386C150.85 290.386 151.093 290.352 151.313 290.286C151.533 290.219 151.71 290.119 151.843 289.986C151.976 289.849 152.043 289.679 152.043 289.476C152.043 289.292 151.988 289.142 151.878 289.026C151.771 288.909 151.626 288.814 151.443 288.741C151.26 288.667 151.051 288.607 150.818 288.561L149.568 288.306C149.021 288.202 148.588 287.986 148.268 287.656C147.948 287.322 147.783 286.879 147.773 286.326C147.77 285.872 147.89 285.481 148.133 285.151C148.38 284.817 148.713 284.561 149.133 284.381C149.556 284.201 150.03 284.111 150.553 284.111C151.176 284.111 151.7 284.209 152.123 284.406C152.55 284.599 152.873 284.862 153.093 285.196C153.316 285.526 153.431 285.894 153.438 286.301H151.973C151.946 286.047 151.87 285.846 151.743 285.696C151.616 285.546 151.453 285.437 151.253 285.371C151.056 285.304 150.831 285.271 150.578 285.271C150.385 285.271 150.208 285.292 150.048 285.336C149.891 285.379 149.758 285.441 149.648 285.521C149.538 285.597 149.453 285.689 149.393 285.796C149.333 285.902 149.303 286.022 149.303 286.156C149.303 286.366 149.373 286.536 149.513 286.666C149.653 286.796 149.915 286.902 150.298 286.986L151.538 287.241C151.981 287.327 152.333 287.456 152.593 287.626C152.856 287.796 153.053 287.987 153.183 288.201C153.316 288.414 153.403 288.632 153.443 288.856C153.486 289.076 153.508 289.279 153.508 289.466C153.508 289.856 153.385 290.207 153.138 290.521C152.895 290.831 152.555 291.077 152.118 291.261C151.681 291.441 151.171 291.531 150.588 291.531ZM159.651 291.531C158.784 291.531 158.081 291.357 157.541 291.011C157.001 290.661 156.691 290.122 156.611 289.396L158.131 289.366C158.211 289.696 158.382 289.947 158.646 290.121C158.912 290.291 159.246 290.376 159.646 290.376C159.886 290.376 160.097 290.337 160.281 290.261C160.467 290.181 160.614 290.074 160.721 289.941C160.827 289.804 160.881 289.649 160.881 289.476C160.881 289.209 160.796 289.011 160.626 288.881C160.456 288.747 160.194 288.641 159.841 288.561L158.656 288.306C158.106 288.196 157.664 287.977 157.331 287.651C157.001 287.321 156.832 286.879 156.826 286.326C156.822 285.872 156.944 285.481 157.191 285.151C157.441 284.817 157.779 284.561 158.206 284.381C158.636 284.201 159.117 284.111 159.651 284.111C160.197 284.111 160.669 284.209 161.066 284.406C161.466 284.599 161.772 284.861 161.986 285.191C162.202 285.517 162.307 285.879 162.301 286.276L160.826 286.301C160.779 285.981 160.672 285.729 160.506 285.546C160.339 285.362 160.062 285.271 159.676 285.271C159.476 285.271 159.297 285.292 159.141 285.336C158.984 285.379 158.849 285.441 158.736 285.521C158.622 285.597 158.536 285.689 158.476 285.796C158.419 285.902 158.391 286.022 158.391 286.156C158.391 286.366 158.461 286.532 158.601 286.656C158.744 286.776 159.012 286.887 159.406 286.991L160.571 287.276C161.227 287.432 161.701 287.701 161.991 288.081C162.284 288.461 162.431 288.922 162.431 289.466C162.431 289.882 162.316 290.246 162.086 290.556C161.859 290.866 161.537 291.106 161.121 291.276C160.704 291.446 160.214 291.531 159.651 291.531ZM159.026 283.166H160.291V284.466H159.026V283.166ZM159.001 291.086H160.261V292.386H159.001V291.086ZM164.642 291.431V286.016H163.352V285.191C163.766 285.191 164.099 285.152 164.352 285.076C164.609 284.996 164.801 284.882 164.927 284.736C165.054 284.586 165.129 284.407 165.152 284.201H166.122V291.431H164.642ZM170.43 284.101C171.29 284.101 171.968 284.422 172.465 285.066C172.961 285.706 173.21 286.627 173.21 287.831C173.21 289.027 172.965 289.946 172.475 290.586C171.985 291.222 171.303 291.541 170.43 291.541C169.553 291.541 168.868 291.222 168.375 290.586C167.885 289.949 167.64 289.032 167.64 287.836C167.64 287.036 167.753 286.357 167.98 285.801C168.206 285.244 168.528 284.822 168.945 284.536C169.361 284.246 169.856 284.101 170.43 284.101ZM170.43 290.346C170.86 290.346 171.175 290.154 171.375 289.771C171.575 289.384 171.675 288.739 171.675 287.836C171.675 286.912 171.573 286.251 171.37 285.851C171.166 285.451 170.851 285.251 170.425 285.251C169.998 285.251 169.68 285.452 169.47 285.856C169.263 286.259 169.16 286.919 169.16 287.836C169.16 288.736 169.263 289.379 169.47 289.766C169.676 290.152 169.996 290.346 170.43 290.346ZM177.331 284.201H178.766V288.606H179.881V289.831H178.766V291.431H177.361L177.366 289.831H174.036V288.631L177.331 284.201ZM175.386 288.606H177.366V285.956L175.386 288.606ZM180.663 291.431V289.841H182.263V291.431H180.663ZM185.959 291.541C185.509 291.541 185.089 291.454 184.699 291.281C184.309 291.107 183.99 290.864 183.744 290.551C183.497 290.234 183.359 289.864 183.329 289.441H184.719C184.779 289.721 184.912 289.949 185.119 290.126C185.325 290.299 185.585 290.386 185.899 290.386C186.245 290.386 186.549 290.304 186.809 290.141C187.072 289.977 187.269 289.717 187.399 289.361C187.532 289.004 187.579 288.537 187.539 287.961C187.445 288.137 187.315 288.292 187.149 288.426C186.985 288.556 186.794 288.657 186.574 288.731C186.354 288.801 186.109 288.836 185.839 288.836C185.349 288.836 184.914 288.744 184.534 288.561C184.157 288.374 183.86 288.111 183.644 287.771C183.43 287.427 183.324 287.021 183.324 286.551C183.324 286.077 183.437 285.656 183.664 285.286C183.89 284.916 184.207 284.626 184.614 284.416C185.02 284.206 185.497 284.101 186.044 284.101C186.657 284.101 187.185 284.247 187.629 284.541C188.075 284.831 188.417 285.244 188.654 285.781C188.894 286.314 189.014 286.942 189.014 287.666C189.014 288.529 188.89 289.249 188.644 289.826C188.4 290.399 188.05 290.829 187.594 291.116C187.137 291.399 186.592 291.541 185.959 291.541ZM186.089 287.676C186.292 287.676 186.489 287.631 186.679 287.541C186.872 287.447 187.03 287.331 187.154 287.191C187.277 287.051 187.339 286.906 187.339 286.756C187.342 286.432 187.29 286.156 187.184 285.926C187.08 285.692 186.934 285.514 186.744 285.391C186.557 285.267 186.339 285.206 186.089 285.206C185.859 285.206 185.654 285.259 185.474 285.366C185.294 285.472 185.152 285.622 185.049 285.816C184.945 286.009 184.894 286.232 184.894 286.486C184.894 286.862 185.004 287.156 185.224 287.366C185.444 287.572 185.732 287.676 186.089 287.676ZM192.656 284.101C193.516 284.101 194.195 284.422 194.691 285.066C195.188 285.706 195.436 286.627 195.436 287.831C195.436 289.027 195.191 289.946 194.701 290.586C194.211 291.222 193.53 291.541 192.656 291.541C191.78 291.541 191.095 291.222 190.601 290.586C190.111 289.949 189.866 289.032 189.866 287.836C189.866 287.036 189.98 286.357 190.206 285.801C190.433 285.244 190.755 284.822 191.171 284.536C191.588 284.246 192.083 284.101 192.656 284.101ZM192.656 290.346C193.086 290.346 193.401 290.154 193.601 289.771C193.801 289.384 193.901 288.739 193.901 287.836C193.901 286.912 193.8 286.251 193.596 285.851C193.393 285.451 193.078 285.251 192.651 285.251C192.225 285.251 191.906 285.452 191.696 285.856C191.49 286.259 191.386 286.919 191.386 287.836C191.386 288.736 191.49 289.379 191.696 289.766C191.903 290.152 192.223 290.346 192.656 290.346ZM196.422 291.431V290.251H197.522V291.431H196.422Z" fill="#36536B"/>
</g>
<defs>
<filter id="filter0_d_0_4910" x="0" y="0" width="417.649" height="658.861" filterUnits="userSpaceOnUse" color-interpolation-filters="sRGB">
<feFlood flood-opacity="0" result="BackgroundImageFix"/>
<feColorMatrix in="SourceAlpha" type="matrix" values="0 0 0 0 0 0 0 0 0 0 0 0 0 0 0 0 0 0 127 0" result="hardAlpha"/>
<feOffset dx="25" dy="25"/>
<feGaussianBlur stdDeviation="40"/>
<feColorMatrix type="matrix" values="0 0 0 0 0.212302 0 0 0 0 0.32521 0 0 0 0 0.419299 0 0 0 0.300727 0"/>
<feBlend mode="normal" in2="BackgroundImageFix" result="effect1_dropShadow_0_4910"/>
<feBlend mode="normal" in="SourceGraphic" in2="effect1_dropShadow_0_4910" result="shape"/>
</filter>
<filter id="filter1_d_0_4910" x="69.4321" y="216.431" width="248" height="117" filterUnits="userSpaceOnUse" color-interpolation-filters="sRGB">
<feFlood flood-opacity="0" result="BackgroundImageFix"/>
<feColorMatrix in="SourceAlpha" type="matrix" values="0 0 0 0 0 0 0 0 0 0 0 0 0 0 0 0 0 0 127 0" result="hardAlpha"/>
<feMorphology radius="10" operator="erode" in="SourceAlpha" result="effect1_dropShadow_0_4910"/>
<feOffset dx="10" dy="10"/>
<feGaussianBlur stdDeviation="12.5"/>
<feColorMatrix type="matrix" values="0 0 0 0 0.212302 0 0 0 0 0.32521 0 0 0 0 0.419299 0 0 0 0.25 0"/>
<feBlend mode="normal" in2="BackgroundImageFix" result="effect1_dropShadow_0_4910"/>
<feBlend mode="normal" in="SourceGraphic" in2="effect1_dropShadow_0_4910" result="shape"/>
</filter>
<linearGradient id="paint0_linear_0_4910" x1="62.4468" y1="54.4305" x2="62.4468" y2="66.7545" gradientUnits="userSpaceOnUse">
<stop stop-color="#454545"/>
<stop offset="0.226279" stop-color="#999999"/>
<stop offset="1" stop-color="white"/>
</linearGradient>
<linearGradient id="paint1_linear_0_4910" x1="312.536" y1="140.178" x2="303.075" y2="140.178" gradientUnits="userSpaceOnUse">
<stop stop-color="white" stop-opacity="0.01"/>
<stop offset="0.222178" stop-color="#BABABA"/>
<stop offset="0.54678" stop-color="white" stop-opacity="0.01"/>
<stop offset="1" stop-color="white" stop-opacity="0.01"/>
</linearGradient>
<linearGradient id="paint2_linear_0_4910" x1="55.0001" y1="139.917" x2="64.4762" y2="139.917" gradientUnits="userSpaceOnUse">
<stop stop-color="white" stop-opacity="0.01"/>
<stop offset="0.222178" stop-color="#BABABA"/>
<stop offset="0.54678" stop-color="white" stop-opacity="0.01"/>
<stop offset="1" stop-color="white" stop-opacity="0.01"/>
</linearGradient>
<linearGradient id="paint3_linear_0_4910" x1="68.3391" y1="66.875" x2="68.3391" y2="528.255" gradientUnits="userSpaceOnUse">
<stop stop-color="#9CB6CD"/>
<stop offset="0.420564" stop-color="#9AB3CA"/>
<stop offset="0.716592" stop-color="#557496"/>
<stop offset="1" stop-color="#475178"/>
</linearGradient>
<clipPath id="clip0_0_4910">
<rect width="233" height="465" fill="white" transform="translate(67.5063 66.875)"/>
</clipPath>
<clipPath id="clip1_0_4910">
<rect width="218" height="87" fill="white" transform="translate(74.4321 221.431)"/>
</clipPath>
<clipPath id="clip2_0_4910">
<rect width="187" height="11" fill="white" transform="translate(90.4321 237.431)"/>
</clipPath>
</defs>
</svg>
