<svg width="316" height="460" viewBox="0 0 316 460" fill="none" xmlns="http://www.w3.org/2000/svg">
<g id="Group 30">
<g id="Group 2">
<g id="iPhone-X-Mockup">
<g id="phone">
<g id="body" filter="url(#filter0_d_0_2411)">
<path fill-rule="evenodd" clip-rule="evenodd" d="M75.0764 55H190.689C201.777 55 210.765 63.5412 210.765 74.0773V335.239C210.765 345.775 201.777 354.317 190.689 354.317H75.0764C63.9885 354.317 55 345.775 55 335.239V74.0773C55 63.5412 63.9885 55 75.0764 55Z" fill="#213648"/>
</g>
<g id="frame">
<path id="reflect-frame-top" opacity="0.595562" fill-rule="evenodd" clip-rule="evenodd" d="M191.136 54.6582H74.5605C69.1179 54.9876 64.0984 57.4524 59.5021 62.0526C62.458 59.4917 67.7303 56.0649 74.7008 56.0649C74.7008 56.0649 186.349 56.0649 190.996 56.0649C197.966 56.0649 203.238 59.4917 206.194 62.0526C201.598 57.4524 196.578 54.9876 191.136 54.6582Z" fill="url(#paint0_linear_0_2411)" fill-opacity="0.65"/>
<path id="reflect-frame-right" opacity="0.75" fill-rule="evenodd" clip-rule="evenodd" d="M207.611 332.261V75.6473C207.611 68.7621 205.061 66.2169 203.54 64.5825C202.019 62.9482 201.954 62.1146 204.14 63.3485C206.325 64.5825 210.696 68.1766 210.696 75.6473V332.261C210.696 339.731 206.325 343.326 204.14 344.559C201.954 345.793 202.019 344.96 203.54 343.326C205.061 341.691 207.611 339.146 207.611 332.261Z" fill="url(#paint1_linear_0_2411)"/>
<path id="reflect-frame-left" opacity="0.75" fill-rule="evenodd" clip-rule="evenodd" d="M58.0857 332.261V75.6473C58.0857 68.7621 60.6354 66.2169 62.1564 64.5825C63.6775 62.9482 63.7422 62.1146 61.5567 63.3485C59.3713 64.5825 55 68.1766 55 75.6473V332.261C55 339.731 59.3713 343.326 61.5567 344.559C63.7422 345.793 63.6775 344.96 62.1564 343.326C60.6354 341.691 58.0857 339.146 58.0857 332.261Z" fill="url(#paint2_linear_0_2411)"/>
</g>
<g id="controls">
<path id="vol+" fill-rule="evenodd" clip-rule="evenodd" d="M53.4475 117.093C53.4475 116.264 54.1194 115.592 54.9482 115.592C55.777 115.592 56.4489 116.264 56.4489 117.093V152.702C56.4489 153.531 55.777 154.203 54.9482 154.203C54.1194 154.203 53.4475 153.531 53.4475 152.702V117.093Z" fill="#2E423C"/>
<path id="power" fill-rule="evenodd" clip-rule="evenodd" d="M209.144 148.585C209.144 147.756 209.816 147.084 210.644 147.084C211.473 147.084 212.145 147.756 212.145 148.585V173.754C212.145 174.582 211.473 175.254 210.644 175.254C209.816 175.254 209.144 174.582 209.144 173.754V148.585Z" fill="#2E423C"/>
</g>
</g>
<g id="Screen">
<path id="Screen Mask" fill-rule="evenodd" clip-rule="evenodd" d="M119.149 62.125L74.1657 62.125C67.4524 62.125 62.5608 66.663 62.5608 72.5898V326.024C62.5608 333.752 70.1192 340.599 78.6658 340.599H187.084C195.317 340.599 203.189 333.698 203.189 326.024V73.2749C203.189 66.1711 197.875 62.1672 191.584 62.125L145.888 62.125C145.714 62.1532 142.575 63.434 141.249 66.663C139.922 69.8919 137.253 72.4659 134.33 72.4659H130.935C129.546 72.4659 125.888 71.1281 124.036 66.663C122.184 62.1979 119.322 62.1532 119.149 62.125Z" fill="white"/>
<mask id="mask0_0_2411" style="mask-type:luminance" maskUnits="userSpaceOnUse" x="62" y="62" width="142" height="279">
<path id="Screen Mask_2" fill-rule="evenodd" clip-rule="evenodd" d="M119.149 62.125L74.1657 62.125C67.4524 62.125 62.5608 66.663 62.5608 72.5898V326.024C62.5608 333.752 70.1192 340.599 78.6658 340.599H187.084C195.317 340.599 203.189 333.698 203.189 326.024V73.2749C203.189 66.1711 197.875 62.1672 191.584 62.125L145.888 62.125C145.714 62.1532 142.575 63.434 141.249 66.663C139.922 69.8919 137.253 72.4659 134.33 72.4659H130.935C129.546 72.4659 125.888 71.1281 124.036 66.663C122.184 62.1979 119.322 62.1532 119.149 62.125Z" fill="white"/>
</mask>
<g mask="url(#mask0_0_2411)">
<rect id="Rectangle" x="62.4475" y="61.6582" width="141" height="279" fill="url(#paint3_linear_0_2411)"/>
<path id="12:49" fill-rule="evenodd" clip-rule="evenodd" d="M126.899 136.297V138.658H116.627V136.566C116.627 135.862 116.759 135.252 117.023 134.737C117.288 134.222 117.638 133.774 118.073 133.393C118.508 133.012 118.985 132.678 119.504 132.39C120.024 132.102 120.544 131.83 121.067 131.574C121.589 131.318 122.068 131.06 122.503 130.801C122.938 130.542 123.288 130.252 123.553 129.932C123.817 129.612 123.949 129.234 123.949 128.799C123.949 128.242 123.754 127.788 123.364 127.436C122.974 127.084 122.44 126.908 121.763 126.908C121.06 126.908 120.464 127.11 119.974 127.513C119.483 127.916 119.18 128.524 119.064 129.337H116.366C116.378 128.454 116.586 127.652 116.989 126.932C117.392 126.212 117.997 125.641 118.803 125.218C119.609 124.796 120.622 124.585 121.84 124.585C122.885 124.585 123.786 124.761 124.544 125.113C125.302 125.465 125.887 125.954 126.3 126.582C126.712 127.209 126.919 127.942 126.919 128.78C126.919 129.478 126.79 130.079 126.532 130.585C126.274 131.09 125.932 131.522 125.507 131.881C125.081 132.239 124.613 132.553 124.104 132.822C123.594 133.09 123.087 133.34 122.58 133.57C122.074 133.801 121.608 134.036 121.183 134.276C120.757 134.516 120.415 134.786 120.157 135.087C119.899 135.388 119.77 135.75 119.77 136.172V136.297H126.899ZM113.444 124.777V138.658H110.581V128.262H108.085V126.678C108.885 126.678 109.532 126.602 110.025 126.452C110.518 126.302 110.887 126.084 111.132 125.799C111.377 125.514 111.523 125.174 111.568 124.777H113.444ZM131.871 131.977V128.972H128.776V131.977H131.871ZM131.871 135.606V138.601H128.776V135.606H131.871ZM143.015 138.658V135.586H145.172V133.234H143.015V124.777H140.239L133.864 133.282V135.586H140.306L140.297 138.658H143.015ZM136.476 133.234H140.306V128.146L136.476 133.234ZM151.711 138.87C152.936 138.87 153.99 138.596 154.874 138.049C155.757 137.502 156.436 136.676 156.91 135.572C157.384 134.468 157.621 133.087 157.621 131.43C157.621 130.041 157.39 128.833 156.929 127.806C156.468 126.778 155.807 125.985 154.946 125.425C154.085 124.865 153.062 124.585 151.875 124.585C150.818 124.585 149.895 124.786 149.109 125.19C148.322 125.593 147.709 126.15 147.271 126.86C146.832 127.57 146.613 128.38 146.613 129.289C146.613 130.191 146.821 130.97 147.237 131.626C147.653 132.282 148.227 132.788 148.959 133.143C149.691 133.498 150.531 133.676 151.479 133.676C152.001 133.676 152.475 133.607 152.9 133.47C153.326 133.332 153.698 133.137 154.018 132.884C154.337 132.631 154.587 132.335 154.767 131.996C154.845 133.103 154.756 133.999 154.501 134.684C154.247 135.369 153.866 135.868 153.36 136.182C152.854 136.495 152.265 136.652 151.595 136.652C150.988 136.652 150.485 136.484 150.086 136.148C149.686 135.812 149.428 135.375 149.312 134.838H146.623C146.681 135.65 146.948 136.359 147.426 136.964C147.903 137.569 148.519 138.038 149.273 138.37C150.028 138.703 150.84 138.87 151.711 138.87ZM150.289 130.849C150.714 131.249 151.272 131.449 151.962 131.449C152.356 131.449 152.738 131.361 153.108 131.185C153.479 131.009 153.784 130.786 154.023 130.518C154.261 130.249 154.38 129.97 154.38 129.682C154.387 129.062 154.289 128.529 154.085 128.084C153.882 127.639 153.599 127.298 153.234 127.062C152.87 126.825 152.446 126.706 151.962 126.706C151.517 126.706 151.121 126.809 150.772 127.014C150.424 127.218 150.15 127.506 149.95 127.878C149.75 128.249 149.65 128.678 149.65 129.164C149.65 129.887 149.863 130.449 150.289 130.849Z" fill="white"/>
</g>
</g>
</g>
</g>
<g id="Group 29" clip-path="url(#clip0_0_2411)">
<g id="Rectangle_2" filter="url(#filter1_d_0_2411)">
<rect x="66.2529" y="154.658" width="131.255" height="53.1915" rx="5" fill="#FBFCFE"/>
</g>
<g id="Group 28">
<path id="YourApp" fill-rule="evenodd" clip-rule="evenodd" d="M78.3339 169.943V168.084L79.8481 165.523H78.8878L77.8974 167.314L76.8949 165.523H75.9436L77.4548 168.081V169.943H78.3339ZM81.6183 170.004C81.9354 170.004 82.2058 169.935 82.4296 169.796C82.6534 169.658 82.825 169.467 82.9444 169.223C83.0638 168.98 83.1235 168.699 83.1235 168.381C83.1235 168.043 83.0623 167.749 82.9399 167.501C82.8174 167.252 82.6438 167.06 82.4191 166.924C82.1943 166.789 81.9284 166.721 81.6213 166.721C81.3142 166.721 81.0478 166.79 80.822 166.929C80.5962 167.067 80.4216 167.261 80.2982 167.51C80.1748 167.758 80.1131 168.049 80.1131 168.381C80.1131 168.713 80.1748 169.001 80.2982 169.243C80.4216 169.486 80.5962 169.673 80.822 169.806C81.0478 169.938 81.3132 170.004 81.6183 170.004ZM81.2329 169.197C81.3273 169.293 81.4567 169.341 81.6213 169.341C81.7758 169.341 81.9003 169.295 81.9946 169.203C82.0889 169.112 82.1576 168.991 82.2008 168.841C82.2439 168.691 82.2655 168.528 82.2655 168.35C82.2655 168.183 82.246 168.025 82.2068 167.877C82.1677 167.728 82.1009 167.608 82.0066 167.516C81.9123 167.424 81.7839 167.378 81.6213 167.378C81.4668 167.378 81.3418 167.422 81.2465 167.508C81.1512 167.595 81.0814 167.712 81.0373 167.86C80.9931 168.008 80.971 168.171 80.971 168.35C80.971 168.515 80.9911 168.674 81.0312 168.826C81.0714 168.978 81.1386 169.101 81.2329 169.197ZM84.8545 170.004C84.9769 170.004 85.1019 169.985 85.2293 169.948C85.3567 169.91 85.4701 169.842 85.5695 169.743C85.6688 169.644 85.7366 169.502 85.7727 169.316L85.875 169.943H86.5373V166.782H85.6673V168.84C85.6673 169.003 85.6166 169.129 85.5153 169.22C85.4139 169.311 85.277 169.356 85.1044 169.356C84.9217 169.356 84.7832 169.309 84.6889 169.216C84.5946 169.122 84.5474 169.002 84.5474 168.855V166.782H83.6684V168.968C83.6684 169.137 83.703 169.286 83.7722 169.414C83.8415 169.543 83.9333 169.651 84.0477 169.738C84.1621 169.826 84.289 169.892 84.4285 169.937C84.568 169.982 84.71 170.004 84.8545 170.004ZM88.1299 168.213V169.943H87.2508V166.782H88.0967V167.531C88.1469 167.37 88.2177 167.229 88.309 167.108C88.4003 166.986 88.5112 166.892 88.6416 166.823C88.7721 166.755 88.9196 166.721 89.0842 166.721C89.1123 166.721 89.1388 166.723 89.1639 166.726C89.189 166.729 89.2076 166.733 89.2196 166.739V167.589C89.2016 167.581 89.18 167.576 89.1549 167.574C89.1298 167.572 89.1072 167.57 89.0872 167.568C88.9146 167.554 88.7671 167.559 88.6446 167.583C88.5222 167.608 88.4229 167.649 88.3466 167.708C88.2703 167.768 88.2151 167.84 88.181 167.925C88.1469 168.011 88.1299 168.107 88.1299 168.213ZM91.646 169.943L92.0103 168.919H93.5757L93.931 169.943H94.807L93.2506 165.523H92.3234L90.764 169.943H91.646ZM92.206 168.139H93.365L92.79 166.385L92.206 168.139ZM96.2279 170.927V169.469C96.2721 169.545 96.3238 169.614 96.383 169.679C96.4422 169.743 96.5094 169.799 96.5847 169.848C96.6599 169.897 96.7417 169.935 96.83 169.963C96.9183 169.99 97.0126 170.004 97.113 170.004C97.3578 170.004 97.5776 169.945 97.7723 169.827C97.967 169.709 98.12 169.527 98.2314 169.281C98.3428 169.036 98.3984 168.721 98.3984 168.338C98.3984 167.969 98.3468 167.665 98.2434 167.426C98.1401 167.186 97.9981 167.009 97.8174 166.894C97.6368 166.779 97.4311 166.721 97.2003 166.721C97.0939 166.721 96.9926 166.734 96.8962 166.759C96.7999 166.785 96.7106 166.821 96.6283 166.868C96.546 166.915 96.4713 166.969 96.404 167.031C96.3368 167.093 96.2801 167.162 96.2339 167.238L96.2309 166.782H95.3489V170.927H96.2279ZM96.5245 169.209C96.6238 169.303 96.7497 169.35 96.9023 169.35C97.0929 169.35 97.253 169.27 97.3824 169.109C97.5119 168.948 97.5766 168.693 97.5766 168.344C97.5766 168.039 97.5149 167.8 97.3915 167.627C97.268 167.455 97.105 167.369 96.9023 167.369C96.6755 167.369 96.5064 167.462 96.395 167.649C96.2836 167.835 96.2279 168.067 96.2279 168.344C96.2279 168.522 96.2525 168.687 96.3017 168.84C96.3509 168.992 96.4251 169.116 96.5245 169.209ZM99.8615 170.927V169.469C99.9057 169.545 99.9574 169.614 100.017 169.679C100.076 169.743 100.143 169.799 100.218 169.848C100.294 169.897 100.375 169.935 100.464 169.963C100.552 169.99 100.646 170.004 100.747 170.004C100.991 170.004 101.211 169.945 101.406 169.827C101.601 169.709 101.754 169.527 101.865 169.281C101.976 169.036 102.032 168.721 102.032 168.338C102.032 167.969 101.98 167.665 101.877 167.426C101.774 167.186 101.632 167.009 101.451 166.894C101.27 166.779 101.065 166.721 100.834 166.721C100.728 166.721 100.626 166.734 100.53 166.759C100.434 166.785 100.344 166.821 100.262 166.868C100.18 166.915 100.105 166.969 100.038 167.031C99.9704 167.093 99.9137 167.162 99.8675 167.238L99.8645 166.782H98.9825V170.927H99.8615ZM100.158 169.209C100.257 169.303 100.383 169.35 100.536 169.35C100.727 169.35 100.887 169.27 101.016 169.109C101.145 168.948 101.21 168.693 101.21 168.344C101.21 168.039 101.148 167.8 101.025 167.627C100.902 167.455 100.739 167.369 100.536 167.369C100.309 167.369 100.14 167.462 100.029 167.649C99.9172 167.835 99.8615 168.067 99.8615 168.344C99.8615 168.522 99.8861 168.687 99.9353 168.84C99.9844 168.992 100.059 169.116 100.158 169.209Z" fill="#BA4270"/>
<path id="JustNow" opacity="0.5" fill-rule="evenodd" clip-rule="evenodd" d="M164.139 169.876C164.005 169.961 163.816 170.004 163.571 170.004C163.417 170.004 163.272 169.986 163.136 169.949C163.001 169.913 162.911 169.885 162.867 169.867L162.906 169.326C162.968 169.348 163.04 169.376 163.121 169.41C163.202 169.443 163.303 169.46 163.424 169.46C163.62 169.46 163.755 169.405 163.829 169.295C163.902 169.185 163.939 169 163.939 168.739V165.523H164.495V168.901C164.495 169.135 164.469 169.335 164.417 169.5C164.365 169.665 164.272 169.79 164.139 169.876ZM166.972 169.939C166.844 169.984 166.707 170.006 166.561 170.004C166.398 170.002 166.245 169.978 166.102 169.932C165.958 169.887 165.831 169.819 165.721 169.729C165.61 169.639 165.524 169.528 165.46 169.394C165.397 169.261 165.365 169.105 165.365 168.928V166.782H165.922V168.87C165.922 169.076 165.985 169.243 166.111 169.371C166.236 169.5 166.425 169.564 166.678 169.564C166.907 169.564 167.091 169.503 167.23 169.382C167.37 169.261 167.44 169.08 167.44 168.84V166.782H167.994V169.943H167.551L167.494 169.338C167.456 169.497 167.391 169.625 167.3 169.723C167.208 169.821 167.099 169.893 166.972 169.939ZM169.968 170.004C170.221 170.004 170.437 169.966 170.614 169.89C170.792 169.813 170.928 169.705 171.024 169.566C171.119 169.426 171.167 169.259 171.167 169.066C171.167 168.988 171.155 168.907 171.132 168.823C171.109 168.738 171.07 168.657 171.015 168.58C170.959 168.502 170.885 168.432 170.792 168.369C170.698 168.306 170.58 168.255 170.435 168.216L169.812 168.057C169.639 168.014 169.509 167.961 169.421 167.896C169.332 167.832 169.288 167.744 169.288 167.632C169.288 167.463 169.35 167.338 169.475 167.258C169.599 167.177 169.761 167.137 169.959 167.137C170.15 167.137 170.302 167.181 170.415 167.27C170.529 167.358 170.596 167.478 170.616 167.629H171.106C171.098 167.331 170.99 167.106 170.783 166.952C170.575 166.798 170.303 166.721 169.965 166.721C169.703 166.721 169.483 166.762 169.306 166.843C169.13 166.925 168.997 167.036 168.909 167.177C168.82 167.317 168.777 167.48 168.779 167.666C168.779 167.9 168.855 168.082 169.005 168.213C169.156 168.343 169.356 168.439 169.607 168.5L170.251 168.662C170.392 168.695 170.496 168.746 170.563 168.817C170.63 168.887 170.664 168.98 170.664 169.096C170.664 169.261 170.6 169.384 170.471 169.463C170.343 169.543 170.174 169.582 169.965 169.582C169.835 169.582 169.715 169.561 169.604 169.52C169.494 169.478 169.402 169.416 169.329 169.333C169.255 169.251 169.205 169.147 169.177 169.023H168.671C168.703 169.249 168.78 169.435 168.903 169.581C169.025 169.727 169.179 169.834 169.365 169.902C169.55 169.97 169.752 170.004 169.968 170.004ZM173.411 169.943C173.334 169.953 173.238 169.958 173.123 169.958C172.909 169.958 172.742 169.929 172.624 169.87C172.505 169.811 172.422 169.723 172.375 169.607C172.328 169.491 172.305 169.348 172.305 169.179V167.195H171.799V166.782H172.32L172.455 165.862H172.864V166.779H173.566V167.195H172.864V169.161C172.864 169.273 172.876 169.355 172.899 169.407C172.922 169.459 172.961 169.492 173.017 169.506C173.072 169.52 173.147 169.527 173.244 169.527H173.584V169.906C173.546 169.921 173.488 169.933 173.411 169.943ZM176.426 169.943V166.458L178.762 169.943H179.259V165.523H178.702V168.959L176.402 165.523H175.869V169.943H176.426ZM182.31 169.798C182.1 169.935 181.841 170.004 181.532 170.004C181.245 170.004 180.994 169.942 180.779 169.816C180.564 169.691 180.398 169.507 180.279 169.264C180.161 169.022 180.102 168.725 180.102 168.375C180.102 168.045 180.157 167.755 180.267 167.507C180.378 167.258 180.54 167.065 180.753 166.927C180.967 166.79 181.226 166.721 181.532 166.721C181.819 166.721 182.068 166.785 182.28 166.912C182.491 167.039 182.655 167.226 182.772 167.473C182.888 167.72 182.946 168.02 182.946 168.375C182.946 168.697 182.893 168.98 182.785 169.225C182.678 169.469 182.519 169.66 182.31 169.798ZM181.532 169.558C181.325 169.558 181.157 169.505 181.029 169.399C180.9 169.293 180.806 169.149 180.746 168.968C180.686 168.787 180.655 168.585 180.655 168.363C180.655 168.112 180.689 167.897 180.756 167.718C180.824 167.538 180.922 167.401 181.053 167.306C181.183 167.212 181.343 167.164 181.532 167.164C181.736 167.164 181.902 167.217 182.03 167.323C182.157 167.429 182.25 167.572 182.308 167.753C182.366 167.933 182.396 168.136 182.396 168.363C182.396 168.609 182.362 168.822 182.296 169.002C182.23 169.181 182.133 169.318 182.004 169.414C181.876 169.51 181.718 169.558 181.532 169.558ZM185.572 167.611L184.897 169.943H184.352L183.392 166.782H183.907L184.62 169.212H184.668L185.37 166.782H185.791L186.52 169.206H186.568L187.251 166.782H187.772L186.83 169.943H186.282L185.572 167.611Z" fill="#36536B"/>
</g>
<path id="The payment has been" d="M75.597 177.011V176.459H79.1525V177.011H77.7193V181.158H77.1148V177.011H75.597ZM79.8041 181.158V176.329H80.3891V178.292C80.4455 178.199 80.5213 178.112 80.6166 178.032C80.712 177.949 80.8279 177.883 80.9644 177.833C81.1009 177.781 81.2591 177.755 81.4389 177.755C81.6577 177.755 81.856 177.797 82.0336 177.879C82.2113 177.959 82.3521 178.074 82.4561 178.223C82.5601 178.373 82.6121 178.551 82.6121 178.756V181.158H82.0109V178.877C82.0109 178.675 81.9416 178.52 81.8029 178.412C81.6664 178.301 81.4876 178.246 81.2666 178.246C81.1171 178.246 80.9763 178.271 80.8441 178.321C80.712 178.369 80.6047 178.442 80.5224 178.542C80.4422 178.639 80.4021 178.764 80.4021 178.916V181.158H79.8041ZM83.9783 179.618C83.9783 179.83 84.0129 180.023 84.0823 180.196C84.1538 180.367 84.261 180.504 84.404 180.606C84.5492 180.708 84.7301 180.758 84.9468 180.758C85.1613 180.758 85.3454 180.709 85.4993 180.609C85.6553 180.509 85.7549 180.365 85.7983 180.177H86.367C86.3258 180.404 86.2348 180.596 86.094 180.752C85.9532 180.908 85.7831 181.026 85.5838 181.106C85.3844 181.184 85.1764 181.223 84.9598 181.223C84.6456 181.223 84.3693 181.155 84.131 181.018C83.8927 180.882 83.7063 180.686 83.572 180.43C83.4377 180.175 83.3705 179.868 83.3705 179.51C83.3705 179.157 83.4312 178.847 83.5525 178.581C83.6738 178.314 83.8493 178.106 84.079 177.957C84.3108 177.807 84.5893 177.733 84.9143 177.733C85.2306 177.733 85.4982 177.801 85.717 177.937C85.9358 178.074 86.1016 178.267 86.2143 178.516C86.3291 178.763 86.3865 179.057 86.3865 179.397V179.618H83.9783ZM83.9815 179.211H85.808C85.808 179.019 85.7755 178.845 85.7105 178.691C85.6455 178.535 85.5458 178.413 85.4115 178.324C85.2793 178.233 85.1125 178.188 84.911 178.188C84.7008 178.188 84.5264 178.239 84.3878 178.34C84.2513 178.44 84.1483 178.569 84.079 178.727C84.0118 178.883 83.9793 179.045 83.9815 179.211ZM88.6655 182.205V177.798H89.2635L89.27 178.383C89.309 178.313 89.3588 178.241 89.4195 178.165C89.4823 178.089 89.5581 178.019 89.647 177.954C89.738 177.889 89.843 177.836 89.9622 177.794C90.0835 177.753 90.2211 177.733 90.375 177.733C90.6436 177.733 90.8798 177.794 91.0835 177.918C91.2893 178.039 91.4496 178.226 91.5645 178.477C91.6793 178.728 91.7367 179.047 91.7367 179.432C91.7367 179.818 91.6804 180.144 91.5677 180.411C91.4572 180.675 91.2969 180.877 91.0867 181.015C90.8765 181.154 90.623 181.223 90.3262 181.223C90.1767 181.223 90.0435 181.202 89.9265 181.158C89.8116 181.117 89.7109 181.063 89.6242 180.996C89.5397 180.926 89.4682 180.853 89.4097 180.775C89.3534 180.697 89.3068 180.622 89.27 180.55V182.205H88.6655ZM90.2125 180.755C90.4898 180.755 90.7162 180.65 90.8917 180.44C91.0672 180.228 91.155 179.898 91.155 179.452C91.155 179.068 91.0748 178.764 90.9145 178.539C90.7541 178.313 90.5201 178.201 90.2125 178.201C89.9005 178.201 89.6643 178.317 89.504 178.548C89.3436 178.778 89.2635 179.079 89.2635 179.452C89.2635 179.692 89.2992 179.911 89.3707 180.108C89.4422 180.306 89.5484 180.463 89.6892 180.58C89.83 180.697 90.0045 180.755 90.2125 180.755ZM93.4099 181.223C93.1932 181.223 93.0015 181.185 92.8347 181.109C92.6678 181.031 92.5367 180.92 92.4414 180.775C92.3482 180.63 92.3017 180.454 92.3017 180.248C92.3017 179.876 92.4317 179.598 92.6917 179.416C92.9517 179.234 93.3687 179.137 93.9429 179.124L94.5442 179.107V178.844C94.5442 178.638 94.4824 178.476 94.3589 178.357C94.2354 178.235 94.0437 178.175 93.7837 178.175C93.5908 178.177 93.4207 178.222 93.2734 178.311C93.1282 178.4 93.034 178.545 92.9907 178.747H92.4609C92.4739 178.528 92.5357 178.344 92.6462 178.194C92.7567 178.043 92.9105 177.928 93.1077 177.85C93.307 177.772 93.5421 177.733 93.8129 177.733C94.1054 177.733 94.3481 177.774 94.5409 177.856C94.7359 177.939 94.8811 178.06 94.9764 178.22C95.0739 178.381 95.1227 178.578 95.1227 178.812V181.158H94.6092L94.5669 180.528C94.4369 180.79 94.2712 180.972 94.0697 181.074C93.8703 181.173 93.6504 181.223 93.4099 181.223ZM93.5919 180.791C93.7046 180.791 93.8162 180.77 93.9267 180.729C94.0393 180.688 94.1422 180.633 94.2354 180.563C94.3286 180.492 94.4022 180.413 94.4564 180.326C94.5127 180.237 94.542 180.146 94.5442 180.053V179.478L94.0437 179.488C93.788 179.492 93.5735 179.518 93.4002 179.566C93.229 179.613 93.1001 179.688 93.0134 179.79C92.9289 179.892 92.8867 180.025 92.8867 180.19C92.8867 180.378 92.9517 180.526 93.0817 180.632C93.2138 180.738 93.3839 180.791 93.5919 180.791ZM96.3729 182.231C96.1758 182.231 96.0404 182.217 95.9667 182.188C95.893 182.16 95.8562 182.146 95.8562 182.146V181.756L96.1974 181.763C96.3231 181.767 96.4271 181.758 96.5094 181.737C96.5918 181.715 96.6579 181.686 96.7077 181.649C96.7575 181.612 96.7954 181.571 96.8214 181.525C96.8496 181.48 96.8724 181.437 96.8897 181.395L97.0067 181.077L95.6937 177.798H96.3014L97.2927 180.391L98.2774 177.798H98.8657L97.4487 181.412C97.362 181.624 97.2645 181.79 97.1562 181.909C97.05 182.028 96.9309 182.112 96.7987 182.159C96.6687 182.207 96.5268 182.231 96.3729 182.231ZM99.5073 181.158V177.798H100.086V178.285C100.179 178.138 100.307 178.009 100.469 177.898C100.632 177.788 100.843 177.733 101.103 177.733C101.224 177.733 101.348 177.753 101.474 177.794C101.601 177.836 101.718 177.897 101.825 177.98C101.931 178.062 102.013 178.163 102.072 178.282C102.176 178.117 102.316 177.985 102.494 177.885C102.672 177.784 102.872 177.733 103.095 177.733C103.212 177.733 103.335 177.751 103.463 177.788C103.59 177.823 103.708 177.885 103.817 177.976C103.927 178.065 104.017 178.19 104.087 178.35C104.156 178.508 104.191 178.712 104.191 178.961V181.158H103.586V179.02C103.586 178.816 103.554 178.659 103.489 178.548C103.424 178.436 103.338 178.357 103.232 178.311C103.128 178.266 103.016 178.243 102.897 178.243C102.793 178.243 102.683 178.264 102.566 178.305C102.449 178.346 102.349 178.415 102.267 178.513C102.184 178.61 102.143 178.743 102.143 178.912V181.158H101.545V178.844C101.545 178.712 101.509 178.602 101.438 178.513C101.368 178.424 101.281 178.357 101.175 178.311C101.071 178.266 100.967 178.243 100.863 178.243C100.748 178.243 100.632 178.266 100.515 178.311C100.4 178.357 100.302 178.429 100.222 178.529C100.144 178.626 100.105 178.754 100.105 178.912V181.158H99.5073ZM105.56 179.618C105.56 179.83 105.595 180.023 105.664 180.196C105.736 180.367 105.843 180.504 105.986 180.606C106.131 180.708 106.312 180.758 106.529 180.758C106.743 180.758 106.927 180.709 107.081 180.609C107.237 180.509 107.337 180.365 107.38 180.177H107.949C107.908 180.404 107.817 180.596 107.676 180.752C107.535 180.908 107.365 181.026 107.166 181.106C106.966 181.184 106.758 181.223 106.542 181.223C106.228 181.223 105.951 181.155 105.713 181.018C105.475 180.882 105.288 180.686 105.154 180.43C105.02 180.175 104.953 179.868 104.953 179.51C104.953 179.157 105.013 178.847 105.135 178.581C105.256 178.314 105.431 178.106 105.661 177.957C105.893 177.807 106.171 177.733 106.496 177.733C106.813 177.733 107.08 177.801 107.299 177.937C107.518 178.074 107.684 178.267 107.796 178.516C107.911 178.763 107.969 179.057 107.969 179.397V179.618H105.56ZM105.564 179.211H107.39C107.39 179.019 107.358 178.845 107.293 178.691C107.228 178.535 107.128 178.413 106.994 178.324C106.861 178.233 106.695 178.188 106.493 178.188C106.283 178.188 106.108 178.239 105.97 178.34C105.833 178.44 105.73 178.569 105.661 178.727C105.594 178.883 105.561 179.045 105.564 179.211ZM108.794 181.158V177.798H109.376V178.285C109.43 178.192 109.505 178.104 109.6 178.022C109.697 177.94 109.814 177.874 109.951 177.824C110.09 177.774 110.249 177.749 110.429 177.749C110.641 177.749 110.836 177.791 111.014 177.876C111.193 177.96 111.336 178.092 111.443 178.272C111.551 178.45 111.605 178.68 111.605 178.961V181.158H111.004V179.02C111.004 178.758 110.935 178.564 110.796 178.438C110.659 178.31 110.482 178.246 110.263 178.246C110.111 178.246 109.969 178.271 109.837 178.321C109.705 178.369 109.598 178.442 109.515 178.542C109.433 178.639 109.392 178.763 109.392 178.912V181.158H108.794ZM114.094 178.236H113.337V180.326C113.337 180.445 113.349 180.533 113.372 180.589C113.398 180.644 113.441 180.678 113.499 180.693C113.56 180.709 113.642 180.716 113.746 180.716H114.113V181.119C114.072 181.134 114.009 181.147 113.925 181.158C113.843 181.169 113.74 181.174 113.616 181.174C113.384 181.174 113.205 181.143 113.077 181.08C112.949 181.017 112.859 180.924 112.807 180.801C112.757 180.677 112.732 180.526 112.732 180.346V178.236H112.186V177.798H112.748L112.895 176.819H113.337V177.794H114.094V178.236ZM116.456 181.158V176.329H117.041V178.292C117.097 178.199 117.173 178.112 117.268 178.032C117.363 177.949 117.479 177.883 117.616 177.833C117.752 177.781 117.91 177.755 118.09 177.755C118.309 177.755 118.507 177.797 118.685 177.879C118.863 177.959 119.004 178.074 119.108 178.223C119.212 178.373 119.264 178.551 119.264 178.756V181.158H118.662V178.877C118.662 178.675 118.593 178.52 118.454 178.412C118.318 178.301 118.139 178.246 117.918 178.246C117.769 178.246 117.628 178.271 117.496 178.321C117.363 178.369 117.256 178.442 117.174 178.542C117.094 178.639 117.054 178.764 117.054 178.916V181.158H116.456ZM121.117 181.223C120.901 181.223 120.709 181.185 120.542 181.109C120.375 181.031 120.244 180.92 120.149 180.775C120.056 180.63 120.009 180.454 120.009 180.248C120.009 179.876 120.139 179.598 120.399 179.416C120.659 179.234 121.076 179.137 121.65 179.124L122.252 179.107V178.844C122.252 178.638 122.19 178.476 122.066 178.357C121.943 178.235 121.751 178.175 121.491 178.175C121.298 178.177 121.128 178.222 120.981 178.311C120.836 178.4 120.742 178.545 120.698 178.747H120.168C120.181 178.528 120.243 178.344 120.354 178.194C120.464 178.043 120.618 177.928 120.815 177.85C121.015 177.772 121.25 177.733 121.52 177.733C121.813 177.733 122.056 177.774 122.248 177.856C122.443 177.939 122.589 178.06 122.684 178.22C122.781 178.381 122.83 178.578 122.83 178.812V181.158H122.317L122.274 180.528C122.144 180.79 121.979 180.972 121.777 181.074C121.578 181.173 121.358 181.223 121.117 181.223ZM121.299 180.791C121.412 180.791 121.524 180.77 121.634 180.729C121.747 180.688 121.85 180.633 121.943 180.563C122.036 180.492 122.11 180.413 122.164 180.326C122.22 180.237 122.25 180.146 122.252 180.053V179.478L121.751 179.488C121.496 179.492 121.281 179.518 121.108 179.566C120.937 179.613 120.808 179.688 120.721 179.79C120.636 179.892 120.594 180.025 120.594 180.19C120.594 180.378 120.659 180.526 120.789 180.632C120.921 180.738 121.091 180.791 121.299 180.791ZM124.992 181.223C124.758 181.223 124.541 181.187 124.339 181.116C124.14 181.042 123.974 180.929 123.842 180.775C123.71 180.619 123.626 180.42 123.592 180.18H124.138C124.168 180.312 124.222 180.423 124.3 180.511C124.38 180.598 124.48 180.664 124.599 180.71C124.718 180.753 124.848 180.775 124.989 180.775C125.215 180.775 125.397 180.732 125.535 180.648C125.674 180.563 125.743 180.433 125.743 180.258C125.743 180.134 125.706 180.036 125.633 179.962C125.561 179.886 125.45 179.831 125.298 179.796L124.602 179.624C124.332 179.559 124.115 179.457 123.952 179.319C123.79 179.18 123.709 178.986 123.709 178.737C123.707 178.54 123.753 178.366 123.848 178.217C123.944 178.067 124.087 177.949 124.277 177.863C124.468 177.776 124.705 177.733 124.989 177.733C125.353 177.733 125.647 177.815 125.87 177.98C126.095 178.142 126.212 178.382 126.221 178.698H125.691C125.67 178.538 125.597 178.411 125.473 178.318C125.352 178.222 125.189 178.175 124.983 178.175C124.768 178.175 124.594 178.218 124.459 178.305C124.325 178.389 124.258 178.521 124.258 178.701C124.258 178.82 124.306 178.915 124.401 178.984C124.496 179.051 124.637 179.107 124.823 179.153L125.496 179.322C125.652 179.363 125.78 179.417 125.88 179.484C125.982 179.552 126.062 179.626 126.12 179.709C126.181 179.791 126.223 179.878 126.247 179.969C126.273 180.058 126.286 180.143 126.286 180.225C126.286 180.431 126.234 180.609 126.13 180.758C126.028 180.906 125.881 181.021 125.688 181.103C125.497 181.183 125.265 181.223 124.992 181.223ZM130.259 181.223C130.062 181.223 129.895 181.197 129.759 181.145C129.624 181.093 129.514 181.027 129.427 180.947C129.341 180.865 129.273 180.781 129.226 180.697C129.178 180.61 129.143 180.534 129.122 180.469L129.057 181.158H128.599V176.329H129.203V178.331C129.231 178.274 129.273 178.213 129.33 178.145C129.388 178.078 129.463 178.013 129.554 177.95C129.645 177.888 129.752 177.836 129.876 177.794C130.001 177.753 130.144 177.733 130.305 177.733C130.725 177.733 131.059 177.879 131.306 178.171C131.555 178.464 131.68 178.895 131.68 179.465C131.68 179.818 131.626 180.127 131.52 180.391C131.414 180.653 131.256 180.858 131.046 181.005C130.836 181.151 130.573 181.223 130.259 181.223ZM130.152 180.762C130.425 180.762 130.647 180.657 130.818 180.446C130.989 180.234 131.075 179.897 131.075 179.436C131.075 179.044 130.995 178.74 130.835 178.526C130.676 178.309 130.445 178.201 130.139 178.201C129.916 178.201 129.736 178.249 129.6 178.347C129.465 178.442 129.366 178.582 129.301 178.766C129.238 178.95 129.205 179.174 129.203 179.436C129.203 179.906 129.276 180.245 129.421 180.453C129.568 180.659 129.812 180.762 130.152 180.762ZM132.893 179.618C132.893 179.83 132.928 180.023 132.997 180.196C133.069 180.367 133.176 180.504 133.319 180.606C133.464 180.708 133.645 180.758 133.862 180.758C134.076 180.758 134.26 180.709 134.414 180.609C134.57 180.509 134.67 180.365 134.713 180.177H135.282C135.241 180.404 135.15 180.596 135.009 180.752C134.868 180.908 134.698 181.026 134.499 181.106C134.299 181.184 134.091 181.223 133.875 181.223C133.561 181.223 133.284 181.155 133.046 181.018C132.808 180.882 132.621 180.686 132.487 180.43C132.353 180.175 132.286 179.868 132.286 179.51C132.286 179.157 132.346 178.847 132.468 178.581C132.589 178.314 132.764 178.106 132.994 177.957C133.226 177.807 133.504 177.733 133.829 177.733C134.146 177.733 134.413 177.801 134.632 177.937C134.851 178.074 135.017 178.267 135.129 178.516C135.244 178.763 135.302 179.057 135.302 179.397V179.618H132.893ZM132.897 179.211H134.723C134.723 179.019 134.691 178.845 134.626 178.691C134.561 178.535 134.461 178.413 134.327 178.324C134.194 178.233 134.028 178.188 133.826 178.188C133.616 178.188 133.441 178.239 133.303 178.34C133.166 178.44 133.063 178.569 132.994 178.727C132.927 178.883 132.894 179.045 132.897 179.211ZM136.556 179.618C136.556 179.83 136.591 180.023 136.66 180.196C136.731 180.367 136.839 180.504 136.982 180.606C137.127 180.708 137.308 180.758 137.524 180.758C137.739 180.758 137.923 180.709 138.077 180.609C138.233 180.509 138.333 180.365 138.376 180.177H138.945C138.903 180.404 138.812 180.596 138.672 180.752C138.531 180.908 138.361 181.026 138.161 181.106C137.962 181.184 137.754 181.223 137.537 181.223C137.223 181.223 136.947 181.155 136.709 181.018C136.47 180.882 136.284 180.686 136.15 180.43C136.015 180.175 135.948 179.868 135.948 179.51C135.948 179.157 136.009 178.847 136.13 178.581C136.251 178.314 136.427 178.106 136.657 177.957C136.888 177.807 137.167 177.733 137.492 177.733C137.808 177.733 138.076 177.801 138.295 177.937C138.513 178.074 138.679 178.267 138.792 178.516C138.907 178.763 138.964 179.057 138.964 179.397V179.618H136.556ZM136.559 179.211H138.386C138.386 179.019 138.353 178.845 138.288 178.691C138.223 178.535 138.123 178.413 137.989 178.324C137.857 178.233 137.69 178.188 137.489 178.188C137.278 178.188 137.104 178.239 136.965 178.34C136.829 178.44 136.726 178.569 136.657 178.727C136.589 178.883 136.557 179.045 136.559 179.211ZM139.789 181.158V177.798H140.371V178.285C140.425 178.192 140.5 178.104 140.595 178.022C140.693 177.94 140.81 177.874 140.946 177.824C141.085 177.774 141.244 177.749 141.424 177.749C141.637 177.749 141.832 177.791 142.009 177.876C142.189 177.96 142.332 178.092 142.438 178.272C142.547 178.45 142.601 178.68 142.601 178.961V181.158H141.999V179.02C141.999 178.758 141.93 178.564 141.791 178.438C141.655 178.31 141.477 178.246 141.258 178.246C141.107 178.246 140.965 178.271 140.833 178.321C140.701 178.369 140.593 178.442 140.511 178.542C140.429 178.639 140.387 178.763 140.387 178.912V181.158H139.789ZM145.039 182.205V177.798H145.637L145.643 178.383C145.682 178.313 145.732 178.241 145.793 178.165C145.856 178.089 145.932 178.019 146.02 177.954C146.111 177.889 146.217 177.836 146.336 177.794C146.457 177.753 146.595 177.733 146.748 177.733C147.017 177.733 147.253 177.794 147.457 177.918C147.663 178.039 147.823 178.226 147.938 178.477C148.053 178.728 148.11 179.047 148.11 179.432C148.11 179.818 148.054 180.144 147.941 180.411C147.831 180.675 147.67 180.877 147.46 181.015C147.25 181.154 146.997 181.223 146.7 181.223C146.55 181.223 146.417 181.202 146.3 181.158C146.185 181.117 146.084 181.063 145.998 180.996C145.913 180.926 145.842 180.853 145.783 180.775C145.727 180.697 145.68 180.622 145.643 180.55V182.205H145.039ZM146.586 180.755C146.863 180.755 147.09 180.65 147.265 180.44C147.441 180.228 147.528 179.898 147.528 179.452C147.528 179.068 147.448 178.764 147.288 178.539C147.128 178.313 146.894 178.201 146.586 178.201C146.274 178.201 146.038 178.317 145.877 178.548C145.717 178.778 145.637 179.079 145.637 179.452C145.637 179.692 145.673 179.911 145.744 180.108C145.816 180.306 145.922 180.463 146.063 180.58C146.204 180.697 146.378 180.755 146.586 180.755ZM148.898 181.158V177.798H149.47V178.444C149.527 178.284 149.606 178.152 149.708 178.048C149.809 177.942 149.925 177.863 150.055 177.811C150.188 177.759 150.324 177.733 150.465 177.733C150.515 177.733 150.563 177.736 150.611 177.742C150.659 177.749 150.696 177.76 150.722 177.775V178.357C150.689 178.342 150.647 178.332 150.595 178.327C150.545 178.321 150.503 178.318 150.468 178.318C150.334 178.309 150.208 178.318 150.091 178.344C149.974 178.368 149.871 178.41 149.782 178.47C149.694 178.531 149.623 178.611 149.571 178.711C149.521 178.808 149.496 178.928 149.496 179.068V181.158H148.898ZM152.678 181.223C152.368 181.223 152.097 181.157 151.865 181.025C151.634 180.891 151.454 180.695 151.326 180.437C151.198 180.179 151.134 179.864 151.134 179.491C151.134 179.14 151.194 178.832 151.313 178.568C151.432 178.304 151.607 178.099 151.836 177.954C152.068 177.806 152.349 177.733 152.678 177.733C152.988 177.733 153.256 177.801 153.484 177.937C153.714 178.072 153.891 178.27 154.017 178.532C154.143 178.794 154.205 179.114 154.205 179.491C154.205 179.833 154.147 180.134 154.03 180.394C153.915 180.654 153.744 180.858 153.516 181.005C153.291 181.151 153.012 181.223 152.678 181.223ZM152.678 180.749C152.879 180.749 153.05 180.698 153.188 180.596C153.327 180.494 153.432 180.348 153.503 180.157C153.575 179.967 153.611 179.74 153.611 179.478C153.611 179.237 153.579 179.022 153.516 178.831C153.454 178.638 153.353 178.486 153.214 178.373C153.078 178.26 152.899 178.204 152.678 178.204C152.474 178.204 152.302 178.255 152.161 178.357C152.02 178.456 151.913 178.602 151.839 178.792C151.768 178.983 151.732 179.211 151.732 179.478C151.732 179.714 151.765 179.929 151.83 180.121C151.895 180.314 151.997 180.467 152.135 180.58C152.274 180.692 152.455 180.749 152.678 180.749ZM156.331 177.733C156.572 177.733 156.788 177.779 156.981 177.872C157.174 177.963 157.331 178.093 157.452 178.262C157.576 178.431 157.653 178.631 157.683 178.86H157.15C157.131 178.743 157.085 178.636 157.014 178.539C156.944 178.441 156.852 178.363 156.737 178.305C156.623 178.246 156.488 178.217 156.334 178.217C156.046 178.217 155.812 178.321 155.632 178.529C155.453 178.737 155.363 179.055 155.363 179.484C155.363 179.872 155.445 180.183 155.61 180.417C155.776 180.649 156.021 180.765 156.344 180.765C156.498 180.765 156.631 180.736 156.744 180.677C156.859 180.617 156.951 180.537 157.02 180.44C157.089 180.34 157.134 180.234 157.153 180.121H157.677C157.648 180.347 157.573 180.542 157.449 180.706C157.326 180.871 157.167 180.999 156.975 181.09C156.784 181.179 156.569 181.223 156.331 181.223C156.03 181.223 155.762 181.157 155.528 181.025C155.297 180.893 155.115 180.698 154.982 180.44C154.85 180.182 154.784 179.866 154.784 179.491C154.784 179.14 154.844 178.833 154.963 178.571C155.084 178.307 155.26 178.101 155.489 177.954C155.721 177.806 156.002 177.733 156.331 177.733ZM158.925 179.618C158.925 179.83 158.96 180.023 159.029 180.196C159.101 180.367 159.208 180.504 159.351 180.606C159.496 180.708 159.677 180.758 159.894 180.758C160.108 180.758 160.292 180.709 160.446 180.609C160.602 180.509 160.702 180.365 160.745 180.177H161.314C161.273 180.404 161.182 180.596 161.041 180.752C160.9 180.908 160.73 181.026 160.531 181.106C160.331 181.184 160.123 181.223 159.907 181.223C159.592 181.223 159.316 181.155 159.078 181.018C158.839 180.882 158.653 180.686 158.519 180.43C158.384 180.175 158.317 179.868 158.317 179.51C158.317 179.157 158.378 178.847 158.499 178.581C158.621 178.314 158.796 178.106 159.026 177.957C159.258 177.807 159.536 177.733 159.861 177.733C160.177 177.733 160.445 177.801 160.664 177.937C160.883 178.074 161.048 178.267 161.161 178.516C161.276 178.763 161.333 179.057 161.333 179.397V179.618H158.925ZM158.928 179.211H160.755C160.755 179.019 160.722 178.845 160.657 178.691C160.592 178.535 160.493 178.413 160.358 178.324C160.226 178.233 160.059 178.188 159.858 178.188C159.648 178.188 159.473 178.239 159.335 178.34C159.198 178.44 159.095 178.569 159.026 178.727C158.959 178.883 158.926 179.045 158.928 179.211ZM163.326 181.223C163.092 181.223 162.874 181.187 162.673 181.116C162.473 181.042 162.308 180.929 162.175 180.775C162.043 180.619 161.96 180.42 161.925 180.18H162.471C162.502 180.312 162.556 180.423 162.634 180.511C162.714 180.598 162.814 180.664 162.933 180.71C163.052 180.753 163.182 180.775 163.323 180.775C163.548 180.775 163.73 180.732 163.869 180.648C164.007 180.563 164.077 180.433 164.077 180.258C164.077 180.134 164.04 180.036 163.966 179.962C163.895 179.886 163.783 179.831 163.631 179.796L162.936 179.624C162.665 179.559 162.448 179.457 162.286 179.319C162.123 179.18 162.042 178.986 162.042 178.737C162.04 178.54 162.087 178.366 162.182 178.217C162.277 178.067 162.42 177.949 162.611 177.863C162.802 177.776 163.039 177.733 163.323 177.733C163.687 177.733 163.98 177.815 164.203 177.98C164.429 178.142 164.546 178.382 164.554 178.698H164.025C164.003 178.538 163.93 178.411 163.807 178.318C163.686 178.222 163.522 178.175 163.316 178.175C163.102 178.175 162.927 178.218 162.793 178.305C162.659 178.389 162.591 178.521 162.591 178.701C162.591 178.82 162.639 178.915 162.734 178.984C162.83 179.051 162.971 179.107 163.157 179.153L163.83 179.322C163.986 179.363 164.114 179.417 164.213 179.484C164.315 179.552 164.395 179.626 164.454 179.709C164.514 179.791 164.557 179.878 164.58 179.969C164.606 180.058 164.619 180.143 164.619 180.225C164.619 180.431 164.567 180.609 164.463 180.758C164.362 180.906 164.214 181.021 164.021 181.103C163.831 181.183 163.599 181.223 163.326 181.223ZM166.595 181.223C166.361 181.223 166.143 181.187 165.942 181.116C165.742 181.042 165.577 180.929 165.445 180.775C165.312 180.619 165.229 180.42 165.194 180.18H165.74C165.771 180.312 165.825 180.423 165.903 180.511C165.983 180.598 166.083 180.664 166.202 180.71C166.321 180.753 166.451 180.775 166.592 180.775C166.817 180.775 166.999 180.732 167.138 180.648C167.276 180.563 167.346 180.433 167.346 180.258C167.346 180.134 167.309 180.036 167.235 179.962C167.164 179.886 167.052 179.831 166.901 179.796L166.205 179.624C165.934 179.559 165.718 179.457 165.555 179.319C165.393 179.18 165.311 178.986 165.311 178.737C165.309 178.54 165.356 178.366 165.451 178.217C165.546 178.067 165.689 177.949 165.88 177.863C166.071 177.776 166.308 177.733 166.592 177.733C166.956 177.733 167.249 177.815 167.473 177.98C167.698 178.142 167.815 178.382 167.824 178.698H167.294C167.272 178.538 167.2 178.411 167.076 178.318C166.955 178.222 166.791 178.175 166.585 178.175C166.371 178.175 166.196 178.218 166.062 178.305C165.928 178.389 165.861 178.521 165.861 178.701C165.861 178.82 165.908 178.915 166.004 178.984C166.099 179.051 166.24 179.107 166.426 179.153L167.099 179.322C167.255 179.363 167.383 179.417 167.482 179.484C167.584 179.552 167.664 179.626 167.723 179.709C167.783 179.791 167.826 179.878 167.85 179.969C167.876 180.058 167.889 180.143 167.889 180.225C167.889 180.431 167.837 180.609 167.733 180.758C167.631 180.906 167.483 181.021 167.291 181.103C167.1 181.183 166.868 181.223 166.595 181.223ZM169.157 179.618C169.157 179.83 169.192 180.023 169.261 180.196C169.333 180.367 169.44 180.504 169.583 180.606C169.728 180.708 169.909 180.758 170.126 180.758C170.34 180.758 170.525 180.709 170.678 180.609C170.834 180.509 170.934 180.365 170.977 180.177H171.546C171.505 180.404 171.414 180.596 171.273 180.752C171.132 180.908 170.962 181.026 170.763 181.106C170.564 181.184 170.356 181.223 170.139 181.223C169.825 181.223 169.549 181.155 169.31 181.018C169.072 180.882 168.886 180.686 168.751 180.43C168.617 180.175 168.55 179.868 168.55 179.51C168.55 179.157 168.61 178.847 168.732 178.581C168.853 178.314 169.029 178.106 169.258 177.957C169.49 177.807 169.768 177.733 170.093 177.733C170.41 177.733 170.677 177.801 170.896 177.937C171.115 178.074 171.281 178.267 171.393 178.516C171.508 178.763 171.566 179.057 171.566 179.397V179.618H169.157ZM169.161 179.211H170.987C170.987 179.019 170.955 178.845 170.89 178.691C170.825 178.535 170.725 178.413 170.591 178.324C170.459 178.233 170.292 178.188 170.09 178.188C169.88 178.188 169.706 178.239 169.567 178.34C169.43 178.44 169.328 178.569 169.258 178.727C169.191 178.883 169.159 179.045 169.161 179.211ZM173.603 181.223C173.168 181.223 172.822 181.074 172.567 180.775C172.311 180.476 172.183 180.039 172.183 179.465C172.183 179.116 172.234 178.812 172.336 178.552C172.44 178.292 172.594 178.09 172.797 177.947C173.001 177.804 173.254 177.733 173.558 177.733C173.718 177.733 173.86 177.753 173.984 177.794C174.109 177.836 174.218 177.888 174.309 177.95C174.4 178.013 174.473 178.078 174.53 178.145C174.588 178.213 174.631 178.274 174.66 178.331V176.329H175.264V181.158H174.806L174.741 180.469C174.719 180.534 174.684 180.61 174.637 180.697C174.589 180.781 174.522 180.865 174.435 180.947C174.349 181.027 174.237 181.093 174.101 181.145C173.966 181.197 173.8 181.223 173.603 181.223ZM173.711 180.762C174.051 180.762 174.293 180.659 174.439 180.453C174.586 180.245 174.66 179.906 174.66 179.436C174.657 179.174 174.624 178.95 174.559 178.766C174.496 178.582 174.396 178.442 174.26 178.347C174.125 178.249 173.947 178.201 173.724 178.201C173.446 178.201 173.221 178.299 173.048 178.496C172.874 178.694 172.788 179.007 172.788 179.436C172.788 179.856 172.866 180.182 173.022 180.414C173.18 180.646 173.409 180.762 173.711 180.762ZM176.117 181.158V180.391H176.832V181.158H176.117ZM75.597 185.011V184.459H79.1525V185.011H77.7193V189.158H77.1148V185.011H75.597ZM79.8041 189.158V184.329H80.3891V186.292C80.4455 186.199 80.5213 186.112 80.6166 186.032C80.712 185.949 80.8279 185.883 80.9644 185.833C81.1009 185.781 81.2591 185.755 81.4389 185.755C81.6577 185.755 81.856 185.797 82.0336 185.879C82.2113 185.959 82.3521 186.074 82.4561 186.223C82.5601 186.373 82.6121 186.551 82.6121 186.756V189.158H82.0109V186.877C82.0109 186.675 81.9416 186.52 81.8029 186.412C81.6664 186.301 81.4876 186.246 81.2666 186.246C81.1171 186.246 80.9763 186.271 80.8441 186.321C80.712 186.369 80.6047 186.442 80.5224 186.542C80.4422 186.639 80.4021 186.764 80.4021 186.916V189.158H79.8041ZM83.9783 187.618C83.9783 187.83 84.0129 188.023 84.0823 188.196C84.1538 188.367 84.261 188.504 84.404 188.606C84.5492 188.708 84.7301 188.758 84.9468 188.758C85.1613 188.758 85.3454 188.709 85.4993 188.609C85.6553 188.509 85.7549 188.365 85.7983 188.177H86.367C86.3258 188.404 86.2348 188.596 86.094 188.752C85.9532 188.908 85.7831 189.026 85.5838 189.106C85.3844 189.184 85.1764 189.223 84.9598 189.223C84.6456 189.223 84.3693 189.155 84.131 189.018C83.8927 188.882 83.7063 188.686 83.572 188.43C83.4377 188.175 83.3705 187.868 83.3705 187.51C83.3705 187.157 83.4312 186.847 83.5525 186.581C83.6738 186.314 83.8493 186.106 84.079 185.957C84.3108 185.807 84.5893 185.733 84.9143 185.733C85.2306 185.733 85.4982 185.801 85.717 185.937C85.9358 186.074 86.1016 186.267 86.2143 186.516C86.3291 186.763 86.3865 187.057 86.3865 187.397V187.618H83.9783ZM83.9815 187.211H85.808C85.808 187.019 85.7755 186.845 85.7105 186.691C85.6455 186.535 85.5458 186.413 85.4115 186.324C85.2793 186.233 85.1125 186.188 84.911 186.188C84.7008 186.188 84.5264 186.239 84.3878 186.34C84.2513 186.44 84.1483 186.569 84.079 186.727C84.0118 186.883 83.9793 187.045 83.9815 187.211ZM90.3728 186.236H89.6155V188.326C89.6155 188.445 89.6274 188.533 89.6513 188.589C89.6773 188.644 89.7195 188.678 89.778 188.693C89.8387 188.709 89.921 188.716 90.025 188.716H90.3923V189.119C90.3511 189.134 90.2883 189.147 90.2038 189.158C90.1214 189.169 90.0185 189.174 89.895 189.174C89.6632 189.174 89.4834 189.143 89.3555 189.08C89.2277 189.017 89.1378 188.924 89.0858 188.801C89.0359 188.677 89.011 188.526 89.011 188.346V186.236H88.465V185.798H89.0273L89.1735 184.819H89.6155V185.794H90.3728V186.236ZM92.4831 189.223C92.1733 189.223 91.9025 189.157 91.6706 189.025C91.4388 188.891 91.259 188.695 91.1311 188.437C91.0033 188.179 90.9394 187.864 90.9394 187.491C90.9394 187.14 90.999 186.832 91.1181 186.568C91.2373 186.304 91.4117 186.099 91.6414 185.954C91.8732 185.806 92.1538 185.733 92.4831 185.733C92.793 185.733 93.0616 185.801 93.2891 185.937C93.5188 186.072 93.6965 186.27 93.8221 186.532C93.9478 186.794 94.0106 187.114 94.0106 187.491C94.0106 187.833 93.9521 188.134 93.8351 188.394C93.7203 188.654 93.5491 188.858 93.3216 189.005C93.0963 189.151 92.8168 189.223 92.4831 189.223ZM92.4831 188.749C92.6846 188.749 92.8547 188.698 92.9934 188.596C93.1321 188.494 93.2371 188.348 93.3086 188.157C93.3801 187.967 93.4159 187.74 93.4159 187.478C93.4159 187.237 93.3845 187.022 93.3216 186.831C93.2588 186.638 93.1581 186.486 93.0194 186.373C92.8829 186.26 92.7041 186.204 92.4831 186.204C92.2795 186.204 92.1072 186.255 91.9664 186.357C91.8256 186.456 91.7183 186.602 91.6446 186.792C91.5731 186.983 91.5374 187.211 91.5374 187.478C91.5374 187.714 91.5699 187.929 91.6349 188.121C91.6999 188.314 91.8017 188.467 91.9404 188.58C92.0791 188.692 92.26 188.749 92.4831 188.749ZM96.3967 186.236H95.6395V188.326C95.6395 188.445 95.6514 188.533 95.6752 188.589C95.7012 188.644 95.7435 188.678 95.802 188.693C95.8626 188.709 95.945 188.716 96.049 188.716H96.4162V189.119C96.375 189.134 96.3122 189.147 96.2277 189.158C96.1454 189.169 96.0425 189.174 95.919 189.174C95.6871 189.174 95.5073 189.143 95.3795 189.08C95.2516 189.017 95.1617 188.924 95.1097 188.801C95.0599 188.677 95.035 188.526 95.035 188.346V186.236H94.489V185.798H95.0512L95.1975 184.819H95.6395V185.794H96.3967V186.236ZM98.1643 189.223C97.9476 189.223 97.7559 189.185 97.589 189.109C97.4222 189.031 97.2911 188.92 97.1958 188.775C97.1026 188.63 97.056 188.454 97.056 188.248C97.056 187.876 97.186 187.598 97.446 187.416C97.706 187.234 98.1231 187.137 98.6973 187.124L99.2985 187.107V186.844C99.2985 186.638 99.2368 186.476 99.1133 186.357C98.9898 186.235 98.798 186.175 98.538 186.175C98.3452 186.177 98.1751 186.222 98.0278 186.311C97.8826 186.4 97.7884 186.545 97.745 186.747H97.2153C97.2283 186.528 97.29 186.344 97.4005 186.194C97.511 186.043 97.6649 185.928 97.862 185.85C98.0614 185.772 98.2965 185.733 98.5673 185.733C98.8598 185.733 99.1025 185.774 99.2953 185.856C99.4903 185.939 99.6355 186.06 99.7308 186.22C99.8283 186.381 99.877 186.578 99.877 186.812V189.158H99.3635L99.3213 188.528C99.1913 188.79 99.0255 188.972 98.824 189.074C98.6247 189.173 98.4048 189.223 98.1643 189.223ZM98.3463 188.791C98.459 188.791 98.5705 188.77 98.681 188.729C98.7937 188.688 98.8966 188.633 98.9898 188.563C99.083 188.492 99.1566 188.413 99.2108 188.326C99.2671 188.237 99.2964 188.146 99.2985 188.053V187.478L98.798 187.488C98.5424 187.492 98.3279 187.518 98.1545 187.566C97.9834 187.613 97.8545 187.688 97.7678 187.79C97.6833 187.892 97.641 188.025 97.641 188.19C97.641 188.378 97.706 188.526 97.836 188.632C97.9682 188.738 98.1383 188.791 98.3463 188.791ZM101.752 189.2C101.57 189.2 101.423 189.176 101.31 189.126C101.199 189.076 101.114 189.009 101.053 188.924C100.995 188.84 100.955 188.743 100.933 188.635C100.913 188.524 100.904 188.411 100.904 188.294V184.329H101.495V188.235C101.495 188.404 101.528 188.531 101.593 188.615C101.66 188.7 101.753 188.747 101.872 188.755L102.054 188.758V189.148C102.004 189.164 101.952 189.176 101.898 189.184C101.844 189.195 101.795 189.2 101.752 189.2ZM105.267 189.223C105.051 189.223 104.859 189.185 104.692 189.109C104.525 189.031 104.394 188.92 104.299 188.775C104.206 188.63 104.159 188.454 104.159 188.248C104.159 187.876 104.289 187.598 104.549 187.416C104.809 187.234 105.226 187.137 105.8 187.124L106.402 187.107V186.844C106.402 186.638 106.34 186.476 106.216 186.357C106.093 186.235 105.901 186.175 105.641 186.175C105.448 186.177 105.278 186.222 105.131 186.311C104.986 186.4 104.891 186.545 104.848 186.747H104.318C104.331 186.528 104.393 186.344 104.504 186.194C104.614 186.043 104.768 185.928 104.965 185.85C105.164 185.772 105.399 185.733 105.67 185.733C105.963 185.733 106.205 185.774 106.398 185.856C106.593 185.939 106.738 186.06 106.834 186.22C106.931 186.381 106.98 186.578 106.98 186.812V189.158H106.467L106.424 188.528C106.294 188.79 106.129 188.972 105.927 189.074C105.728 189.173 105.508 189.223 105.267 189.223ZM105.449 188.791C105.562 188.791 105.674 188.77 105.784 188.729C105.897 188.688 106 188.633 106.093 188.563C106.186 188.492 106.26 188.413 106.314 188.326C106.37 188.237 106.399 188.146 106.402 188.053V187.478L105.901 187.488C105.645 187.492 105.431 187.518 105.258 187.566C105.086 187.613 104.957 187.688 104.871 187.79C104.786 187.892 104.744 188.025 104.744 188.19C104.744 188.378 104.809 188.526 104.939 188.632C105.071 188.738 105.241 188.791 105.449 188.791ZM108.007 189.158V185.798H108.585V186.285C108.678 186.138 108.806 186.009 108.969 185.898C109.131 185.788 109.343 185.733 109.603 185.733C109.724 185.733 109.847 185.753 109.973 185.794C110.101 185.836 110.218 185.897 110.324 185.98C110.43 186.062 110.513 186.163 110.571 186.282C110.675 186.117 110.816 185.985 110.994 185.885C111.171 185.784 111.372 185.733 111.595 185.733C111.712 185.733 111.834 185.751 111.962 185.788C112.09 185.823 112.208 185.885 112.316 185.976C112.427 186.065 112.517 186.19 112.586 186.35C112.655 186.508 112.69 186.712 112.69 186.961V189.158H112.086V187.02C112.086 186.816 112.053 186.659 111.988 186.548C111.923 186.436 111.837 186.357 111.731 186.311C111.627 186.266 111.516 186.243 111.397 186.243C111.293 186.243 111.182 186.264 111.065 186.305C110.948 186.346 110.848 186.415 110.766 186.513C110.684 186.61 110.643 186.743 110.643 186.912V189.158H110.045V186.844C110.045 186.712 110.009 186.602 109.937 186.513C109.868 186.424 109.78 186.357 109.674 186.311C109.57 186.266 109.466 186.243 109.362 186.243C109.247 186.243 109.131 186.266 109.014 186.311C108.899 186.357 108.802 186.429 108.722 186.529C108.644 186.626 108.605 186.754 108.605 186.912V189.158H108.007ZM114.967 189.223C114.657 189.223 114.386 189.157 114.154 189.025C113.922 188.891 113.742 188.695 113.615 188.437C113.487 188.179 113.423 187.864 113.423 187.491C113.423 187.14 113.482 186.832 113.602 186.568C113.721 186.304 113.895 186.099 114.125 185.954C114.357 185.806 114.637 185.733 114.967 185.733C115.276 185.733 115.545 185.801 115.773 185.937C116.002 186.072 116.18 186.27 116.306 186.532C116.431 186.794 116.494 187.114 116.494 187.491C116.494 187.833 116.436 188.134 116.319 188.394C116.204 188.654 116.033 188.858 115.805 189.005C115.58 189.151 115.3 189.223 114.967 189.223ZM114.967 188.749C115.168 188.749 115.338 188.698 115.477 188.596C115.615 188.494 115.721 188.348 115.792 188.157C115.864 187.967 115.899 187.74 115.899 187.478C115.899 187.237 115.868 187.022 115.805 186.831C115.742 186.638 115.641 186.486 115.503 186.373C115.366 186.26 115.188 186.204 114.967 186.204C114.763 186.204 114.591 186.255 114.45 186.357C114.309 186.456 114.202 186.602 114.128 186.792C114.057 186.983 114.021 187.211 114.021 187.478C114.021 187.714 114.053 187.929 114.118 188.121C114.183 188.314 114.285 188.467 114.424 188.58C114.562 188.692 114.743 188.749 114.967 188.749ZM118.459 189.223C118.283 189.221 118.117 189.196 117.961 189.148C117.807 189.099 117.671 189.026 117.552 188.931C117.433 188.835 117.338 188.717 117.269 188.576C117.202 188.433 117.168 188.268 117.168 188.079V185.798H117.77V188.017C117.77 188.236 117.837 188.414 117.971 188.55C118.108 188.687 118.312 188.755 118.585 188.755C118.832 188.755 119.031 188.691 119.18 188.563C119.332 188.433 119.408 188.241 119.408 187.985V185.798H120.006V189.158H119.528L119.466 188.515C119.425 188.684 119.354 188.82 119.255 188.924C119.157 189.028 119.039 189.105 118.901 189.155C118.764 189.203 118.617 189.225 118.459 189.223ZM120.988 189.158V185.798H121.569V186.285C121.624 186.192 121.698 186.104 121.794 186.022C121.891 185.94 122.008 185.874 122.145 185.824C122.283 185.774 122.443 185.749 122.622 185.749C122.835 185.749 123.03 185.791 123.207 185.876C123.387 185.96 123.53 186.092 123.636 186.272C123.745 186.45 123.799 186.68 123.799 186.961V189.158H123.198V187.02C123.198 186.758 123.128 186.564 122.99 186.438C122.853 186.31 122.676 186.246 122.457 186.246C122.305 186.246 122.163 186.271 122.031 186.321C121.899 186.369 121.792 186.442 121.709 186.542C121.627 186.639 121.586 186.763 121.586 186.912V189.158H120.988ZM126.288 186.236H125.531V188.326C125.531 188.445 125.542 188.533 125.566 188.589C125.592 188.644 125.635 188.678 125.693 188.693C125.754 188.709 125.836 188.716 125.94 188.716H126.307V189.119C126.266 189.134 126.203 189.147 126.119 189.158C126.036 189.169 125.934 189.174 125.81 189.174C125.578 189.174 125.398 189.143 125.271 189.08C125.143 189.017 125.053 188.924 125.001 188.801C124.951 188.677 124.926 188.526 124.926 188.346V186.236H124.38V185.798H124.942L125.089 184.819H125.531V185.794H126.288V186.236ZM129.779 189.223C129.344 189.223 128.998 189.074 128.742 188.775C128.487 188.476 128.359 188.039 128.359 187.465C128.359 187.116 128.41 186.812 128.512 186.552C128.616 186.292 128.769 186.09 128.973 185.947C129.177 185.804 129.43 185.733 129.734 185.733C129.894 185.733 130.036 185.753 130.159 185.794C130.285 185.836 130.393 185.888 130.484 185.95C130.575 186.013 130.649 186.078 130.705 186.145C130.764 186.213 130.807 186.274 130.835 186.331V184.329H131.44V189.158H130.982L130.917 188.469C130.895 188.534 130.86 188.61 130.813 188.697C130.765 188.781 130.698 188.865 130.611 188.947C130.524 189.027 130.413 189.093 130.276 189.145C130.142 189.197 129.976 189.223 129.779 189.223ZM129.886 188.762C130.226 188.762 130.469 188.659 130.614 188.453C130.762 188.245 130.835 187.906 130.835 187.436C130.833 187.174 130.8 186.95 130.735 186.766C130.672 186.582 130.572 186.442 130.436 186.347C130.301 186.249 130.122 186.201 129.899 186.201C129.622 186.201 129.397 186.299 129.223 186.496C129.05 186.694 128.963 187.007 128.963 187.436C128.963 187.856 129.041 188.182 129.197 188.414C129.355 188.646 129.585 188.762 129.886 188.762ZM132.862 187.618C132.862 187.83 132.896 188.023 132.966 188.196C133.037 188.367 133.144 188.504 133.287 188.606C133.432 188.708 133.613 188.758 133.83 188.758C134.045 188.758 134.229 188.709 134.383 188.609C134.539 188.509 134.638 188.365 134.682 188.177H135.25C135.209 188.404 135.118 188.596 134.977 188.752C134.836 188.908 134.666 189.026 134.467 189.106C134.268 189.184 134.06 189.223 133.843 189.223C133.529 189.223 133.253 189.155 133.014 189.018C132.776 188.882 132.59 188.686 132.455 188.43C132.321 188.175 132.254 187.868 132.254 187.51C132.254 187.157 132.314 186.847 132.436 186.581C132.557 186.314 132.733 186.106 132.962 185.957C133.194 185.807 133.473 185.733 133.798 185.733C134.114 185.733 134.381 185.801 134.6 185.937C134.819 186.074 134.985 186.267 135.098 186.516C135.212 186.763 135.27 187.057 135.27 187.397V187.618H132.862ZM132.865 187.211H134.691C134.691 187.019 134.659 186.845 134.594 186.691C134.529 186.535 134.429 186.413 134.295 186.324C134.163 186.233 133.996 186.188 133.794 186.188C133.584 186.188 133.41 186.239 133.271 186.34C133.135 186.44 133.032 186.569 132.962 186.727C132.895 186.883 132.863 187.045 132.865 187.211ZM137.307 189.223C136.872 189.223 136.526 189.074 136.271 188.775C136.015 188.476 135.887 188.039 135.887 187.465C135.887 187.116 135.938 186.812 136.04 186.552C136.144 186.292 136.298 186.09 136.501 185.947C136.705 185.804 136.959 185.733 137.262 185.733C137.422 185.733 137.564 185.753 137.688 185.794C137.813 185.836 137.922 185.888 138.013 185.95C138.104 186.013 138.177 186.078 138.234 186.145C138.292 186.213 138.335 186.274 138.364 186.331V184.329H138.968V189.158H138.51L138.445 188.469C138.423 188.534 138.389 188.61 138.341 188.697C138.293 188.781 138.226 188.865 138.139 188.947C138.053 189.027 137.941 189.093 137.805 189.145C137.67 189.197 137.505 189.223 137.307 189.223ZM137.415 188.762C137.755 188.762 137.997 188.659 138.143 188.453C138.29 188.245 138.364 187.906 138.364 187.436C138.361 187.174 138.328 186.95 138.263 186.766C138.2 186.582 138.1 186.442 137.964 186.347C137.83 186.249 137.651 186.201 137.428 186.201C137.15 186.201 136.925 186.299 136.752 186.496C136.578 186.694 136.492 187.007 136.492 187.436C136.492 187.856 136.57 188.182 136.726 188.414C136.884 188.646 137.113 188.762 137.415 188.762ZM141.196 189.223C141.02 189.221 140.855 189.196 140.699 189.148C140.545 189.099 140.408 189.026 140.289 188.931C140.17 188.835 140.076 188.717 140.006 188.576C139.939 188.433 139.906 188.268 139.906 188.079V185.798H140.507V188.017C140.507 188.236 140.574 188.414 140.708 188.55C140.845 188.687 141.05 188.755 141.323 188.755C141.57 188.755 141.768 188.691 141.917 188.563C142.069 188.433 142.145 188.241 142.145 187.985V185.798H142.743V189.158H142.265L142.203 188.515C142.162 188.684 142.092 188.82 141.992 188.924C141.895 189.028 141.777 189.105 141.638 189.155C141.501 189.203 141.354 189.225 141.196 189.223ZM145.02 185.733C145.26 185.733 145.477 185.779 145.67 185.872C145.862 185.963 146.02 186.093 146.141 186.262C146.264 186.431 146.341 186.631 146.372 186.86H145.839C145.819 186.743 145.774 186.636 145.702 186.539C145.633 186.441 145.541 186.363 145.426 186.305C145.311 186.246 145.177 186.217 145.023 186.217C144.735 186.217 144.501 186.321 144.321 186.529C144.141 186.737 144.051 187.055 144.051 187.484C144.051 187.872 144.133 188.183 144.298 188.417C144.465 188.649 144.71 188.765 145.033 188.765C145.186 188.765 145.32 188.736 145.432 188.677C145.547 188.617 145.639 188.537 145.709 188.44C145.778 188.34 145.822 188.234 145.842 188.121H146.365C146.337 188.347 146.261 188.542 146.138 188.706C146.014 188.871 145.856 188.999 145.663 189.09C145.472 189.179 145.258 189.223 145.02 189.223C144.718 189.223 144.451 189.157 144.217 189.025C143.985 188.893 143.803 188.698 143.671 188.44C143.539 188.182 143.473 187.866 143.473 187.491C143.473 187.14 143.532 186.833 143.651 186.571C143.773 186.307 143.948 186.101 144.178 185.954C144.41 185.806 144.69 185.733 145.02 185.733ZM148.784 186.236H148.027V188.326C148.027 188.445 148.039 188.533 148.062 188.589C148.088 188.644 148.131 188.678 148.189 188.693C148.25 188.709 148.332 188.716 148.436 188.716H148.803V189.119C148.762 189.134 148.699 189.147 148.615 189.158C148.533 189.169 148.43 189.174 148.306 189.174C148.074 189.174 147.894 189.143 147.767 189.08C147.639 189.017 147.549 188.924 147.497 188.801C147.447 188.677 147.422 188.526 147.422 188.346V186.236H146.876V185.798H147.438L147.585 184.819H148.027V185.794H148.784V186.236ZM149.988 187.618C149.988 187.83 150.022 188.023 150.092 188.196C150.163 188.367 150.27 188.504 150.413 188.606C150.558 188.708 150.739 188.758 150.956 188.758C151.171 188.758 151.355 188.709 151.509 188.609C151.665 188.509 151.764 188.365 151.808 188.177H152.376C152.335 188.404 152.244 188.596 152.103 188.752C151.962 188.908 151.792 189.026 151.593 189.106C151.394 189.184 151.186 189.223 150.969 189.223C150.655 189.223 150.379 189.155 150.14 189.018C149.902 188.882 149.716 188.686 149.581 188.43C149.447 188.175 149.38 187.868 149.38 187.51C149.38 187.157 149.44 186.847 149.562 186.581C149.683 186.314 149.859 186.106 150.088 185.957C150.32 185.807 150.599 185.733 150.924 185.733C151.24 185.733 151.507 185.801 151.726 185.937C151.945 186.074 152.111 186.267 152.224 186.516C152.338 186.763 152.396 187.057 152.396 187.397V187.618H149.988ZM149.991 187.211H151.817C151.817 187.019 151.785 186.845 151.72 186.691C151.655 186.535 151.555 186.413 151.421 186.324C151.289 186.233 151.122 186.188 150.92 186.188C150.71 186.188 150.536 186.239 150.397 186.34C150.261 186.44 150.158 186.569 150.088 186.727C150.021 186.883 149.989 187.045 149.991 187.211ZM154.433 189.223C153.998 189.223 153.652 189.074 153.397 188.775C153.141 188.476 153.013 188.039 153.013 187.465C153.013 187.116 153.064 186.812 153.166 186.552C153.27 186.292 153.424 186.09 153.627 185.947C153.831 185.804 154.085 185.733 154.388 185.733C154.548 185.733 154.69 185.753 154.814 185.794C154.939 185.836 155.048 185.888 155.139 185.95C155.23 186.013 155.303 186.078 155.36 186.145C155.418 186.213 155.461 186.274 155.49 186.331V184.329H156.094V189.158H155.636L155.571 188.469C155.549 188.534 155.515 188.61 155.467 188.697C155.419 188.781 155.352 188.865 155.265 188.947C155.179 189.027 155.067 189.093 154.931 189.145C154.796 189.197 154.631 189.223 154.433 189.223ZM154.541 188.762C154.881 188.762 155.123 188.659 155.269 188.453C155.416 188.245 155.49 187.906 155.49 187.436C155.487 187.174 155.454 186.95 155.389 186.766C155.326 186.582 155.226 186.442 155.09 186.347C154.956 186.249 154.777 186.201 154.554 186.201C154.276 186.201 154.051 186.299 153.878 186.496C153.704 186.694 153.618 187.007 153.618 187.436C153.618 187.856 153.696 188.182 153.852 188.414C154.01 188.646 154.239 188.762 154.541 188.762ZM160.483 185.798V186.236H159.667V189.158H159.063V186.236H158.354V185.798H159.063V185.278C159.063 185.011 159.131 184.809 159.267 184.67C159.404 184.529 159.608 184.459 159.878 184.459H160.512L160.515 184.884H160.012C159.875 184.884 159.782 184.921 159.732 184.995C159.682 185.069 159.657 185.18 159.657 185.33V185.798H160.483ZM161.226 189.158V185.798H161.798V186.444C161.854 186.284 161.933 186.152 162.035 186.048C162.137 185.942 162.253 185.863 162.383 185.811C162.515 185.759 162.651 185.733 162.792 185.733C162.842 185.733 162.891 185.736 162.938 185.742C162.986 185.749 163.023 185.76 163.049 185.775V186.357C163.016 186.342 162.974 186.332 162.922 186.327C162.872 186.321 162.83 186.318 162.795 186.318C162.661 186.309 162.535 186.318 162.418 186.344C162.301 186.368 162.198 186.41 162.11 186.47C162.021 186.531 161.95 186.611 161.898 186.711C161.848 186.808 161.824 186.928 161.824 187.068V189.158H161.226ZM165.005 189.223C164.695 189.223 164.424 189.157 164.193 189.025C163.961 188.891 163.781 188.695 163.653 188.437C163.525 188.179 163.461 187.864 163.461 187.491C163.461 187.14 163.521 186.832 163.64 186.568C163.759 186.304 163.934 186.099 164.163 185.954C164.395 185.806 164.676 185.733 165.005 185.733C165.315 185.733 165.584 185.801 165.811 185.937C166.041 186.072 166.218 186.27 166.344 186.532C166.47 186.794 166.533 187.114 166.533 187.491C166.533 187.833 166.474 188.134 166.357 188.394C166.242 188.654 166.071 188.858 165.844 189.005C165.618 189.151 165.339 189.223 165.005 189.223ZM165.005 188.749C165.207 188.749 165.377 188.698 165.515 188.596C165.654 188.494 165.759 188.348 165.831 188.157C165.902 187.967 165.938 187.74 165.938 187.478C165.938 187.237 165.906 187.022 165.844 186.831C165.781 186.638 165.68 186.486 165.541 186.373C165.405 186.26 165.226 186.204 165.005 186.204C164.801 186.204 164.629 186.255 164.488 186.357C164.348 186.456 164.24 186.602 164.167 186.792C164.095 186.983 164.059 187.211 164.059 187.478C164.059 187.714 164.092 187.929 164.157 188.121C164.222 188.314 164.324 188.467 164.462 188.58C164.601 188.692 164.782 188.749 165.005 188.749ZM167.319 189.158V185.798H167.898V186.285C167.991 186.138 168.119 186.009 168.281 185.898C168.444 185.788 168.655 185.733 168.915 185.733C169.036 185.733 169.16 185.753 169.286 185.794C169.413 185.836 169.53 185.897 169.637 185.98C169.743 186.062 169.825 186.163 169.884 186.282C169.988 186.117 170.128 185.985 170.306 185.885C170.484 185.784 170.684 185.733 170.907 185.733C171.024 185.733 171.147 185.751 171.275 185.788C171.402 185.823 171.52 185.885 171.629 185.976C171.739 186.065 171.829 186.19 171.899 186.35C171.968 186.508 172.003 186.712 172.003 186.961V189.158H171.398V187.02C171.398 186.816 171.366 186.659 171.301 186.548C171.236 186.436 171.15 186.357 171.044 186.311C170.94 186.266 170.828 186.243 170.709 186.243C170.605 186.243 170.495 186.264 170.378 186.305C170.261 186.346 170.161 186.415 170.079 186.513C169.996 186.61 169.955 186.743 169.955 186.912V189.158H169.357V186.844C169.357 186.712 169.321 186.602 169.25 186.513C169.18 186.424 169.093 186.357 168.987 186.311C168.883 186.266 168.779 186.243 168.675 186.243C168.56 186.243 168.444 186.266 168.327 186.311C168.212 186.357 168.114 186.429 168.034 186.529C167.956 186.626 167.917 186.754 167.917 186.912V189.158H167.319ZM174.728 190.231C174.531 190.231 174.396 190.217 174.322 190.188C174.248 190.16 174.212 190.146 174.212 190.146V189.756L174.553 189.763C174.679 189.767 174.783 189.758 174.865 189.737C174.947 189.715 175.013 189.686 175.063 189.649C175.113 189.612 175.151 189.571 175.177 189.525C175.205 189.48 175.228 189.437 175.245 189.395L175.362 189.077L174.049 185.798H174.657L175.648 188.391L176.633 185.798H177.221L175.804 189.412C175.717 189.624 175.62 189.79 175.512 189.909C175.405 190.028 175.286 190.112 175.154 190.159C175.024 190.207 174.882 190.231 174.728 190.231ZM179.078 189.223C178.768 189.223 178.497 189.157 178.265 189.025C178.034 188.891 177.854 188.695 177.726 188.437C177.598 188.179 177.534 187.864 177.534 187.491C177.534 187.14 177.594 186.832 177.713 186.568C177.832 186.304 178.006 186.099 178.236 185.954C178.468 185.806 178.749 185.733 179.078 185.733C179.388 185.733 179.656 185.801 179.884 185.937C180.114 186.072 180.291 186.27 180.417 186.532C180.543 186.794 180.605 187.114 180.605 187.491C180.605 187.833 180.547 188.134 180.43 188.394C180.315 188.654 180.144 188.858 179.916 189.005C179.691 189.151 179.412 189.223 179.078 189.223ZM179.078 188.749C179.279 188.749 179.449 188.698 179.588 188.596C179.727 188.494 179.832 188.348 179.903 188.157C179.975 187.967 180.011 187.74 180.011 187.478C180.011 187.237 179.979 187.022 179.916 186.831C179.854 186.638 179.753 186.486 179.614 186.373C179.478 186.26 179.299 186.204 179.078 186.204C178.874 186.204 178.702 186.255 178.561 186.357C178.42 186.456 178.313 186.602 178.239 186.792C178.168 186.983 178.132 187.211 178.132 187.478C178.132 187.714 178.165 187.929 178.23 188.121C178.295 188.314 178.396 188.467 178.535 188.58C178.674 188.692 178.855 188.749 179.078 188.749ZM182.57 189.223C182.394 189.221 182.229 189.196 182.073 189.148C181.919 189.099 181.782 189.026 181.663 188.931C181.544 188.835 181.45 188.717 181.38 188.576C181.313 188.433 181.28 188.268 181.28 188.079V185.798H181.881V188.017C181.881 188.236 181.948 188.414 182.082 188.55C182.219 188.687 182.424 188.755 182.697 188.755C182.944 188.755 183.142 188.691 183.291 188.563C183.443 188.433 183.519 188.241 183.519 187.985V185.798H184.117V189.158H183.639L183.577 188.515C183.536 188.684 183.466 188.82 183.366 188.924C183.269 189.028 183.151 189.105 183.012 189.155C182.875 189.203 182.728 189.225 182.57 189.223ZM185.099 189.158V185.798H185.671V186.444C185.727 186.284 185.806 186.152 185.908 186.048C186.01 185.942 186.126 185.863 186.256 185.811C186.388 185.759 186.525 185.733 186.666 185.733C186.715 185.733 186.764 185.736 186.812 185.742C186.859 185.749 186.896 185.76 186.922 185.775V186.357C186.89 186.342 186.848 186.332 186.796 186.327C186.746 186.321 186.703 186.318 186.669 186.318C186.534 186.309 186.409 186.318 186.292 186.344C186.175 186.368 186.072 186.41 185.983 186.47C185.894 186.531 185.824 186.611 185.772 186.711C185.722 186.808 185.697 186.928 185.697 187.068V189.158H185.099ZM76.8743 198.223C76.6576 198.223 76.4658 198.185 76.299 198.109C76.1322 198.031 76.0011 197.92 75.9058 197.775C75.8126 197.63 75.766 197.454 75.766 197.248C75.766 196.876 75.896 196.598 76.156 196.416C76.416 196.234 76.8331 196.137 77.4073 196.124L78.0085 196.107V195.844C78.0085 195.638 77.9468 195.476 77.8233 195.357C77.6998 195.235 77.508 195.175 77.248 195.175C77.0552 195.177 76.8851 195.222 76.7378 195.311C76.5926 195.4 76.4983 195.545 76.455 195.747H75.9253C75.9383 195.528 76 195.344 76.1105 195.194C76.221 195.043 76.3748 194.928 76.572 194.85C76.7713 194.772 77.0064 194.733 77.2773 194.733C77.5698 194.733 77.8124 194.774 78.0053 194.856C78.2003 194.939 78.3454 195.06 78.4408 195.22C78.5383 195.381 78.587 195.578 78.587 195.812V198.158H78.0735L78.0313 197.528C77.9013 197.79 77.7355 197.972 77.534 198.074C77.3347 198.173 77.1148 198.223 76.8743 198.223ZM77.0563 197.791C77.1689 197.791 77.2805 197.77 77.391 197.729C77.5037 197.688 77.6066 197.633 77.6998 197.563C77.7929 197.492 77.8666 197.413 77.9208 197.326C77.9771 197.237 78.0063 197.146 78.0085 197.053V196.478L77.508 196.488C77.2523 196.492 77.0378 196.518 76.8645 196.566C76.6933 196.613 76.5644 196.688 76.4778 196.79C76.3933 196.892 76.351 197.025 76.351 197.19C76.351 197.378 76.416 197.526 76.546 197.632C76.6782 197.738 76.8483 197.791 77.0563 197.791ZM80.9527 194.733C81.1932 194.733 81.4099 194.779 81.6027 194.872C81.7955 194.963 81.9526 195.093 82.074 195.262C82.1975 195.431 82.2744 195.631 82.3047 195.86H81.7717C81.7522 195.743 81.7067 195.636 81.6352 195.539C81.5659 195.441 81.4738 195.363 81.359 195.305C81.2441 195.246 81.1098 195.217 80.956 195.217C80.6678 195.217 80.4338 195.321 80.254 195.529C80.0741 195.737 79.9842 196.055 79.9842 196.484C79.9842 196.872 80.0665 197.183 80.2312 197.417C80.398 197.649 80.6429 197.765 80.9657 197.765C81.1195 197.765 81.2528 197.736 81.3655 197.677C81.4803 197.617 81.5724 197.537 81.6417 197.44C81.711 197.34 81.7555 197.234 81.775 197.121H82.2982C82.27 197.347 82.1942 197.542 82.0707 197.706C81.9472 197.871 81.789 197.999 81.5962 198.09C81.4055 198.179 81.191 198.223 80.9527 198.223C80.6515 198.223 80.384 198.157 80.15 198.025C79.9181 197.893 79.7361 197.698 79.604 197.44C79.4718 197.182 79.4057 196.866 79.4057 196.491C79.4057 196.14 79.4653 195.833 79.5845 195.571C79.7058 195.307 79.8813 195.101 80.111 194.954C80.3428 194.806 80.6234 194.733 80.9527 194.733ZM84.4566 194.733C84.6971 194.733 84.9138 194.779 85.1066 194.872C85.2994 194.963 85.4565 195.093 85.5779 195.262C85.7014 195.431 85.7783 195.631 85.8086 195.86H85.2756C85.2561 195.743 85.2106 195.636 85.1391 195.539C85.0698 195.441 84.9777 195.363 84.8629 195.305C84.748 195.246 84.6137 195.217 84.4599 195.217C84.1717 195.217 83.9377 195.321 83.7579 195.529C83.578 195.737 83.4881 196.055 83.4881 196.484C83.4881 196.872 83.5704 197.183 83.7351 197.417C83.9019 197.649 84.1468 197.765 84.4696 197.765C84.6234 197.765 84.7567 197.736 84.8694 197.677C84.9842 197.617 85.0763 197.537 85.1456 197.44C85.2149 197.34 85.2594 197.234 85.2789 197.121H85.8021C85.7739 197.347 85.6981 197.542 85.5746 197.706C85.4511 197.871 85.2929 197.999 85.1001 198.09C84.9094 198.179 84.6949 198.223 84.4566 198.223C84.1554 198.223 83.8879 198.157 83.6539 198.025C83.422 197.893 83.24 197.698 83.1079 197.44C82.9757 197.182 82.9096 196.866 82.9096 196.491C82.9096 196.14 82.9692 195.833 83.0884 195.571C83.2097 195.307 83.3852 195.101 83.6149 194.954C83.8467 194.806 84.1273 194.733 84.4566 194.733ZM87.9573 198.223C87.6474 198.223 87.3766 198.157 87.1448 198.025C86.9129 197.891 86.7331 197.695 86.6053 197.437C86.4774 197.179 86.4135 196.864 86.4135 196.491C86.4135 196.14 86.4731 195.832 86.5923 195.568C86.7114 195.304 86.8859 195.099 87.1155 194.954C87.3474 194.806 87.6279 194.733 87.9573 194.733C88.2671 194.733 88.5358 194.801 88.7633 194.937C88.9929 195.072 89.1706 195.27 89.2963 195.532C89.4219 195.794 89.4848 196.114 89.4848 196.491C89.4848 196.833 89.4263 197.134 89.3093 197.394C89.1944 197.654 89.0233 197.858 88.7958 198.005C88.5704 198.151 88.2909 198.223 87.9573 198.223ZM87.9573 197.749C88.1588 197.749 88.3289 197.698 88.4675 197.596C88.6062 197.494 88.7113 197.348 88.7828 197.157C88.8543 196.967 88.89 196.74 88.89 196.478C88.89 196.237 88.8586 196.022 88.7958 195.831C88.7329 195.638 88.6322 195.486 88.4935 195.373C88.357 195.26 88.1783 195.204 87.9573 195.204C87.7536 195.204 87.5814 195.255 87.4405 195.357C87.2997 195.456 87.1924 195.602 87.1188 195.792C87.0473 195.983 87.0115 196.211 87.0115 196.478C87.0115 196.714 87.044 196.929 87.109 197.121C87.174 197.314 87.2759 197.467 87.4145 197.58C87.5532 197.692 87.7341 197.749 87.9573 197.749ZM91.4493 198.223C91.2738 198.221 91.108 198.196 90.952 198.148C90.7982 198.099 90.6617 198.026 90.5425 197.931C90.4234 197.835 90.3291 197.717 90.2598 197.576C90.1926 197.433 90.159 197.268 90.159 197.079V194.798H90.7603V197.017C90.7603 197.236 90.8275 197.414 90.9618 197.55C91.0983 197.687 91.303 197.755 91.576 197.755C91.823 197.755 92.0213 197.691 92.1708 197.563C92.3225 197.433 92.3983 197.241 92.3983 196.985V194.798H92.9963V198.158H92.5185L92.4568 197.515C92.4156 197.684 92.3452 197.82 92.2455 197.924C92.148 198.028 92.03 198.105 91.8913 198.155C91.7548 198.203 91.6075 198.225 91.4493 198.223ZM93.9785 198.158V194.798H94.5602V195.285C94.6144 195.192 94.6891 195.104 94.7845 195.022C94.882 194.94 94.999 194.874 95.1355 194.824C95.2741 194.774 95.4334 194.749 95.6132 194.749C95.8255 194.749 96.0205 194.791 96.1982 194.876C96.378 194.96 96.521 195.092 96.6272 195.272C96.7355 195.45 96.7897 195.68 96.7897 195.961V198.158H96.1885V196.02C96.1885 195.758 96.1191 195.564 95.9805 195.438C95.844 195.31 95.6663 195.246 95.4475 195.246C95.2958 195.246 95.1539 195.271 95.0217 195.321C94.8895 195.369 94.7823 195.442 94.7 195.542C94.6176 195.639 94.5765 195.763 94.5765 195.912V198.158H93.9785ZM99.2785 195.236H98.5213V197.326C98.5213 197.445 98.5332 197.533 98.557 197.589C98.583 197.644 98.6253 197.678 98.6838 197.693C98.7445 197.709 98.8268 197.716 98.9308 197.716H99.298V198.119C99.2569 198.134 99.194 198.147 99.1095 198.158C99.0272 198.169 98.9243 198.174 98.8008 198.174C98.569 198.174 98.3891 198.143 98.2613 198.08C98.1335 198.017 98.0435 197.924 97.9915 197.801C97.9417 197.677 97.9168 197.526 97.9168 197.346V195.236H97.3708V194.798H97.933L98.0793 193.819H98.5213V194.794H99.2785V195.236ZM102.29 194.798V198.158H101.708V194.798H102.29ZM102.303 193.462V194.086H101.689V193.462H102.303ZM104.54 198.223C104.306 198.223 104.089 198.187 103.887 198.116C103.688 198.042 103.522 197.929 103.39 197.775C103.258 197.619 103.174 197.42 103.14 197.18H103.686C103.716 197.312 103.77 197.423 103.848 197.511C103.928 197.598 104.028 197.664 104.147 197.71C104.266 197.753 104.396 197.775 104.537 197.775C104.762 197.775 104.944 197.732 105.083 197.648C105.222 197.563 105.291 197.433 105.291 197.258C105.291 197.134 105.254 197.036 105.181 196.962C105.109 196.886 104.998 196.831 104.846 196.796L104.15 196.624C103.88 196.559 103.663 196.457 103.5 196.319C103.338 196.18 103.257 195.986 103.257 195.737C103.254 195.54 103.301 195.366 103.396 195.217C103.492 195.067 103.635 194.949 103.825 194.863C104.016 194.776 104.253 194.733 104.537 194.733C104.901 194.733 105.195 194.815 105.418 194.98C105.643 195.142 105.76 195.382 105.769 195.698H105.239C105.217 195.538 105.145 195.411 105.021 195.318C104.9 195.222 104.736 195.175 104.531 195.175C104.316 195.175 104.142 195.218 104.007 195.305C103.873 195.389 103.806 195.521 103.806 195.701C103.806 195.82 103.854 195.915 103.949 195.984C104.044 196.051 104.185 196.107 104.371 196.153L105.044 196.322C105.2 196.363 105.328 196.417 105.428 196.484C105.529 196.552 105.61 196.626 105.668 196.709C105.729 196.791 105.771 196.878 105.795 196.969C105.821 197.058 105.834 197.143 105.834 197.225C105.834 197.431 105.782 197.609 105.678 197.758C105.576 197.906 105.429 198.021 105.236 198.103C105.045 198.183 104.813 198.223 104.54 198.223ZM111.841 196.367C111.841 196.747 111.779 197.076 111.655 197.355C111.532 197.633 111.332 197.847 111.054 197.999C110.779 198.148 110.414 198.223 109.959 198.223C109.502 198.223 109.136 198.147 108.86 197.996C108.585 197.842 108.386 197.624 108.262 197.342C108.141 197.061 108.08 196.725 108.08 196.335V193.459H109.046V196.406C109.046 196.757 109.13 197.014 109.299 197.177C109.468 197.337 109.688 197.417 109.959 197.417C110.139 197.417 110.298 197.383 110.437 197.313C110.575 197.242 110.684 197.132 110.762 196.985C110.842 196.835 110.882 196.643 110.882 196.406V193.459H111.841V196.367ZM114.549 198.223C114.317 198.223 114.089 198.194 113.866 198.135C113.643 198.077 113.439 197.989 113.255 197.872C113.071 197.755 112.918 197.609 112.797 197.433C112.678 197.258 112.606 197.052 112.583 196.816H113.554C113.587 196.959 113.649 197.079 113.74 197.177C113.831 197.274 113.945 197.349 114.084 197.401C114.223 197.453 114.377 197.479 114.546 197.479C114.719 197.479 114.877 197.457 115.02 197.414C115.163 197.371 115.278 197.306 115.365 197.219C115.451 197.13 115.495 197.02 115.495 196.887C115.495 196.768 115.459 196.671 115.387 196.595C115.318 196.519 115.224 196.457 115.105 196.41C114.985 196.362 114.85 196.323 114.698 196.293L113.886 196.127C113.53 196.06 113.249 195.919 113.041 195.704C112.833 195.488 112.726 195.2 112.719 194.84C112.717 194.545 112.795 194.291 112.953 194.076C113.113 193.86 113.33 193.693 113.603 193.576C113.878 193.459 114.186 193.4 114.526 193.4C114.931 193.4 115.271 193.464 115.547 193.592C115.824 193.718 116.034 193.889 116.177 194.105C116.322 194.32 116.397 194.559 116.401 194.824H115.449C115.432 194.659 115.382 194.528 115.3 194.43C115.217 194.333 115.111 194.263 114.981 194.219C114.853 194.176 114.707 194.154 114.542 194.154C114.417 194.154 114.302 194.168 114.198 194.196C114.096 194.225 114.009 194.265 113.938 194.317C113.866 194.367 113.811 194.426 113.772 194.495C113.733 194.565 113.714 194.643 113.714 194.729C113.714 194.866 113.759 194.976 113.85 195.061C113.941 195.145 114.111 195.215 114.36 195.269L115.166 195.435C115.454 195.491 115.683 195.574 115.852 195.685C116.023 195.795 116.151 195.92 116.236 196.059C116.322 196.197 116.379 196.339 116.405 196.484C116.433 196.627 116.447 196.76 116.447 196.881C116.447 197.134 116.367 197.363 116.206 197.567C116.048 197.768 115.827 197.929 115.543 198.048C115.259 198.165 114.928 198.223 114.549 198.223ZM120.44 198.223C119.876 198.223 119.419 198.111 119.068 197.885C118.717 197.658 118.516 197.308 118.464 196.835L119.452 196.816C119.504 197.03 119.615 197.194 119.786 197.307C119.96 197.417 120.176 197.472 120.436 197.472C120.592 197.472 120.73 197.448 120.849 197.398C120.97 197.346 121.066 197.276 121.135 197.19C121.204 197.101 121.239 197 121.239 196.887C121.239 196.714 121.184 196.585 121.073 196.501C120.963 196.414 120.793 196.345 120.563 196.293L119.793 196.127C119.435 196.055 119.148 195.914 118.932 195.701C118.717 195.487 118.608 195.2 118.603 194.84C118.601 194.545 118.68 194.291 118.841 194.076C119.003 193.86 119.223 193.693 119.5 193.576C119.78 193.459 120.093 193.4 120.44 193.4C120.795 193.4 121.102 193.464 121.359 193.592C121.619 193.718 121.819 193.888 121.957 194.102C122.098 194.315 122.166 194.55 122.162 194.807L121.203 194.824C121.173 194.616 121.104 194.452 120.995 194.333C120.887 194.214 120.707 194.154 120.456 194.154C120.326 194.154 120.21 194.168 120.108 194.196C120.006 194.225 119.919 194.265 119.845 194.317C119.771 194.367 119.715 194.426 119.676 194.495C119.639 194.565 119.621 194.643 119.621 194.729C119.621 194.866 119.666 194.974 119.757 195.054C119.85 195.132 120.025 195.205 120.28 195.272L121.038 195.457C121.464 195.559 121.772 195.734 121.961 195.981C122.151 196.228 122.247 196.528 122.247 196.881C122.247 197.152 122.172 197.388 122.022 197.589C121.875 197.791 121.666 197.947 121.395 198.057C121.124 198.168 120.806 198.223 120.44 198.223ZM120.033 192.786H120.856V193.631H120.033V192.786ZM120.017 197.934H120.836V198.779H120.017V197.934ZM123.684 198.158V194.638H122.846V194.102C123.114 194.102 123.331 194.077 123.496 194.027C123.662 193.975 123.787 193.902 123.869 193.806C123.952 193.709 124 193.593 124.016 193.459H124.646V198.158H123.684ZM127.446 193.394C128.005 193.394 128.446 193.603 128.769 194.021C129.092 194.437 129.253 195.036 129.253 195.818C129.253 196.596 129.094 197.193 128.775 197.609C128.457 198.023 128.014 198.23 127.446 198.23C126.876 198.23 126.431 198.023 126.11 197.609C125.792 197.195 125.632 196.599 125.632 195.821C125.632 195.301 125.706 194.861 125.853 194.499C126.001 194.137 126.21 193.863 126.481 193.676C126.752 193.488 127.073 193.394 127.446 193.394ZM127.446 197.453C127.725 197.453 127.93 197.328 128.06 197.079C128.19 196.828 128.255 196.409 128.255 195.821C128.255 195.221 128.189 194.791 128.057 194.531C127.925 194.271 127.72 194.141 127.443 194.141C127.165 194.141 126.958 194.272 126.822 194.534C126.688 194.797 126.62 195.226 126.62 195.821C126.62 196.406 126.688 196.825 126.822 197.076C126.956 197.327 127.164 197.453 127.446 197.453ZM131.932 193.459H132.864V196.322H133.589V197.118H132.864V198.158H131.951L131.954 197.118H129.79V196.338L131.932 193.459ZM130.667 196.322H131.954V194.599L130.667 196.322ZM134.098 198.158V197.125H135.138V198.158H134.098ZM137.54 198.23C137.247 198.23 136.974 198.173 136.721 198.061C136.467 197.948 136.26 197.79 136.1 197.586C135.94 197.38 135.85 197.14 135.83 196.865H136.734C136.773 197.047 136.859 197.195 136.994 197.31C137.128 197.423 137.297 197.479 137.501 197.479C137.726 197.479 137.923 197.426 138.092 197.32C138.263 197.214 138.391 197.045 138.476 196.813C138.562 196.581 138.593 196.278 138.567 195.903C138.506 196.018 138.422 196.118 138.313 196.205C138.207 196.289 138.083 196.356 137.94 196.403C137.797 196.449 137.637 196.471 137.462 196.471C137.143 196.471 136.861 196.412 136.614 196.293C136.369 196.171 136.176 196 136.035 195.779C135.896 195.556 135.827 195.292 135.827 194.986C135.827 194.679 135.901 194.404 136.048 194.164C136.195 193.923 136.401 193.735 136.666 193.598C136.93 193.462 137.24 193.394 137.595 193.394C137.994 193.394 138.337 193.489 138.625 193.68C138.916 193.868 139.138 194.137 139.292 194.486C139.448 194.832 139.526 195.241 139.526 195.711C139.526 196.272 139.445 196.74 139.285 197.115C139.127 197.488 138.899 197.767 138.603 197.953C138.306 198.138 137.951 198.23 137.54 198.23ZM137.624 195.717C137.756 195.717 137.884 195.688 138.008 195.63C138.133 195.569 138.236 195.493 138.317 195.402C138.397 195.311 138.437 195.217 138.437 195.119C138.439 194.909 138.405 194.729 138.336 194.58C138.269 194.428 138.174 194.312 138.05 194.232C137.929 194.152 137.787 194.112 137.624 194.112C137.475 194.112 137.342 194.147 137.225 194.216C137.108 194.285 137.015 194.383 136.948 194.508C136.881 194.634 136.848 194.779 136.848 194.944C136.848 195.189 136.919 195.379 137.062 195.516C137.205 195.65 137.392 195.717 137.624 195.717ZM141.893 193.394C142.452 193.394 142.893 193.603 143.216 194.021C143.539 194.437 143.7 195.036 143.7 195.818C143.7 196.596 143.541 197.193 143.222 197.609C142.904 198.023 142.461 198.23 141.893 198.23C141.323 198.23 140.878 198.023 140.557 197.609C140.239 197.195 140.08 196.599 140.08 195.821C140.08 195.301 140.153 194.861 140.301 194.499C140.448 194.137 140.657 193.863 140.928 193.676C141.199 193.488 141.521 193.394 141.893 193.394ZM141.893 197.453C142.173 197.453 142.377 197.328 142.507 197.079C142.637 196.828 142.702 196.409 142.702 195.821C142.702 195.221 142.636 194.791 142.504 194.531C142.372 194.271 142.167 194.141 141.89 194.141C141.613 194.141 141.406 194.272 141.269 194.534C141.135 194.797 141.068 195.226 141.068 195.821C141.068 196.406 141.135 196.825 141.269 197.076C141.404 197.327 141.612 197.453 141.893 197.453ZM144.341 198.158V197.391H145.056V198.158H144.341Z" fill="#36536B"/>
</g>
</g>
<defs>
<filter id="filter0_d_0_2411" x="0" y="0" width="315.765" height="459.317" filterUnits="userSpaceOnUse" color-interpolation-filters="sRGB">
<feFlood flood-opacity="0" result="BackgroundImageFix"/>
<feColorMatrix in="SourceAlpha" type="matrix" values="0 0 0 0 0 0 0 0 0 0 0 0 0 0 0 0 0 0 127 0" result="hardAlpha"/>
<feOffset dx="25" dy="25"/>
<feGaussianBlur stdDeviation="40"/>
<feColorMatrix type="matrix" values="0 0 0 0 0.212302 0 0 0 0 0.32521 0 0 0 0 0.419299 0 0 0 0.300727 0"/>
<feBlend mode="normal" in2="BackgroundImageFix" result="effect1_dropShadow_0_2411"/>
<feBlend mode="normal" in="SourceGraphic" in2="effect1_dropShadow_0_2411" result="shape"/>
</filter>
<filter id="filter1_d_0_2411" x="61.2529" y="149.658" width="161.255" height="83.1914" filterUnits="userSpaceOnUse" color-interpolation-filters="sRGB">
<feFlood flood-opacity="0" result="BackgroundImageFix"/>
<feColorMatrix in="SourceAlpha" type="matrix" values="0 0 0 0 0 0 0 0 0 0 0 0 0 0 0 0 0 0 127 0" result="hardAlpha"/>
<feMorphology radius="10" operator="erode" in="SourceAlpha" result="effect1_dropShadow_0_2411"/>
<feOffset dx="10" dy="10"/>
<feGaussianBlur stdDeviation="12.5"/>
<feColorMatrix type="matrix" values="0 0 0 0 0.212302 0 0 0 0 0.32521 0 0 0 0 0.419299 0 0 0 0.25 0"/>
<feBlend mode="normal" in2="BackgroundImageFix" result="effect1_dropShadow_0_2411"/>
<feBlend mode="normal" in="SourceGraphic" in2="effect1_dropShadow_0_2411" result="shape"/>
</filter>
<linearGradient id="paint0_linear_0_2411" x1="59.5021" y1="54.6582" x2="59.5021" y2="62.0526" gradientUnits="userSpaceOnUse">
<stop stop-color="#454545"/>
<stop offset="0.226279" stop-color="#999999"/>
<stop offset="1" stop-color="white"/>
</linearGradient>
<linearGradient id="paint1_linear_0_2411" x1="210.696" y1="106.107" x2="204.977" y2="106.107" gradientUnits="userSpaceOnUse">
<stop stop-color="white" stop-opacity="0.01"/>
<stop offset="0.222178" stop-color="#BABABA"/>
<stop offset="0.54678" stop-color="white" stop-opacity="0.01"/>
<stop offset="1" stop-color="white" stop-opacity="0.01"/>
</linearGradient>
<linearGradient id="paint2_linear_0_2411" x1="55" y1="105.95" x2="60.7289" y2="105.95" gradientUnits="userSpaceOnUse">
<stop stop-color="white" stop-opacity="0.01"/>
<stop offset="0.222178" stop-color="#BABABA"/>
<stop offset="0.54678" stop-color="white" stop-opacity="0.01"/>
<stop offset="1" stop-color="white" stop-opacity="0.01"/>
</linearGradient>
<linearGradient id="paint3_linear_0_2411" x1="62.9964" y1="61.6582" x2="62.9964" y2="338.486" gradientUnits="userSpaceOnUse">
<stop stop-color="#9CB6CD"/>
<stop offset="0.420564" stop-color="#9AB3CA"/>
<stop offset="0.716592" stop-color="#557496"/>
<stop offset="1" stop-color="#475178"/>
</linearGradient>
<clipPath id="clip0_0_2411">
<rect width="132" height="54" fill="white" transform="translate(66.2529 154.658)"/>
</clipPath>
</defs>
</svg>
